<svg xmlns="http://www.w3.org/2000/svg" width="41" height="40" viewBox="0 0 41 40" fill="none">
    <g clip-path="url(#clip0_1_1447)">
        <path d="M11.6834 26.5483C14.2281 23.7414 12.1923 19.1268 8.36613 19.1407C4.54012 19.1268 2.5041 23.7421 5.04902 26.5483C2.33176 27.2952 0.329102 29.786 0.329102 32.7373V34.3555C0.329102 34.8301 0.713867 35.2149 1.18848 35.2149H15.5439C16.0186 35.2149 16.4033 34.8301 16.4033 34.3555V32.7373C16.4033 29.786 14.4007 27.2952 11.6834 26.5483ZM8.36621 20.8594C9.87129 20.8594 11.0957 22.0839 11.0957 23.5889C10.9458 27.21 5.78613 27.2089 5.63676 23.5889C5.63676 22.0839 6.86121 20.8594 8.36621 20.8594ZM14.6846 33.4961H2.04785V32.7373C2.04785 30.1456 4.15629 28.0371 6.74801 28.0371H9.98449C12.5761 28.0371 14.6846 30.1456 14.6846 32.7373V33.4961H14.6846Z" fill="#51C0C4" class="dont-remove"/>
        <path d="M35.4511 31.3335C37.9957 28.5265 35.96 23.912 32.1338 23.9258C28.3078 23.912 26.2718 28.5273 28.8166 31.3335C26.0993 32.0803 24.0967 34.5712 24.0967 37.5225V39.1407C24.0967 39.6153 24.4814 40 24.9561 40H39.3115C39.7861 40 40.1709 39.6153 40.1709 39.1407V37.5225C40.171 34.5712 38.1683 32.0803 35.4511 31.3335ZM32.1339 25.6446C33.6389 25.6446 34.8634 26.869 34.8634 28.3741C34.7135 31.9951 29.5538 31.9941 29.4044 28.3741C29.4043 26.869 30.6288 25.6446 32.1339 25.6446ZM38.4522 38.2813H25.8155V37.5225C25.8155 34.9307 27.9239 32.8223 30.5157 32.8223H33.7521C36.3438 32.8223 38.4523 34.9307 38.4523 37.5225V38.2813H38.4522Z" fill="#51C0C4" class="dont-remove"/>
        <path d="M25.035 11.2891C24.0253 11.3128 23.8718 9.76083 24.8671 9.58676C26.0827 9.36801 26.27 11.2661 25.035 11.2891Z" fill="#51C0C4" class="dont-remove"/>
        <path d="M28.4393 11.2891C27.4294 11.3126 27.2762 9.76091 28.2714 9.58677C29.4869 9.36795 29.674 11.2662 28.4393 11.2891Z" fill="#51C0C4" class="dont-remove"/>
        <path d="M21.6309 11.289C20.3956 11.2658 20.5834 9.36769 21.7989 9.58668C22.7938 9.76113 22.6407 11.3127 21.6309 11.289Z" fill="#51C0C4" class="dont-remove"/>
        <path d="M29.8203 4.78516H25.8292C25.4141 2.07914 23.0703 0 20.25 0H10.6797C7.56727 0 5.03516 2.53211 5.03516 5.64453V15.2148C5.03274 15.9715 5.96399 16.3633 6.50219 15.8225L11.0356 11.2891H14.6706C15.0334 13.9688 17.5335 16.1258 20.2501 16.0741L29.4644 16.0742L33.9978 20.6077C34.2444 20.8547 34.6164 20.9262 34.9344 20.794C35.2555 20.6609 35.4648 20.3476 35.4648 20V10.4297C35.4648 7.31727 32.9327 4.78516 29.8203 4.78516ZM10.6797 9.57031C10.4518 9.57031 10.2332 9.66086 10.072 9.82203L6.75391 13.1401V5.64453C6.75391 3.47984 8.515 1.71875 10.6797 1.71875H20.25C22.1195 1.71875 23.6881 3.03242 24.081 4.78516H20.25C17.5381 4.74133 15.0436 6.88539 14.6708 9.57031H10.6797ZM33.7461 17.9252L30.428 14.6071C30.2668 14.446 30.0482 14.3554 29.8203 14.3554H20.25C19.201 14.3554 18.2153 13.947 17.474 13.2049C15.0111 10.7633 16.7777 6.49547 20.25 6.50383H25.0351H29.8202C31.9849 6.50383 33.746 8.26492 33.746 10.4296L33.7461 17.9252Z" fill="#2C4461" class="dont-remove"/>
    </g>
    <defs>
        <clipPath id="clip0_1_1447">
            <rect width="40" height="40" fill="white" transform="translate(0.25)"/>
        </clipPath>
    </defs>
</svg>