<svg xmlns="http://www.w3.org/2000/svg" width="40" height="40" viewBox="0 0 40 40" fill="none" class="dont-remove">
    <path d="M16.4814 23.6231C16.0068 23.6231 15.6221 23.2384 15.6221 22.7638V17.3917C15.6221 16.9171 16.0068 16.5323 16.4814 16.5323C16.9561 16.5323 17.3408 16.9171 17.3408 17.3917V22.7638C17.3408 23.2384 16.9561 23.6231 16.4814 23.6231Z" fill="#51C0C4" class="dont-remove"/>
    <path d="M31.4883 23.623C31.0137 23.623 30.6289 23.2383 30.6289 22.7637V17.3737C30.6289 16.899 31.0137 16.5143 31.4883 16.5143C31.9629 16.5143 32.3477 16.899 32.3477 17.3737V22.7637C32.3477 23.2383 31.963 23.623 31.4883 23.623Z" fill="#51C0C4" class="dont-remove"/>
    <path d="M29.5475 23.8451H24.8446V16.3102H29.5475C30.0221 16.3102 30.4069 15.9254 30.4069 15.4508C30.4069 14.9762 30.0221 14.5914 29.5475 14.5914H18.4229C17.9482 14.5914 17.5635 14.9762 17.5635 15.4508C17.5635 15.9254 17.9482 16.3102 18.4229 16.3102H23.1258V23.8451H18.4229C17.9482 23.8451 17.5635 24.2299 17.5635 24.7045C17.5635 25.1791 17.9482 25.5639 18.4229 25.5639H29.5475C30.6841 25.5203 30.6904 23.8916 29.5475 23.8451Z" fill="#51C0C4" class="dont-remove"/>
    <path d="M37.643 7.34817H10.0137C8.81805 1.34746 0.183437 2.02301 0 8.20762C0 8.20754 0 31.7654 0 31.7654C0 34.5468 2.26281 36.8096 5.04422 36.8096H37.643C38.9427 36.8096 40 35.7522 40 34.4525V9.7052C40 8.40551 38.9427 7.34817 37.643 7.34817ZM5.04422 4.88207C6.87789 4.88207 8.36969 6.37395 8.36969 8.20754V27.9773C6.55406 26.315 3.53398 26.3154 1.71875 27.9773V8.20754C1.71875 6.37395 3.21055 4.88207 5.04422 4.88207ZM38.2812 34.4526C38.2812 34.8046 37.9949 35.0909 37.643 35.0909H5.04422C3.21055 35.0909 1.71875 33.5991 1.71875 31.7654C1.90297 27.3517 8.18805 27.3567 8.36969 31.7654C8.36969 32.24 8.75445 32.6247 9.22906 32.6247C9.70367 32.6247 10.0884 32.24 10.0884 31.7654V9.06692H37.643C37.9949 9.06692 38.2812 9.35324 38.2812 9.7052V34.4526Z" fill="#2C4461" class="dont-remove"/>
    <path d="M18.036 18.251H14.9277C14.2406 18.251 13.6816 17.6921 13.6816 17.005V13.8967C13.6816 13.2095 14.2406 12.6506 14.9277 12.6506H18.036C18.7231 12.6506 19.2821 13.2095 19.2821 13.8967V17.005C19.2821 17.6921 18.7231 18.251 18.036 18.251ZM15.4004 16.5323H17.5634V14.3693H15.4004V16.5323Z" fill="#2C4461" class="dont-remove"/>
    <path d="M18.036 27.5047H14.9277C14.2406 27.5047 13.6816 26.9458 13.6816 26.2587V23.1503C13.6816 22.4632 14.2406 21.9043 14.9277 21.9043H18.036C18.7231 21.9043 19.2821 22.4632 19.2821 23.1503V26.2587C19.2821 26.9458 18.7231 27.5047 18.036 27.5047ZM15.4004 25.7859H17.5634V23.623H15.4004V25.7859Z" fill="#2C4461" class="dont-remove"/>
    <path d="M33.0429 18.233H29.9345C29.2475 18.233 28.6885 17.6741 28.6885 16.9869V13.8786C28.6885 13.1915 29.2475 12.6326 29.9345 12.6326H33.0429C33.7299 12.6326 34.2889 13.1915 34.2889 13.8786V16.9869C34.2889 17.6741 33.7299 18.233 33.0429 18.233ZM30.4072 16.5142H32.5701V14.3512H30.4072V16.5142Z" fill="#2C4461" class="dont-remove"/>
    <path d="M33.0429 27.5047H29.9345C29.2475 27.5047 28.6885 26.9458 28.6885 26.2587V23.1503C28.6885 22.4632 29.2475 21.9043 29.9345 21.9043H33.0429C33.7299 21.9043 34.2889 22.4632 34.2889 23.1503V26.2587C34.2889 26.9458 33.7299 27.5047 33.0429 27.5047ZM30.4072 25.7859H32.5701V23.623H30.4072V25.7859Z" fill="#2C4461" class="dont-remove"/>
    <path d="M27.9379 31.4835H14.541C14.0664 31.4835 13.6816 31.0988 13.6816 30.6241C13.6816 30.1495 14.0664 29.7648 14.541 29.7648H27.9379C29.0741 29.8082 29.0811 31.437 27.9379 31.4835Z" fill="#2C4461" class="dont-remove"/>
    <path d="M33.4293 31.4835H31.9271C30.7876 31.4384 30.7871 29.81 31.9271 29.7648H33.4292C34.5688 29.8098 34.5693 31.4383 33.4293 31.4835Z" fill="#2C4461" class="dont-remove"/>
</svg>