<svg xmlns="http://www.w3.org/2000/svg" width="41" height="40" viewBox="0 0 41 40" fill="none" class="dont-remove">
    <path d="M39.8906 34.3555H1.60938V39.1406H39.8906V34.3555Z" stroke="#2C4461" stroke-width="2" stroke-miterlimit="10" stroke-linecap="round" stroke-linejoin="round" class="dont-remove"/>
    <path d="M36.8206 20.7371L25.7793 9.04956" stroke="#51C0C4" stroke-width="2" stroke-miterlimit="10" stroke-linecap="round" stroke-linejoin="round" class="dont-remove"/>
    <path d="M30.6801 24.4543L20.8779 14.0643" stroke="#51C0C4" stroke-width="2" stroke-miterlimit="10" stroke-linecap="round" stroke-linejoin="round" class="dont-remove"/>
    <path d="M15.7262 8.84383L7.83789 0.859375H18.3573L20.7498 3.50156" stroke="#51C0C4" stroke-width="2" stroke-miterlimit="10" stroke-linecap="round" stroke-linejoin="round" class="dont-remove"/>
    <path d="M30.6802 24.4543L36.8204 20.7371L38.6789 23.8072C39.7054 25.5028 39.163 27.7095 37.4674 28.7359L37.4674 28.736C35.7718 29.7623 33.5652 29.22 32.5387 27.5244L30.6802 24.4543Z" stroke="#2C4461" stroke-width="2" stroke-miterlimit="10" stroke-linecap="round" stroke-linejoin="round" class="dont-remove"/>
    <path d="M39.8903 18.8786L27.6099 26.3129" stroke="#2C4461" stroke-width="2" stroke-miterlimit="10" stroke-linecap="round" stroke-linejoin="round" class="dont-remove"/>
    <path d="M37.498 28.736V34.3555" stroke="#2C4461" stroke-width="2" stroke-miterlimit="10" stroke-linecap="round" stroke-linejoin="round" class="dont-remove"/>
    <path d="M10.8199 24.4543L33.6619 0.859375H23.1428L4.67969 20.7371" stroke="#51C0C4" stroke-width="2" stroke-miterlimit="10" stroke-linecap="round" stroke-linejoin="round" class="dont-remove"/>
    <path d="M10.8198 24.4543L4.67956 20.7371L2.82105 23.8072C1.79456 25.5028 2.33699 27.7095 4.03253 28.7359L4.03261 28.736C5.72816 29.7623 7.9348 29.22 8.96128 27.5244L10.8198 24.4543Z" stroke="#2C4461" stroke-width="2" stroke-miterlimit="10" stroke-linecap="round" stroke-linejoin="round" class="dont-remove"/>
    <path d="M1.60938 18.8786L13.8898 26.3129" stroke="#2C4461" stroke-width="2" stroke-miterlimit="10" stroke-linecap="round" stroke-linejoin="round" class="dont-remove"/>
    <path d="M4.00195 28.736V34.3555" stroke="#2C4461" stroke-width="2" stroke-miterlimit="10" stroke-linecap="round" stroke-linejoin="round" class="dont-remove"/>
    <path d="M13.5723 30.7665V34.3554" stroke="#2C4461" stroke-width="2" stroke-miterlimit="10" stroke-linecap="round" stroke-linejoin="round" class="dont-remove"/>
    <path d="M27.9277 30.7665V34.3554" stroke="#2C4461" stroke-width="2" stroke-miterlimit="10" stroke-linecap="round" stroke-linejoin="round" class="dont-remove"/>
    <path d="M23.1426 29.5703H18.3574V34.3555H23.1426V29.5703Z" stroke="#2C4461" stroke-width="2" stroke-miterlimit="10" stroke-linecap="round" stroke-linejoin="round" class="dont-remove"/>
</svg>