<svg width="37" height="40" viewBox="0 0 37 40" fill="none" xmlns="http://www.w3.org/2000/svg" class="dont-remove">
<path d="M18.7497 0.859375L20.73 3.86328L24.2426 4.85016L21.9539 7.63008L22.1445 11.3074L18.7497 9.95805L15.355 11.3074L15.5455 7.63008L13.2568 4.85016L16.7694 3.86328L18.7497 0.859375Z" stroke="#51C0C4" stroke-width="2" stroke-miterlimit="10" stroke-linecap="round" stroke-linejoin="round" class="dont-remove"/>
<path d="M32.1575 18.4469V21.9957C32.1575 27.0107 28.5319 28.7964 26.3195 29.4494C25.3568 29.7332 24.7363 30.6645 24.836 31.665L24.9367 39.1407H12.5632L12.6639 31.6736C12.7635 30.6708 12.1365 29.7363 11.1684 29.4548C8.95494 28.8115 5.34229 27.0399 5.34229 21.9957V18.4469C5.34229 17.1734 6.38299 16.1014 7.6565 16.1273C8.88775 16.1511 9.87861 17.1582 9.87861 18.3949V21.9956C9.87861 23.7661 11.3135 25.201 13.084 25.201C13.084 25.201 14.3121 25.201 15.9603 25.201C14.7549 24.3336 13.971 22.9193 13.971 21.3221C13.971 18.6819 16.1097 16.5421 18.7499 16.5421C21.39 16.5421 23.5288 18.6819 23.5288 21.3221C23.5288 22.9193 22.7447 24.3336 21.5395 25.201C23.1877 25.201 24.4157 25.201 24.4157 25.201C26.1863 25.201 27.6211 23.7662 27.6211 21.9956V18.3949C27.6211 17.1582 28.612 16.1511 29.8432 16.1273C31.1168 16.1014 32.1575 17.1734 32.1575 18.4469Z" stroke="#2C4461" stroke-width="2" stroke-miterlimit="10" stroke-linecap="round" stroke-linejoin="round" class="dont-remove"/>
<path d="M5.78684 3.3075L7.30316 5.60757L9.9927 6.3632L8.24027 8.49171L8.38621 11.3074L5.78684 10.2742L3.18754 11.3074L3.3334 8.49171L1.58105 6.3632L4.27059 5.60757L5.78684 3.3075Z" stroke="#51C0C4" stroke-width="2" stroke-miterlimit="10" stroke-linecap="round" stroke-linejoin="round" class="dont-remove"/>
<path d="M31.7127 3.3075L33.2289 5.60757L35.9185 6.3632L34.1661 8.49171L34.312 11.3074L31.7127 10.2742L29.1133 11.3074L29.2593 8.49171L27.5068 6.3632L30.1964 5.60757L31.7127 3.3075Z" stroke="#51C0C4" stroke-width="2" stroke-miterlimit="10" stroke-linecap="round" stroke-linejoin="round" class="dont-remove"/>
</svg>
