<svg xmlns="http://www.w3.org/2000/svg" width="41" height="40" viewBox="0 0 41 40" fill="none" class="dont-remove">
    <g clip-path="url(#clip0_1_1437)">
        <path d="M37.7104 9.82812C37.5482 9.45953 37.3226 9.11852 37.0466 8.84125C37.0466 8.84125 29.2171 0.969844 29.2109 0.963594C28.6242 0.373672 27.7409 0 26.8954 0H9.77781C7.98445 0 6.52539 1.46008 6.52539 3.25477V17.4398C6.52539 17.9144 6.91016 18.2991 7.38477 18.2991C7.85938 18.2991 8.24414 17.9144 8.24414 17.4398V3.25477C8.24414 2.40781 8.93219 1.71875 9.77781 1.71875H26.8954C26.9426 1.71875 26.9893 1.72203 27.0358 1.72625V10.1517C27.0358 10.6263 27.4205 11.0111 27.8952 11.0111H36.2729C36.2769 11.056 36.2794 11.1011 36.2794 11.1461V33.2309C36.2794 34.0708 35.5971 34.7541 34.7584 34.7541H25.6338C25.1592 34.7541 24.7745 35.1389 24.7745 35.6135C24.7745 36.0881 25.1592 36.4729 25.6338 36.4729H34.7584C36.5448 36.4729 37.9982 35.0185 37.9982 33.2309C37.9982 33.2309 37.9982 11.1598 37.9982 11.1461C37.9982 10.7066 37.8957 10.2494 37.7104 9.82812ZM28.7545 2.94195L35.0711 9.29234H28.7545V2.94195Z" fill="#2C4461" class="dont-remove"/>
        <path d="M18.9734 40H13.9942C13.5196 40 13.1348 39.6152 13.1348 39.1406V37.2407C12.4904 37.0396 11.8661 36.7807 11.2683 36.4667L9.9268 37.8095C9.76562 37.9709 9.54688 38.0616 9.31883 38.0616C9.09078 38.0616 8.87203 37.9709 8.71086 37.8095L5.19008 34.2853C4.85492 33.9498 4.85492 33.4061 5.19008 33.0706L6.5325 31.7269C6.21836 31.1282 5.95961 30.5029 5.75859 29.8574H3.86133C3.38672 29.8574 3.00195 29.4726 3.00195 28.998V24.014C3.00195 23.5394 3.38672 23.1546 3.86133 23.1546H5.75844C5.95945 22.5091 6.21828 21.8838 6.53234 21.2851L5.18992 19.9414C4.85477 19.6059 4.85477 19.0622 5.18992 18.7267L8.7107 15.2024C8.87188 15.0411 9.09063 14.9505 9.31867 14.9505C9.54672 14.9505 9.76547 15.0412 9.92664 15.2024L11.2681 16.5453C11.8659 16.2313 12.4902 15.9724 13.1347 15.7713V13.8713C13.1347 13.3967 13.5195 13.012 13.9941 13.012H18.9732C19.4478 13.012 19.8326 13.3967 19.8326 13.8713V15.7713C20.477 15.9724 21.1013 16.2313 21.6991 16.5453L23.0406 15.2024C23.2018 15.0411 23.4205 14.9505 23.6486 14.9505C23.8766 14.9505 24.0954 15.0411 24.2566 15.2024L27.7773 18.7267C28.1125 19.0622 28.1125 19.6059 27.7773 19.9414L26.4348 21.2851C26.7491 21.8838 27.0078 22.5091 27.2087 23.1546H29.1059C29.5805 23.1546 29.9652 23.5394 29.9652 24.014V28.998C29.9652 29.4726 29.5805 29.8574 29.1059 29.8574H27.2087C27.0078 30.503 26.749 31.1281 26.4349 31.7269L27.7773 33.0706C28.1125 33.4061 28.1125 33.9498 27.7773 34.2853L24.2566 37.8095C24.0953 37.9709 23.8766 38.0616 23.6486 38.0616C23.4205 38.0616 23.2018 37.9709 23.0406 37.8095L21.6991 36.4667C21.1014 36.7807 20.477 37.0396 19.8326 37.2406V39.1406C19.8327 39.6152 19.448 40 18.9734 40ZM14.8536 38.2813H18.114V36.5887C18.114 36.1933 18.3837 35.849 18.7676 35.7543C19.6963 35.5253 20.5821 35.1579 21.4005 34.6623C21.7392 34.4573 22.1739 34.51 22.4536 34.79L23.6487 35.9862L25.9548 33.6779L24.7585 32.4805C24.4792 32.2009 24.4266 31.7668 24.631 31.4286C25.1262 30.6092 25.4934 29.7224 25.7221 28.7927C25.8166 28.4085 26.1611 28.1386 26.5566 28.1386H28.2468V24.8734H26.5566C26.1612 24.8734 25.8166 24.6034 25.7221 24.2193C25.4934 23.2896 25.1262 22.4027 24.631 21.5833C24.4266 21.245 24.4792 20.8109 24.7585 20.5314L25.9548 19.3341L23.6487 17.0258L22.4536 18.222C22.1738 18.502 21.7391 18.5548 21.4005 18.3497C20.5821 17.8541 19.6963 17.4867 18.7676 17.2577C18.3837 17.1631 18.114 16.8187 18.114 16.4234V14.7308H14.8536V16.4234C14.8536 16.8188 14.5838 17.1631 14.2 17.2577C13.2712 17.4867 12.3854 17.8542 11.567 18.3497C11.2282 18.5547 10.7937 18.5019 10.5139 18.222L9.31891 17.0258L7.01273 19.334L8.20898 20.5313C8.48828 20.8109 8.54086 21.2449 8.33648 21.5831C7.84133 22.4026 7.47422 23.2895 7.24539 24.2193C7.15086 24.6034 6.80641 24.8733 6.41086 24.8733H4.7207V28.1385H6.41086C6.80633 28.1385 7.15086 28.4084 7.24539 28.7925C7.47422 29.7223 7.84133 30.6092 8.33648 31.4286C8.54086 31.7669 8.48828 32.2009 8.20898 32.4805L7.01273 33.6779L9.31883 35.9862L10.5138 34.79C10.7937 34.51 11.2284 34.4574 11.567 34.6623C12.3854 35.1579 13.2712 35.5252 14.1999 35.7543C14.5837 35.8489 14.8535 36.1934 14.8535 36.5887V38.2813H14.8536Z" fill="#51C0C4" class="dont-remove"/>
        <path d="M16.4839 32.1254C13.3879 32.1254 10.8691 29.6045 10.8691 26.5059C10.8691 23.4073 13.3879 20.8865 16.4839 20.8865C19.5799 20.8865 22.0987 23.4073 22.0987 26.5059C22.0987 29.6045 19.5799 32.1254 16.4839 32.1254ZM16.4839 22.6052C14.3356 22.6052 12.5879 24.3551 12.5879 26.5059C12.5879 28.6568 14.3356 30.4066 16.4839 30.4066C18.6322 30.4066 20.3799 28.6568 20.3799 26.5059C20.3799 24.3551 18.6322 22.6052 16.4839 22.6052Z" fill="#51C0C4" class="dont-remove"/>
    </g>
    <defs>
        <clipPath id="clip0_1_1437">
            <rect width="40" height="40" fill="white" transform="translate(0.5)"/>
        </clipPath>
    </defs>
</svg>