
<svg preserveAspectRatio="none" xmlns="http://www.w3.org/2000/svg" width="42" height="42" viewBox="0 0 42 42" fill="none" class="dont-remove">
    <path d="M15.5327 9.61938L17.2175 11.3042" stroke="#51C0C4" stroke-width="2" stroke-miterlimit="10" stroke-linecap="round" stroke-linejoin="round"/>
    <path d="M20.5869 14.6738L22.2717 16.3586" stroke="#51C0C4" stroke-width="2" stroke-miterlimit="10" stroke-linecap="round" stroke-linejoin="round"/>
    <path d="M25.6416 19.7281L27.3264 21.4129" stroke="#51C0C4" stroke-width="2" stroke-miterlimit="10" stroke-linecap="round" stroke-linejoin="round"/>
    <path d="M30.6958 24.7825L32.3806 26.4672" stroke="#51C0C4" stroke-width="2" stroke-miterlimit="10" stroke-linecap="round" stroke-linejoin="round"/>
    <path d="M13.9675 28.0326L15.1977 31.9903L17.5907 28.6065L21.7349 28.6594L19.2562 25.3379L20.5872 21.4129L16.6622 22.7439L13.3406 20.2651L13.3936 24.4093L10.0098 26.8023L13.9675 28.0326Z" stroke="#51C0C4" stroke-width="2" stroke-miterlimit="10" stroke-linecap="round" stroke-linejoin="round" class="dont-remove"/>
    <path d="M38.0636 12.1498L29.8502 3.93639C29.1972 3.28339 28.2312 3.0553 27.3551 3.34734L18.9863 6.13691C18.6271 6.25659 18.3009 6.4583 18.0332 6.72596L1.71412 23.0452C0.761959 23.9973 0.761959 25.5411 1.71412 26.4933L15.5067 40.2858C16.4588 41.238 18.0026 41.238 18.9548 40.2858L35.274 23.9667C35.5417 23.699 35.7433 23.3728 35.8631 23.0137L38.6526 14.6449C38.9446 13.7687 38.7166 12.8028 38.0636 12.1498Z" stroke="#2C4461" stroke-width="2" stroke-miterlimit="10" stroke-linecap="round" stroke-linejoin="round" class="dont-remove"/>
    <path d="M30.6959 14.6738C29.7654 15.6043 28.2568 15.6043 27.3263 14.6738C26.3958 13.7434 26.3958 12.2348 27.3263 11.3043C28.2567 10.3738 29.7653 10.3738 30.6959 11.3043C31.6264 12.2348 31.6264 13.7434 30.6959 14.6738Z" stroke="#2C4461" stroke-width="2" stroke-miterlimit="10" stroke-linecap="round" stroke-linejoin="round" class="dont-remove"/>
    <path d="M30.6958 4.56503C33.4873 1.77362 37.2588 1.01925 39.1197 2.88026C40.9806 4.7412 40.2263 8.51276 37.4349 11.3042C35.4995 13.2397 33.0928 14.1958 31.1785 13.98" stroke="#2C4461" stroke-width="2" stroke-miterlimit="10" stroke-linecap="round" stroke-linejoin="round" class="dont-remove"/>
</svg>