<svg xmlns="http://www.w3.org/2000/svg" width="41" height="40" viewBox="0 0 41 40" fill="none" class="dont-remove">
    <g clip-path="url(#clip0_1_1428)">
        <path d="M36.6286 17.6428C35.6273 17.6428 34.6503 17.2194 34.0151 16.5102C33.6985 16.1566 33.7284 15.6133 34.082 15.2966C34.4355 14.9799 34.9789 15.0099 35.2955 15.3635C35.6004 15.7041 36.1238 15.9241 36.6286 15.9241C37.5562 15.9241 38.3107 15.1694 38.3107 14.2419C38.3107 13.3144 37.5561 12.5598 36.6286 12.5598C36.154 12.5598 35.7692 12.1751 35.7692 11.7005V7.25281C35.7692 6.7782 36.154 6.39343 36.6286 6.39343C37.1032 6.39343 37.488 6.7782 37.488 7.25281V10.951C38.9485 11.3327 40.0295 12.6634 40.0295 14.2419C40.0295 16.1172 38.5039 17.6428 36.6286 17.6428Z" fill="#51C0C4" class="dont-remove"/>
        <path d="M35.9993 28.444H25.7539C25.2793 28.444 24.8945 28.0593 24.8945 27.5847V19.9602C24.8945 19.4856 25.2793 19.1008 25.7539 19.1008H32.1077C32.4306 19.1008 32.7263 19.2818 32.873 19.5695L36.7647 27.194C36.9007 27.4604 36.8884 27.7783 36.7321 28.0334C36.576 28.2885 36.2984 28.444 35.9993 28.444ZM26.6133 26.7253H34.5959L31.5815 20.8196H26.6133V26.7253Z" fill="#51C0C4" class="dont-remove"/>
        <path d="M39.8907 26.7253H17.9263L13.8496 22.6487L36.4324 8.11283C36.4984 8.11603 36.5647 8.11783 36.6315 8.11783C38.8587 8.11783 40.6707 6.30588 40.6707 4.07869C40.6707 1.8515 38.8587 0.0395508 36.6315 0.0395508C34.7252 0.0395508 33.1242 1.36736 32.7021 3.14643L7.62011 17.3057C7.35019 17.4581 7.18323 17.7441 7.18323 18.0541V21.6449L2.96019 21.6423C2.96003 21.6423 2.9598 21.6423 2.95964 21.6423C2.73183 21.6423 2.51331 21.7328 2.35214 21.8938C2.19089 22.055 2.10026 22.2736 2.10026 22.5017V27.4787L0.775811 32.7638C0.706748 33.0392 0.778233 33.331 0.966827 33.5433L3.58776 36.4946C3.75089 36.6783 3.98472 36.7834 4.23034 36.7834H6.64081C7.03581 38.5974 8.65339 39.9603 10.584 39.9603C11.8727 39.9603 13.0214 39.3524 13.7609 38.4092C14.5003 39.3524 15.649 39.9603 16.9377 39.9603C18.8684 39.9603 20.4859 38.5974 20.8809 36.7834H27.608C28.003 38.5974 29.6206 39.9603 31.5512 39.9603C33.4819 39.9603 35.0994 38.5974 35.4945 36.7834H37.905C38.1268 36.7834 38.34 36.6976 38.5001 36.544L40.4857 34.6379C40.6545 34.4758 40.7499 34.252 40.7499 34.0179V27.5847C40.75 27.1101 40.3653 26.7253 39.8907 26.7253ZM36.6315 1.75838C37.911 1.75838 38.9519 2.79932 38.9519 4.07877C38.9519 5.35822 37.911 6.39916 36.6315 6.39916C35.3521 6.39916 34.3111 5.35822 34.3111 4.07877C34.3111 2.79932 35.352 1.75838 36.6315 1.75838ZM8.90191 18.5558L32.7254 5.10705C32.9753 6.05549 33.5621 6.86814 34.3498 7.40939L12.2375 21.6424H8.90191V18.5558ZM12.1369 23.3667L15.4956 26.7253H3.81894V23.3617L12.1369 23.3667ZM10.5841 38.2415C9.3062 38.2415 8.26659 37.2019 8.26659 35.924C8.26659 34.6462 9.3062 33.6065 10.5841 33.6065C11.862 33.6065 12.9016 34.6461 12.9016 35.924C12.9016 37.2019 11.862 38.2415 10.5841 38.2415ZM16.9378 38.2415C15.66 38.2415 14.6203 37.2019 14.6203 35.924C14.6203 34.6462 15.66 33.6065 16.9378 33.6065C18.2157 33.6065 19.2553 34.6461 19.2553 35.924C19.2553 37.2019 18.2157 38.2415 16.9378 38.2415ZM31.5514 38.2415C30.2735 38.2415 29.2339 37.2019 29.2339 35.924C29.2339 34.6462 30.2735 33.6065 31.5514 33.6065C32.8292 33.6065 33.8689 34.6461 33.8689 35.924C33.8689 37.2019 32.8292 38.2415 31.5514 38.2415ZM39.0313 33.6516L37.5594 35.0646H35.4946C35.0996 33.2506 33.4821 31.8877 31.5514 31.8877C29.6207 31.8877 28.0032 33.2506 27.6082 35.0646H20.881C20.486 33.2506 18.8685 31.8877 16.9378 31.8877C15.6492 31.8877 14.5005 32.4955 13.761 33.4387C13.0216 32.4955 11.8728 31.8877 10.5842 31.8877C8.65355 31.8877 7.03597 33.2506 6.64097 35.0646H4.61651L2.55331 32.7413L3.63011 28.4442L17.5729 28.447H17.5731C17.5962 28.447 17.6192 28.4459 17.642 28.4441H39.0313V33.6516Z" fill="#2C4461" class="dont-remove"/>
    </g>
    <defs>
        <clipPath id="clip0_1_1428">
            <rect width="40" height="40" fill="white" transform="translate(0.75)"/>
        </clipPath>
    </defs>
</svg>