<svg xmlns="http://www.w3.org/2000/svg" width="41" height="40" viewBox="0 0 41 40" fill="none" class="dont-remove">
    <path d="M14.3646 22.032C13.6454 21.0332 13.2217 19.8073 13.2217 18.4824C13.2217 15.1239 15.9443 12.4012 19.3029 12.4012C20.6281 12.4012 21.8543 12.8252 22.8534 13.5448" stroke="#51C0C4" stroke-width="2" stroke-miterlimit="10" stroke-linecap="round" stroke-linejoin="round" class="dont-remove"/>
    <path d="M25.4736 6.8252C24.8572 6.49817 24.2117 6.21856 23.5419 5.99137V0.947388H15.0643V5.99137C13.4079 6.55325 11.8998 7.43583 10.6128 8.56442L5.99615 5.89903L1.75732 13.2409L6.36881 15.9033C6.20342 16.7375 6.116 17.5997 6.116 18.4824C6.116 19.2271 6.17873 19.957 6.29732 20.668L1.7574 23.2892L3.72787 26.7022" stroke="#51C0C4" stroke-width="2" stroke-miterlimit="10" stroke-linecap="round" stroke-linejoin="round" class="dont-remove"/>
    <path d="M37.552 13.0334C35.4973 15.088 32.5011 15.6262 29.9523 14.6497L22.5745 22.0274L18.4727 17.9255L25.8504 10.5478C24.8738 7.99898 25.412 5.00273 27.4667 2.94804C29.6505 0.764293 32.8985 0.292731 35.5414 1.53422L30.6466 6.42898L34.0711 9.85351L38.9659 4.95875C40.2073 7.60156 39.7358 10.8496 37.552 13.0334Z" stroke="#2C4461" stroke-width="2" stroke-miterlimit="10" stroke-linecap="round" stroke-linejoin="round" class="dont-remove"/>
    <path d="M13.5334 37.0519C15.588 34.9972 16.1262 32.001 15.1497 29.4521L22.5745 22.0273L18.4727 17.9254L11.0478 25.3503C8.49898 24.3737 5.50273 24.9118 3.44804 26.9666C1.26429 29.1503 0.792731 32.3984 2.03422 35.0413L6.92898 30.1465L10.3535 33.571L5.45875 38.4657C8.10156 39.7072 11.3496 39.2357 13.5334 37.0519Z" stroke="#2C4461" stroke-width="2" stroke-miterlimit="10" stroke-linecap="round" stroke-linejoin="round" class="dont-remove"/>
    <path d="M25.8217 18.7797L19.4546 25.1469L22.7342 28.4265L29.1013 22.0594L25.8217 18.7797Z" stroke="#2C4461" stroke-width="2" stroke-miterlimit="10" stroke-linecap="round" stroke-linejoin="round" class="dont-remove"/>
    <path d="M25.9185 25.2429L34.5888 33.9132" stroke="#2C4461" stroke-width="2" stroke-miterlimit="10" stroke-linecap="round" stroke-linejoin="round" class="dont-remove"/>
    <path d="M39.2869 35.7612L36.4365 38.6115L32.9946 35.5072L36.1825 32.3193L39.2869 35.7612Z" stroke="#2C4461" stroke-width="2" stroke-miterlimit="10" stroke-linecap="round" stroke-linejoin="round" class="dont-remove"/>
    <path d="M21.0239 30.1635L30.8126 20.3224" stroke="#2C4461" stroke-width="2" stroke-miterlimit="10" stroke-linecap="round" stroke-linejoin="round" class="dont-remove"/>
</svg>