<?xml version="1.0" encoding="utf-8"?><svg xmlns="http://www.w3.org/2000/svg" xmlns:xlink="http://www.w3.org/1999/xlink"><symbol viewBox="0 0 24 24" id="arrowForward" xmlns="http://www.w3.org/2000/svg"><path d="M6.23 20.23L8 22l10-10L8 2 6.23 3.77 14.46 12z"/></symbol><symbol viewBox="0 0 24 24" id="arrowRight" xmlns="http://www.w3.org/2000/svg"><g clip-path="url(#bclip0_1_189)" stroke-width="1.5" stroke-linecap="round" stroke-linejoin="round"><path d="M5 12h14m-6 6l6-6m-6-6l6 6"/></g><defs><clipPath id="bclip0_1_189"><path d="M0 0h24v24H0z"/></clipPath></defs></symbol><symbol viewBox="0 0 24 24" id="clock" xmlns="http://www.w3.org/2000/svg"><g clip-path="url(#cclip0_1_783)" stroke-width="2" stroke-linecap="round" stroke-linejoin="round"><path d="M3 12a9 9 0 1018.001 0A9 9 0 003 12zm9 0h3.5M12 7v5"/></g><defs><clipPath id="cclip0_1_783"><path d="M0 0h24v24H0z"/></clipPath></defs></symbol><symbol viewBox="0 0 41 40" id="consultations" xmlns="http://www.w3.org/2000/svg"><g clip-path="url(#dclip0_1_1447)"><path d="M11.683 26.548c2.545-2.807.51-7.421-3.317-7.407-3.826-.014-5.862 4.601-3.317 7.407-2.717.747-4.72 3.238-4.72 6.19v1.617c0 .475.385.86.86.86h14.355a.86.86 0 00.86-.86v-1.618c0-2.951-2.003-5.442-4.72-6.189zM8.366 20.86a2.733 2.733 0 012.73 2.73c-.15 3.621-5.31 3.62-5.46 0a2.733 2.733 0 012.73-2.73zm6.319 12.637H2.048v-.759c0-2.591 2.108-4.7 4.7-4.7h3.236c2.592 0 4.7 2.109 4.7 4.7v.76zm20.766-2.163c2.545-2.808.509-7.422-3.317-7.408-3.826-.014-5.862 4.601-3.317 7.408a6.427 6.427 0 00-4.72 6.189v1.618a.86.86 0 00.86.859h14.355a.86.86 0 00.859-.86v-1.617c0-2.952-2.003-5.443-4.72-6.19zm-3.317-5.69a2.733 2.733 0 012.73 2.73c-.15 3.621-5.31 3.62-5.46 0a2.732 2.732 0 012.73-2.73zm6.318 12.637H25.816v-.758c0-2.592 2.108-4.7 4.7-4.7h3.236c2.592 0 4.7 2.108 4.7 4.7v.758zM25.035 11.29c-1.01.023-1.163-1.53-.168-1.703 1.216-.219 1.403 1.68.168 1.702zm3.405 0c-1.01.023-1.164-1.53-.169-1.703 1.216-.219 1.403 1.68.168 1.702zm-6.81-.001c-1.234-.023-1.047-1.921.169-1.702.995.174.842 1.726-.168 1.702z" fill="#51C0C4" class="ddont-remove"/><path d="M29.82 4.785h-3.99A5.653 5.653 0 0020.25 0h-9.57a5.65 5.65 0 00-5.645 5.645v9.57c-.002.757.929 1.148 1.467.607l4.534-4.533h3.635c.362 2.68 2.863 4.837 5.58 4.785h9.213l4.534 4.534A.86.86 0 0035.465 20v-9.57a5.65 5.65 0 00-5.645-5.645zM10.68 9.57a.86.86 0 00-.608.252L6.754 13.14V5.645a3.93 3.93 0 013.926-3.926h9.57a3.933 3.933 0 013.831 3.066H20.25c-2.712-.044-5.206 2.1-5.58 4.785h-3.99zm23.066 8.355l-3.318-3.318a.86.86 0 00-.608-.252h-9.57a3.897 3.897 0 01-2.776-1.15c-2.463-2.442-.696-6.71 2.776-6.701h9.57a3.93 3.93 0 013.926 3.926v7.495z" fill="#2C4461" class="ddont-remove"/></g><defs><clipPath id="dclip0_1_1447"><path transform="translate(.25)" d="M0 0h40v40H0z"/></clipPath></defs></symbol><symbol fill="none" class="edont-remove" viewBox="0 0 40 40" id="document" xmlns="http://www.w3.org/2000/svg"><path d="M16.481 23.623a.86.86 0 01-.859-.86v-5.371a.86.86 0 111.719 0v5.372a.86.86 0 01-.86.86zm15.007 0a.86.86 0 01-.86-.86v-5.39a.86.86 0 111.72 0v5.39a.86.86 0 01-.86.86z" fill="#51C0C4" class="edont-remove"/><path d="M29.547 23.845h-4.702V16.31h4.703a.86.86 0 000-1.719H18.422a.86.86 0 100 1.72h4.703v7.534h-4.703a.86.86 0 100 1.719h11.125c1.136-.044 1.142-1.672 0-1.719z" fill="#51C0C4" class="edont-remove"/><path d="M37.643 7.348h-27.63c-1.195-6-9.83-5.325-10.013.86v23.557a5.05 5.05 0 005.044 5.045h32.599A2.36 2.36 0 0040 34.452V9.706a2.36 2.36 0 00-2.357-2.357zM5.044 4.882A3.33 3.33 0 018.37 8.208v19.77c-1.816-1.663-4.836-1.663-6.651 0V8.207a3.33 3.33 0 013.325-3.326zm33.237 29.57a.639.639 0 01-.638.639H5.044a3.33 3.33 0 01-3.325-3.326c.184-4.413 6.47-4.408 6.65 0a.86.86 0 001.72 0V9.067h27.554c.352 0 .638.286.638.638v24.748z" fill="#2C4461" class="edont-remove"/><path d="M18.036 18.251h-3.108a1.247 1.247 0 01-1.246-1.246v-3.108c0-.688.559-1.246 1.246-1.246h3.108c.687 0 1.246.559 1.246 1.246v3.108c0 .687-.559 1.246-1.246 1.246zM15.4 16.532h2.163V14.37H15.4v2.163zm2.636 10.973h-3.108a1.247 1.247 0 01-1.246-1.246V23.15c0-.687.559-1.246 1.246-1.246h3.108c.687 0 1.246.56 1.246 1.246v3.109c0 .687-.559 1.246-1.246 1.246zm-2.636-1.72h2.163v-2.162H15.4v2.163zm17.643-7.552h-3.108a1.247 1.247 0 01-1.246-1.246v-3.108c0-.688.558-1.246 1.245-1.246h3.109c.687 0 1.246.559 1.246 1.246v3.108c0 .687-.56 1.246-1.246 1.246zm-2.636-1.719h2.163v-2.163h-2.163v2.163zm2.636 10.991h-3.108a1.247 1.247 0 01-1.246-1.246V23.15c0-.687.558-1.246 1.245-1.246h3.109c.687 0 1.246.56 1.246 1.246v3.109c0 .687-.56 1.246-1.246 1.246zm-2.636-1.72h2.163v-2.162h-2.163v2.163zm-2.469 5.698H14.54a.86.86 0 110-1.718h13.397c1.136.043 1.143 1.672 0 1.718zm5.492 0h-1.503c-1.14-.045-1.14-1.673 0-1.718h1.502c1.14.045 1.14 1.673 0 1.718z" fill="#2C4461" class="edont-remove"/></symbol><symbol viewBox="0 0 24 24" id="download" xmlns="http://www.w3.org/2000/svg"><g clip-path="url(#fclip0_1_2171)" stroke-width="1.5" stroke-linecap="round" stroke-linejoin="round"><path d="M4 17v2a2 2 0 002 2h12a2 2 0 002-2v-2M7 11l5 5 5-5m-5-7v12"/></g><defs><clipPath id="fclip0_1_2171"><path d="M0 0h24v24H0z"/></clipPath></defs></symbol><symbol viewBox="0 0 24 24" id="email" xmlns="http://www.w3.org/2000/svg"><g clip-path="url(#gclip0_1_180)" stroke-width="2" stroke-linecap="round" stroke-linejoin="round"><path d="M3 9l9 6 9-6-9-6-9 6z"/><path d="M21 9v10a2 2 0 01-2 2H5a2 2 0 01-2-2V9m0 10l6-6m6 0l6 6"/></g><defs><clipPath id="gclip0_1_180"><path d="M0 0h24v24H0z"/></clipPath></defs></symbol><symbol fill="none" class="hdont-remove" viewBox="0 0 39 40" id="fireAlarm" xmlns="http://www.w3.org/2000/svg"><mask id="ha" maskUnits="userSpaceOnUse" x="0" y="0" width="39" height="40"><path d="M.25 0h38v40h-38V0z" fill="#fff" class="hdont-remove"/></mask><g mask="url(#ha)"><path d="M4.292 9.52v26.362a2.584 2.584 0 002.582 2.585h24.751a2.584 2.584 0 002.583-2.585V4.118a2.584 2.584 0 00-2.582-2.585H6.873a2.584 2.584 0 00-2.582 2.585V21.77" stroke="#2C4461" stroke-width="2" stroke-miterlimit="10" stroke-linecap="round" stroke-linejoin="round" class="hdont-remove"/><path d="M30.25 30.464V13.812c0-1-.682-1.812-1.524-1.812H9.774c-.842 0-1.524.811-1.524 1.812v18.376c0 1 .682 1.812 1.524 1.812h18.952c.842 0 1.524-.811 1.524-1.812V24.81" stroke="#51C0C4" stroke-width="2" stroke-miterlimit="10" stroke-linecap="round" stroke-linejoin="round" class="hdont-remove"/><path d="M29.25 17h-21v12h21" stroke="#51C0C4" stroke-width="2" stroke-miterlimit="10" stroke-linecap="round" stroke-linejoin="round" class="hdont-remove"/><path d="M20.956 23.006a2.005 2.005 0 11-4.007 0 2.005 2.005 0 114.008 0zm3.094.001h2.895m-1.982 1.385l-1.383-1.385 1.384-1.386m-11.107 1.386h-2.895m1.981-1.386l1.384 1.386-1.384 1.385" stroke="#2C4461" stroke-width="2" stroke-miterlimit="10" stroke-linecap="round" stroke-linejoin="round" class="hdont-remove"/></g></symbol><symbol viewBox="0 0 26 19" id="hamburgerClose" xmlns="http://www.w3.org/2000/svg"><path d="M0 0h26v3H0zm0 8h26v3H0zm0 8h26v3H0z"/></symbol><symbol viewBox="0 0 22 21" id="hamburgerOpen" xmlns="http://www.w3.org/2000/svg"><path d="M2.967.032l17.824 17.824-2.057 2.056L.911 2.089z"/><path d="M1.025 18.026L18.964.088l2.07 2.07L3.095 20.095z"/></symbol><symbol class="kdont-remove" viewBox="0 0 128 80" id="logo" xmlns="http://www.w3.org/2000/svg"><path fill-rule="evenodd" clip-rule="evenodd" d="M78.863 62.953c-1.262 0-2.145-.376-2.902-1.127-.757-.752-1.136-1.755-1.136-3.133 0-1.253.379-2.255 1.136-3.007.757-.752 1.64-1.127 2.902-1.127h.883c.252 0 .505.125.757.125.126 0 .378.125.63.25.253.126.38.126.505.251v1.88h-.252c-.126-.126-.252-.251-.379-.251-.126-.125-.378-.25-.504-.376-.252-.125-.379-.25-.631-.25-.252-.126-.505-.126-.757-.126s-.505 0-.757.125c-.252.126-.505.251-.757.502-.252.25-.379.5-.505.877-.126.375-.252.751-.252 1.253 0 .5.126.877.252 1.252.126.376.253.627.505.878.252.25.505.375.757.5.252.126.505.126.757.126s.505 0 .757-.125c.252-.126.505-.126.63-.25.127-.126.38-.252.505-.377.127-.125.253-.25.379-.25h.126v1.88c-.126.124-.378.124-.505.25-.252.125-.378.125-.63.25-.253.125-.505.125-.757.125 0-.125-.379-.125-.757-.125zm5.551-.125v-6.515h-2.397v-1.504h6.813v1.504h-2.397v6.515h-2.019zm11.481-5.513c0 .376 0 .752-.126 1.128-.126.376-.252.626-.504.877-.127.125-.253.25-.505.376-.126.125-.379.25-.505.25-.252.126-.378.126-.63.25-.253 0-.505.126-.757.126h-1.01v2.631H89.84v-8.019h3.155c.504 0 .883 0 1.261.126.379.125.631.25.883.376l.757.751c-.126.251 0 .627 0 1.128zm-2.144 0c0-.25 0-.376-.127-.626l-.378-.376c-.252-.126-.378-.126-.505-.126h-1.009v2.506h1.136c.126 0 .252 0 .378-.125.126 0 .252-.125.252-.125.126-.126.253-.25.253-.376v-.752zm10.598 1.504c0 1.252-.379 2.38-1.009 3.132-.757.752-1.641 1.127-2.902 1.127-1.262 0-2.145-.375-2.902-1.127-.757-.752-1.01-1.754-1.01-3.007 0-1.253.379-2.38 1.01-3.133.757-.751 1.64-1.127 2.902-1.127 1.261 0 2.145.376 2.902 1.128.757.626 1.009 1.628 1.009 3.007zm-2.019 0c0-.502 0-.878-.126-1.253a6.055 6.055 0 00-.378-.877c-.127-.251-.379-.376-.631-.502-.253-.125-.505-.125-.631-.125-.253 0-.505 0-.631.125-.252.126-.379.251-.63.502-.127.25-.253.5-.38.877-.126.375-.126.751-.126 1.253 0 .5 0 .877.127 1.252.126.376.252.627.378.878.126.25.379.375.631.5.252.126.505.126.631.126.252 0 .505 0 .757-.125.252-.126.378-.25.631-.502.126-.25.252-.5.378-.877-.126-.375 0-.751 0-1.252zm10.22 4.009h-2.019v-5.262l-3.154 5.262h-1.893v-8.019h2.019v4.761l2.902-4.76h2.145v8.018zm-.505-10.775c0 .626-.252 1.127-.757 1.503-.504.376-1.135.627-2.145.627-1.009 0-1.64-.25-2.145-.627-.504-.376-.757-.877-.757-1.503h1.767c0 .376.126.626.252.877.126.125.379.25.883.25.379 0 .631-.125.884-.25.126-.126.252-.501.252-.877h1.766zM83.658 78.49h-2.019v-5.388l-1.514 3.508h-1.388l-1.514-3.508v5.388h-1.892v-8.02h2.397l1.766 4.01 1.766-4.01h2.398v8.02zm9.084-4.01c0 1.253-.379 2.38-1.01 3.132-.756.752-1.64 1.128-2.901 1.128-1.262 0-2.145-.376-2.902-1.127-.757-.752-1.01-1.755-1.01-3.007 0-1.253.379-2.381 1.01-3.133.757-.752 1.64-1.127 2.902-1.127 1.261 0 2.145.375 2.902 1.127.63.627 1.009 1.629 1.009 3.007zm-2.145 0c0-.501 0-.877-.126-1.253a5.985 5.985 0 00-.379-.877c-.126-.25-.378-.376-.63-.501-.253-.125-.505-.125-.631-.125-.253 0-.505 0-.631.125-.252.125-.379.25-.631.501-.126.25-.252.501-.379.877-.126.376-.126.752-.126 1.253 0 .501 0 .877.127 1.253.126.376.252.627.378.877s.379.376.63.501c.253.126.506.126.632.126.252 0 .504 0 .757-.126.252-.125.378-.25.63-.5.127-.251.253-.502.38-.878V74.48zm10.22 4.01h-2.019v-3.634h-2.776v3.634h-2.018v-8.02h2.018v3.008h2.776V70.47h2.019v8.019zm3.154 0v-6.516h-2.397v-1.503h6.813v1.503h-2.397v6.516h-2.019zm4.416 0l2.776-8.02h2.271l2.776 8.02h-2.145l-.505-1.63h-2.523l-.505 1.63h-2.145zm4.668-3.133l-.883-2.63-.883 2.63h1.766zm14.762 3.133h-2.397l-2.019-3.258h-.504v3.258h-2.019v-3.258h-.505l-2.019 3.258h-2.397l2.524-4.135-.379-.376c-.126-.125-.252-.376-.378-.752-.127-.376-.253-.626-.505-.877a.968.968 0 00-.631-.25h-.378v-1.754h.757c.504 0 1.009.125 1.387.375.379.251.631.502.757 1.003 0 .125.127.25.127.5 0 .126.126.377.252.502.252.376.378.752.505.877.126.125.378.25.631.25v-3.382h2.018v3.257c.253 0 .505-.125.757-.25.126-.125.379-.376.505-.877 0-.126.126-.25.126-.501.126-.126.126-.376.126-.502.253-.5.505-.877.757-1.002.379-.25.757-.376 1.388-.376h.757v1.754h-.378a.966.966 0 00-.631.25c-.126.126-.253.377-.379.878-.126.376-.252.626-.378.752l-.379.376 2.902 4.26z"/><path fill-rule="evenodd" clip-rule="evenodd" d="M20.32 59.32c.884.751 1.767 1.378 2.65 2.004 5.426 3.634 11.86 5.639 19.178 5.513 31.038-2.13 33.183-49.616-8.58-42.349l.22 1.241c10.219-1.778 17.556-.175 22.396 3.056 4.83 3.225 7.332 8.175 7.709 13.443.757 10.57-7.044 22.32-21.8 23.35-7.038.114-13.202-1.812-18.4-5.289-.883-.626-1.717-1.22-2.547-1.926l-.825.957z" fill="#EF7D00" class="kdont-remove"/><path fill-rule="evenodd" clip-rule="evenodd" d="M38.313 45.907h.049c7.248 0 14.718-2.334 21.334-5.542 5.953-2.887 11.145-6.447 14.77-9.537l2-.075c-7.445 6.766-23.09 16.413-38.104 16.413-32.426 2.506-27.505-15.787 1.262-15.035l-.034 1.26c-7.067-.185-12.59.803-16.393 2.296-1.902.747-3.338 1.605-4.321 2.473-.99.874-1.457 1.696-1.583 2.375-.117.633.033 1.288.606 1.968.6.713 1.677 1.455 3.378 2.085 3.404 1.26 8.967 1.942 16.986 1.322l.05-.003z" fill="#EF7D00" class="kdont-remove"/><path fill-rule="evenodd" clip-rule="evenodd" d="M15.652 78.615l-3.28-17.04h-4.29l-3.155 17.04H1.27l3.154-17.04H2.656v-3.007h2.271l3.407-18.042h3.533L15.4 58.568h1.892v3.007H16.03l3.155 17.04h-3.533zM11.74 58.568l-1.514-8.144-1.514 8.144h3.028z" fill="#BBC1C5" class="kdont-remove"/><path fill-rule="evenodd" clip-rule="evenodd" d="M17.545 50.424h2.397l4.29-25.31h4.037l4.29 25.31h1.893v4.01H33.19l4.038 24.306h-4.164l-4.038-24.307h-5.551L19.437 78.74h-4.163l4.037-24.307h-1.766v-4.009zm6.56 0h4.164l-2.144-12.53-2.02 12.53z" fill="#BBC1C5" class="kdont-remove"/><path d="M55.9 37.644H36.47v4.26H55.9v-4.26z" fill="#EF7D00" class="kdont-remove"/><path fill-rule="evenodd" clip-rule="evenodd" d="M53.629 78.615l-5.173-38.09h-.126l-2.145-16.789-2.145 16.79-5.173 38.089H33.19l5.425-39.593 4.92-37.964h5.426l4.92 37.964 5.3 39.593h-5.552zm28.009-35.959c0 1.378-.378 2.38-1.135 3.132-.757.752-1.766 1.128-2.902 1.128-.63 0-1.136-.126-1.64-.251-.505-.125-.883-.25-1.136-.376v-1.88h.252c.127 0 .127.126.379.251.126.126.379.25.505.376.252.125.378.25.63.25.253.126.505.126.758.126.252 0 .504 0 .757-.125.252-.126.504-.126.63-.376.253-.125.379-.376.505-.627.126-.25.252-.626.252-1.002h-3.28V41.78h3.154c0-.376-.126-.627-.252-.752a.982.982 0 00-.505-.501c-.252-.126-.378-.25-.63-.25-.253 0-.505-.126-.631-.126-.253 0-.505 0-.757.125-.253.125-.505.125-.631.25a1.732 1.732 0 00-.505.377c-.126.125-.252.25-.379.25h-.252v-1.88c.379-.125.757-.375 1.262-.5.505-.126 1.01-.126 1.514-.126 1.136 0 2.145.376 2.902 1.128.757.626 1.135 1.629 1.135 2.882zm8.075 4.134h-2.018v-3.633h-2.776v3.633H82.9v-8.144h2.019v3.007h2.776v-3.007h2.018v8.144zm1.64 0v-8.144h5.552v1.504h-3.407v1.378h3.155v1.504h-3.155v2.004h3.407v1.504h-5.552v.25zm13.122-5.513c0 .376 0 .752-.126 1.128-.126.376-.252.627-.505.877-.126.125-.252.25-.504.376-.127.125-.379.25-.505.25-.252.126-.379.126-.631.251-.252 0-.505.125-.757.125h-1.009v2.632h-2.02v-8.27h3.155c.505 0 .883 0 1.262.126.378.125.631.25.883.375l.757.752c-.126.501 0 .877 0 1.378zm-2.145 0c0-.25 0-.376-.126-.626l-.378-.376c-.253-.125-.379-.125-.505-.125h-1.01v2.38h1.136c.126 0 .252 0 .379-.125.126 0 .252-.125.252-.125.126-.126.252-.25.252-.376v-.627zm8.706-1.002h-3.407v6.515h-2.018v-8.144h5.425v1.63zm8.201 2.506c0 1.253-.379 2.38-1.009 3.132-.757.752-1.641 1.128-2.902 1.128-1.262 0-2.145-.376-2.902-1.128-.757-.752-1.01-1.754-1.01-3.007 0-1.253.379-2.38 1.01-3.132.757-.752 1.64-1.128 2.902-1.128 1.261 0 2.145.376 2.902 1.128.63.626 1.009 1.629 1.009 3.007zm-2.019 0c0-.501 0-.877-.126-1.253a6.09 6.09 0 00-.378-.877c-.127-.25-.379-.376-.631-.501-.253-.125-.505-.125-.631-.125-.252 0-.505 0-.631.125-.252.125-.378.25-.631.5a6.09 6.09 0 00-.378.878c-.127.376-.127.752-.127 1.253 0 .501 0 .877.127 1.253.126.376.252.626.378.877.126.25.379.376.631.501s.505.125.631.125c.252 0 .505 0 .757-.125s.378-.25.631-.501c.126-.25.252-.501.378-.877-.126-.376 0-.752 0-1.253z" fill="#EF7D00" class="kdont-remove"/></symbol><symbol viewBox="0 0 24 24" id="map" xmlns="http://www.w3.org/2000/svg"><g clip-path="url(#lclip0_1_795)" stroke-width="2" stroke-linecap="round" stroke-linejoin="round"><path d="M9 11a3 3 0 106 0 3 3 0 00-6 0z"/><path d="M17.657 16.657L13.414 20.9a2 2 0 01-2.827 0l-4.244-4.243a8 8 0 1111.314 0z"/></g><defs><clipPath id="lclip0_1_795"><path d="M0 0h24v24H0z"/></clipPath></defs></symbol><symbol viewBox="0 0 24 24" id="minus" xmlns="http://www.w3.org/2000/svg"><g clip-path="url(#mclip0_1_723)"><path d="M5 12h14"/></g><defs><clipPath id="mclip0_1_723"><path d="M0 0h24v24H0z"/></clipPath></defs></symbol><symbol viewBox="0 0 24 24" id="phone" xmlns="http://www.w3.org/2000/svg"><g clip-path="url(#nclip0_1_173)"><path d="M5 4h4l2 5-2.5 1.5a11 11 0 005 5L15 13l5 2v4a2 2 0 01-2 2A16 16 0 013 6a2 2 0 012-2z"/></g><defs><clipPath id="nclip0_1_173"><path d="M0 0h24v24H0z"/></clipPath></defs></symbol><symbol viewBox="0 0 24 24" id="plus" xmlns="http://www.w3.org/2000/svg"><path fill-rule="evenodd" d="M11 2v9H2v2h9v9h2v-9h9v-2h-9V2z"/></symbol><symbol fill="none" class="pdont-remove" viewBox="0 0 40 40" id="presentation" xmlns="http://www.w3.org/2000/svg"><path d="M39.14.86H.86v4.765h38.28V.859zm-2.382 4.765V29.45H3.242V5.625M20 29.451v9.69m-2.383-.001h4.765" stroke="#2C4461" stroke-width="2" stroke-miterlimit="10" stroke-linecap="round" stroke-linejoin="round" class="pdont-remove"/><path d="M12.852 10.39H8.087v4.765h4.765V10.39zm9.531 0h-4.766v4.765h4.765V10.39zm9.53 0h-4.765v4.765h4.765V10.39zm-4.765 9.53h4.765" stroke="#51C0C4" stroke-width="2" stroke-miterlimit="10" stroke-linecap="round" stroke-linejoin="round" class="pdont-remove"/><path d="M27.148 24.686h4.765" stroke="#2C4461" stroke-width="2" stroke-miterlimit="10" stroke-linecap="round" stroke-linejoin="round" class="pdont-remove"/><path d="M17.617 24.686h4.765" stroke="#51C0C4" stroke-width="2" stroke-miterlimit="10" stroke-linecap="round" stroke-linejoin="round" class="pdont-remove"/><path d="M17.617 19.92h4.765" stroke="#2C4461" stroke-width="2" stroke-miterlimit="10" stroke-linecap="round" stroke-linejoin="round" class="pdont-remove"/><path d="M8.087 19.92h4.765" stroke="#51C0C4" stroke-width="2" stroke-miterlimit="10" stroke-linecap="round" stroke-linejoin="round" class="pdont-remove"/><path d="M8.087 24.686h4.765" stroke="#2C4461" stroke-width="2" stroke-miterlimit="10" stroke-linecap="round" stroke-linejoin="round" class="pdont-remove"/></symbol><symbol fill="none" class="qdont-remove" viewBox="0 0 41 40" id="spotlight" xmlns="http://www.w3.org/2000/svg"><path d="M39.89 34.355H1.61v4.786h38.28v-4.785z" stroke="#2C4461" stroke-width="2" stroke-miterlimit="10" stroke-linecap="round" stroke-linejoin="round" class="qdont-remove"/><path d="M36.82 20.737L25.78 9.05m4.9 15.404l-9.802-10.39m-5.152-5.22L7.838.859h10.52l2.392 2.643" stroke="#51C0C4" stroke-width="2" stroke-miterlimit="10" stroke-linecap="round" stroke-linejoin="round" class="qdont-remove"/><path d="M30.68 24.454l6.14-3.717 1.859 3.07a3.589 3.589 0 01-1.212 4.929h0a3.589 3.589 0 01-4.928-1.212l-1.859-3.07zm9.21-5.575l-12.28 7.434m9.888 2.423v5.62" stroke="#2C4461" stroke-width="2" stroke-miterlimit="10" stroke-linecap="round" stroke-linejoin="round" class="qdont-remove"/><path d="M10.82 24.454L33.662.86h-10.52L4.68 20.737" stroke="#51C0C4" stroke-width="2" stroke-miterlimit="10" stroke-linecap="round" stroke-linejoin="round" class="qdont-remove"/><path d="M10.82 24.454l-6.14-3.717-1.859 3.07a3.589 3.589 0 001.212 4.929h0a3.589 3.589 0 004.928-1.212l1.859-3.07zm-9.21-5.575l12.28 7.434m-9.888 2.423v5.62m9.57-3.589v3.588m14.356-3.588v3.588m-4.785-4.785h-4.786v4.785h4.786V29.57z" stroke="#2C4461" stroke-width="2" stroke-miterlimit="10" stroke-linecap="round" stroke-linejoin="round" class="qdont-remove"/></symbol><symbol fill="none" class="rdont-remove" viewBox="0 0 37 40" id="success" xmlns="http://www.w3.org/2000/svg"><path d="M18.75.86l1.98 3.003 3.513.987-2.29 2.78.192 3.677-3.395-1.349-3.395 1.35.19-3.678-2.288-2.78 3.512-.987L18.75.86z" stroke="#51C0C4" stroke-width="2" stroke-miterlimit="10" stroke-linecap="round" stroke-linejoin="round" class="rdont-remove"/><path d="M32.157 18.447v3.549c0 5.015-3.625 6.8-5.837 7.453a2.09 2.09 0 00-1.484 2.216l.1 7.476H12.564l.1-7.467a2.094 2.094 0 00-1.495-2.22c-2.213-.643-5.826-2.414-5.826-7.458v-3.55c0-1.273 1.041-2.345 2.315-2.319a2.268 2.268 0 012.222 2.268v3.6a3.205 3.205 0 003.205 3.206h2.876a4.779 4.779 0 115.58 0h2.876a3.205 3.205 0 003.205-3.205v-3.601c0-1.237.991-2.244 2.222-2.268 1.274-.026 2.314 1.046 2.314 2.32z" stroke="#2C4461" stroke-width="2" stroke-miterlimit="10" stroke-linecap="round" stroke-linejoin="round" class="rdont-remove"/><path d="M5.787 3.308l1.516 2.3 2.69.755L8.24 8.492l.146 2.815-2.6-1.033-2.598 1.033.145-2.815-1.752-2.129 2.69-.755 1.516-2.3zm25.926 0l1.516 2.3 2.69.755-1.753 2.129.146 2.815-2.6-1.033-2.599 1.033.146-2.815-1.752-2.129 2.69-.755 1.516-2.3z" stroke="#51C0C4" stroke-width="2" stroke-miterlimit="10" stroke-linecap="round" stroke-linejoin="round" class="rdont-remove"/></symbol><symbol fill="none" class="sdont-remove" viewBox="0 0 41 40" id="systems" xmlns="http://www.w3.org/2000/svg"><g clip-path="url(#sclip0_1_1437)"><path d="M37.71 9.828a3.27 3.27 0 00-.663-.987L29.21.964A3.376 3.376 0 0026.895 0H9.778a3.257 3.257 0 00-3.253 3.255V17.44a.86.86 0 001.72 0V3.255c0-.847.687-1.536 1.533-1.536h17.117a1.6 1.6 0 01.14.007v8.426c0 .474.386.86.86.86h8.378c.004.044.006.09.006.134v22.085c0 .84-.682 1.523-1.52 1.523h-9.125a.86.86 0 000 1.719h9.124a3.245 3.245 0 003.24-3.242V11.146a3.3 3.3 0 00-.288-1.318zm-8.956-6.886l6.317 6.35h-6.316v-6.35z" fill="#2C4461" class="sdont-remove"/><path d="M18.973 40h-4.979a.86.86 0 01-.86-.86v-1.9a11.166 11.166 0 01-1.866-.773L9.927 37.81a.86.86 0 01-1.216 0l-3.52-3.525a.86.86 0 010-1.214l1.341-1.344a11.17 11.17 0 01-.773-1.87H3.86a.86.86 0 01-.86-.859v-4.984a.86.86 0 01.86-.86h1.897c.201-.645.46-1.27.774-1.869L5.19 19.941a.86.86 0 010-1.214l3.52-3.525a.86.86 0 011.217 0l1.341 1.343a11.163 11.163 0 011.867-.774v-1.9a.86.86 0 01.86-.859h4.978a.86.86 0 01.86.86v1.9c.644.2 1.268.46 1.866.773l1.342-1.343a.86.86 0 011.216 0l3.52 3.525a.86.86 0 010 1.214l-1.342 1.344c.314.599.573 1.224.774 1.87h1.897a.86.86 0 01.86.859v4.984a.86.86 0 01-.86.86h-1.897c-.201.645-.46 1.27-.774 1.869l1.342 1.344a.86.86 0 010 1.214l-3.52 3.525a.86.86 0 01-1.216 0l-1.342-1.343c-.598.314-1.222.573-1.866.774v1.9a.86.86 0 01-.86.859zm-4.12-1.719h3.261V36.59c0-.396.27-.74.654-.835a9.44 9.44 0 002.633-1.092.86.86 0 011.053.128l1.195 1.196 2.306-2.308-1.196-1.197a.86.86 0 01-.128-1.052 9.46 9.46 0 001.091-2.636.86.86 0 01.835-.654h1.69v-3.266h-1.69a.86.86 0 01-.835-.654 9.46 9.46 0 00-1.091-2.636.86.86 0 01.128-1.052l1.196-1.197-2.306-2.308-1.195 1.196a.86.86 0 01-1.053.128 9.44 9.44 0 00-2.633-1.092.86.86 0 01-.654-.835v-1.692h-3.26v1.692a.86.86 0 01-.654.835 9.443 9.443 0 00-2.633 1.092.86.86 0 01-1.053-.128l-1.195-1.196-2.306 2.308 1.196 1.197a.86.86 0 01.127 1.052 9.467 9.467 0 00-1.09 2.636.86.86 0 01-.835.654H4.72v3.265h1.69c.395 0 .74.27.834.654.23.93.596 1.817 1.091 2.637a.86.86 0 01-.127 1.052l-1.196 1.197 2.306 2.308 1.195-1.196a.86.86 0 011.053-.128 9.444 9.444 0 002.633 1.092.86.86 0 01.654.835v1.692z" fill="#51C0C4" class="sdont-remove"/><path d="M16.484 32.125a5.624 5.624 0 01-5.615-5.62 5.623 5.623 0 015.615-5.618 5.623 5.623 0 015.615 5.619 5.624 5.624 0 01-5.615 5.62zm0-9.52a3.903 3.903 0 00-3.896 3.9 3.903 3.903 0 003.896 3.902 3.903 3.903 0 003.896-3.901c0-2.15-1.748-3.9-3.896-3.9z" fill="#51C0C4" class="sdont-remove"/></g><defs><clipPath id="sclip0_1_1437"><path transform="translate(.5)" d="M0 0h40v40H0z"/></clipPath></defs></symbol><symbol preserveAspectRatio="none" fill="none" class="tdont-remove" viewBox="0 0 42 42" id="tag" xmlns="http://www.w3.org/2000/svg"><path d="M15.533 9.62l1.685 1.684m3.369 3.37l1.685 1.685m3.37 3.369l1.684 1.685m3.37 3.369l1.685 1.685"/><path d="M13.967 28.033l1.23 3.957 2.394-3.383 4.144.052-2.479-3.321 1.331-3.925-3.925 1.33-3.321-2.478.053 4.144-3.384 2.393 3.957 1.23z" stroke="#51C0C4" stroke-width="2" stroke-miterlimit="10" stroke-linecap="round" stroke-linejoin="round" class="tdont-remove"/><path d="M38.064 12.15L29.85 3.936a2.438 2.438 0 00-2.495-.589l-8.369 2.79a2.44 2.44 0 00-.953.589L1.714 23.046a2.438 2.438 0 000 3.447l13.793 13.793a2.438 2.438 0 003.448 0l16.319-16.32a2.44 2.44 0 00.59-.952l2.789-8.37a2.438 2.438 0 00-.59-2.494z" stroke="#2C4461" stroke-width="2" stroke-miterlimit="10" stroke-linecap="round" stroke-linejoin="round" class="tdont-remove"/><path d="M30.696 14.674a2.383 2.383 0 11-3.37-3.37 2.383 2.383 0 013.37 3.37z" stroke="#2C4461" stroke-width="2" stroke-miterlimit="10" stroke-linecap="round" stroke-linejoin="round" class="tdont-remove"/><path d="M30.696 4.565c2.791-2.791 6.563-3.546 8.424-1.685 1.86 1.861 1.106 5.633-1.685 8.424-1.936 1.936-4.342 2.892-6.257 2.676" stroke="#2C4461" stroke-width="2" stroke-miterlimit="10" stroke-linecap="round" stroke-linejoin="round" class="tdont-remove"/></symbol><symbol fill="none" class="udont-remove" viewBox="0 0 41 40" id="technique" xmlns="http://www.w3.org/2000/svg"><g clip-path="url(#uclip0_1_1428)"><path d="M36.629 17.643c-1.002 0-1.979-.424-2.614-1.133a.86.86 0 011.28-1.147c.305.341.829.561 1.334.561.927 0 1.682-.755 1.682-1.682 0-.928-.755-1.682-1.682-1.682a.86.86 0 01-.86-.86V7.253a.86.86 0 011.719 0v3.698a3.407 3.407 0 012.541 3.29 3.405 3.405 0 01-3.4 3.402zM36 28.444H25.753a.86.86 0 01-.86-.86V19.96a.86.86 0 01.86-.86h6.354a.86.86 0 01.765.47l3.892 7.624a.859.859 0 01-.766 1.25zm-9.387-1.719h7.983l-3.014-5.905h-4.969v5.905z" fill="#51C0C4" class="udont-remove"/><path d="M39.89 26.725H17.927L13.85 22.65 36.432 8.113a4.044 4.044 0 004.238-4.034 4.044 4.044 0 00-4.038-4.04 4.045 4.045 0 00-3.93 3.107L7.62 17.306a.86.86 0 00-.437.748v3.59l-4.223-.002a.86.86 0 00-.86.86v4.977L.776 32.764a.86.86 0 00.19.78l2.622 2.95a.86.86 0 00.642.29h2.41a4.043 4.043 0 003.944 3.176 4.03 4.03 0 003.177-1.55 4.03 4.03 0 003.177 1.55 4.043 4.043 0 003.943-3.177h6.727a4.043 4.043 0 003.943 3.177 4.043 4.043 0 003.944-3.177h2.41a.86.86 0 00.595-.239l1.986-1.906a.86.86 0 00.264-.62v-6.433a.86.86 0 00-.86-.86zM36.633 1.758a2.323 2.323 0 012.32 2.32 2.323 2.323 0 01-2.32 2.321c-1.28 0-2.32-1.04-2.32-2.32 0-1.28 1.04-2.32 2.32-2.32zM8.902 18.556L32.725 5.107c.25.948.837 1.761 1.625 2.302L12.237 21.642H8.902v-3.086zm3.235 4.81l3.359 3.36H3.819v-3.364l8.318.005zm-1.553 14.876a2.32 2.32 0 01-2.317-2.318 2.32 2.32 0 012.317-2.318 2.32 2.32 0 012.318 2.318 2.32 2.32 0 01-2.318 2.318zm6.354 0a2.32 2.32 0 01-2.318-2.318 2.32 2.32 0 012.318-2.318 2.32 2.32 0 012.317 2.318 2.32 2.32 0 01-2.317 2.318zm14.613 0a2.32 2.32 0 01-2.317-2.318 2.32 2.32 0 012.317-2.318 2.32 2.32 0 012.318 2.318 2.32 2.32 0 01-2.318 2.318zm7.48-4.59l-1.472 1.413h-2.064a4.043 4.043 0 00-3.944-3.177 4.043 4.043 0 00-3.943 3.177h-6.727a4.043 4.043 0 00-3.943-3.177 4.03 4.03 0 00-3.177 1.55 4.03 4.03 0 00-3.177-1.55 4.043 4.043 0 00-3.943 3.177H4.617L2.553 32.74l1.077-4.297 13.943.003a.876.876 0 00.069-.003h21.39v5.208z" fill="#2C4461" class="udont-remove"/></g><defs><clipPath id="uclip0_1_1428"><path transform="translate(.75)" d="M0 0h40v40H0z"/></clipPath></defs></symbol><symbol fill="none" class="vdont-remove" viewBox="0 0 41 40" id="underConstruction" xmlns="http://www.w3.org/2000/svg"><path d="M14.365 22.032a6.081 6.081 0 018.489-8.487m2.62-6.72a13.1 13.1 0 00-1.932-.834V.947h-8.478v5.044a13.172 13.172 0 00-4.451 2.573L5.996 5.9l-4.239 7.342 4.612 2.662a13.25 13.25 0 00-.072 4.765l-4.54 2.621 1.97 3.413" stroke="#51C0C4" stroke-width="2" stroke-miterlimit="10" stroke-linecap="round" stroke-linejoin="round" class="vdont-remove"/><path d="M37.552 13.033a7.134 7.134 0 01-7.6 1.617l-7.378 7.377-4.101-4.102 7.377-7.377a7.134 7.134 0 019.691-9.014L30.647 6.43l3.424 3.425 4.895-4.895a7.134 7.134 0 01-1.414 8.074z" stroke="#2C4461" stroke-width="2" stroke-miterlimit="10" stroke-linecap="round" stroke-linejoin="round" class="vdont-remove"/><path d="M13.533 37.052a7.134 7.134 0 001.617-7.6l7.425-7.425-4.102-4.102-7.425 7.425a7.133 7.133 0 00-9.014 9.691l4.895-4.894 3.425 3.424-4.895 4.895a7.133 7.133 0 008.074-1.414z" stroke="#2C4461" stroke-width="2" stroke-miterlimit="10" stroke-linecap="round" stroke-linejoin="round" class="vdont-remove"/><path d="M25.822 18.78l-6.367 6.367 3.28 3.28 6.366-6.368-3.28-3.28zm.097 6.463l8.67 8.67m4.698 1.848l-2.85 2.85-3.442-3.104 3.188-3.188 3.104 3.442zm-18.263-5.598l9.789-9.84" stroke="#2C4461" stroke-width="2" stroke-miterlimit="10" stroke-linecap="round" stroke-linejoin="round" class="vdont-remove"/></symbol></svg>