<svg width="91" height="42" viewBox="0 0 91 42" fill="none" xmlns="http://www.w3.org/2000/svg">
<g clip-path="url(#clip0_22_1517)">
<path d="M63.9832 3.73333V5.26333H76.4691C77.2994 5.26333 78.5512 5.26333 79.3846 6.13667C80.2181 7.01333 80.2181 8.32667 80.2181 9.20333V22.3367C80.2181 23.2133 80.2181 24.5267 79.3846 25.4C78.5512 26.2767 77.2994 26.2767 76.4691 26.2767H70.448C69.4086 26.2767 68.0522 26.2767 67.5325 25.0733C67.016 23.8667 67.7398 22.7733 68.3691 21.9L76.4818 10.5333H63.9959L58.9888 17.5333C58.1522 18.7067 57.4297 19.7233 57.4297 21.0333C57.4297 22.3467 58.1015 23.2933 58.9888 24.5333L60.2374 26.2833C61.486 28.0333 62.7346 29.7833 64.3888 30.65C66.0557 31.52 68.0332 31.52 70.7269 31.52H76.1459C79.2705 31.52 83.9417 31.52 87.079 28.24C90.1973 24.9567 90.1973 20.14 90.1973 18.4067V13.14C90.1973 11.3867 90.1973 6.57333 87.079 3.30667C83.9543 0.0200011 79.2832 0.0300008 76.1459 0.0266675L67.5262 0.0216675C66.699 0.0216675 65.6533 0.0216674 64.8198 0.898334C63.9927 1.775 63.9927 2.86833 63.9927 3.745" fill="#717171"/>
<path d="M49.0892 10.5H61.4484L46.554 31.5H33.8779L49.0892 10.5Z" fill="#717171"/>
<path d="M0.286314 14.2333C0.286314 13.36 0.286314 12.2633 1.11977 11.3866C1.95005 10.5133 2.99582 10.5133 3.8261 10.5133H24.7416C27.4448 10.5133 29.4317 10.5133 31.0796 11.3866C32.7402 12.2666 33.9888 14.0166 35.231 15.7533L36.4828 17.5033C37.3733 18.7466 38.0483 19.6933 38.0483 21.0033C38.0483 22.3166 37.3194 23.3333 36.4828 24.5033L31.4757 31.5033H18.9898L27.1025 20.1366C27.7268 19.26 28.4588 18.17 27.936 16.9633C27.4194 15.7633 26.0662 15.7633 25.0268 15.7633H15.2346V42.03H5.25216V15.7633H0.245117V14.23" fill="#717171"/>
</g>
<defs>
<clipPath id="clip0_22_1517">
<rect width="90" height="42" fill="white" transform="translate(0.286133)"/>
</clipPath>
</defs>
</svg>
