<svg width="997" height="453" viewBox="0 0 997 453" fill="none" xmlns="http://www.w3.org/2000/svg">
<path d="M535.355 366.11H533.645V371.082H535.355V366.11Z" fill="#808184"/>
<path d="M538.003 370.071V450.771H530.996V370.071C530.996 369.965 531.017 369.859 531.058 369.761C531.099 369.662 531.158 369.572 531.234 369.497C531.309 369.421 531.399 369.362 531.498 369.321C531.596 369.28 531.702 369.259 531.808 369.259H537.191C537.298 369.259 537.403 369.28 537.502 369.321C537.601 369.362 537.69 369.421 537.766 369.497C537.841 369.572 537.901 369.662 537.942 369.76C537.983 369.859 538.004 369.965 538.003 370.071Z" fill="#A6A8AB"/>
<g style="mix-blend-mode:multiply" opacity="0.5">
<path d="M538.005 370.071V450.771H535.539V369.259H537.192C537.299 369.259 537.405 369.28 537.503 369.321C537.602 369.362 537.691 369.421 537.767 369.497C537.842 369.572 537.902 369.662 537.943 369.76C537.984 369.859 538.005 369.965 538.005 370.071Z" fill="#A6A8AB"/>
</g>
<g style="mix-blend-mode:multiply" opacity="0.5">
<path d="M538.003 393.289H530.996V396.269H538.003V393.289Z" fill="#A6A8AB"/>
</g>
<g style="mix-blend-mode:multiply" opacity="0.5">
<path d="M538.003 421.32H530.996V424.299H538.003V421.32Z" fill="#A6A8AB"/>
</g>
<path d="M542.148 449.856V450.738L542.146 450.771C542.138 450.926 542.071 451.073 541.958 451.18C541.845 451.288 541.695 451.348 541.539 451.348H527.457C527.301 451.348 527.151 451.288 527.038 451.18C526.925 451.073 526.857 450.926 526.85 450.771L526.848 450.738V449.856C526.848 449.695 526.912 449.54 527.026 449.426C527.14 449.312 527.295 449.247 527.457 449.247H541.539C541.7 449.247 541.855 449.312 541.969 449.426C542.084 449.54 542.148 449.695 542.148 449.856Z" fill="#BBBDBF"/>
<g style="mix-blend-mode:multiply" opacity="0.5">
<path d="M542.144 450.771C542.136 450.927 542.069 451.074 541.956 451.181C541.843 451.288 541.693 451.348 541.537 451.348H527.455C527.299 451.348 527.149 451.288 527.036 451.181C526.923 451.074 526.855 450.927 526.848 450.771H542.144Z" fill="#BBBDBF"/>
</g>
<path d="M534.498 368.351C537.259 368.351 539.496 366.113 539.496 363.353C539.496 360.592 537.259 358.354 534.498 358.354C531.738 358.354 529.5 360.592 529.5 363.353C529.5 366.113 531.738 368.351 534.498 368.351Z" fill="#A6A8AB"/>
<g style="mix-blend-mode:multiply" opacity="0.5">
<path d="M534.497 367.197C536.62 367.197 538.342 365.475 538.342 363.352C538.342 361.229 536.62 359.507 534.497 359.507C532.374 359.507 530.652 361.229 530.652 363.352C530.652 365.475 532.374 367.197 534.497 367.197Z" fill="#A6A8AB"/>
</g>
<path d="M537.787 363.352C537.787 364.002 537.594 364.637 537.233 365.178C536.872 365.718 536.359 366.139 535.758 366.388C535.158 366.637 534.497 366.702 533.86 366.575C533.222 366.448 532.637 366.135 532.177 365.676C531.718 365.216 531.405 364.631 531.278 363.993C531.151 363.356 531.216 362.695 531.465 362.095C531.714 361.494 532.135 360.981 532.675 360.62C533.216 360.259 533.851 360.066 534.501 360.066C534.932 360.066 535.36 360.151 535.758 360.316C536.157 360.481 536.519 360.723 536.825 361.028C537.13 361.334 537.372 361.696 537.537 362.095C537.702 362.493 537.787 362.921 537.787 363.352Z" fill="#FCBA17"/>
<g style="mix-blend-mode:multiply" opacity="0.2">
<path d="M535.589 360.256C536.055 360.807 536.326 361.496 536.361 362.216C536.396 362.937 536.193 363.649 535.782 364.242C535.372 364.835 534.778 365.277 534.091 365.498C533.404 365.72 532.664 365.709 531.984 365.467C532.309 365.854 532.719 366.16 533.182 366.363C533.645 366.566 534.148 366.659 534.653 366.635C535.158 366.612 535.65 366.472 536.092 366.227C536.534 365.982 536.913 365.638 537.201 365.223C537.488 364.807 537.676 364.331 537.749 363.831C537.822 363.332 537.78 362.821 537.624 362.341C537.468 361.86 537.203 361.422 536.85 361.06C536.497 360.699 536.066 360.424 535.589 360.256Z" fill="#8E3F0A"/>
</g>
<g style="mix-blend-mode:multiply" opacity="0.5">
<path d="M542.15 449.856V450.738L542.148 450.771C542.14 450.926 542.073 451.073 541.96 451.18C541.847 451.288 541.697 451.348 541.541 451.348H536.77V449.247H541.541C541.702 449.247 541.857 449.312 541.971 449.426C542.086 449.54 542.15 449.695 542.15 449.856Z" fill="#BBBDBF"/>
</g>
<path d="M534.323 361.109C534.582 361.44 534.345 362.059 533.793 362.491C533.241 362.923 532.583 363.005 532.324 362.674C532.064 362.343 532.302 361.724 532.854 361.292C533.406 360.859 534.063 360.777 534.323 361.109Z" fill="white"/>
<path d="M610.3 366.11H608.59V371.082H610.3V366.11Z" fill="#808184"/>
<path d="M612.953 370.071V450.771H605.945V370.071C605.945 369.965 605.966 369.859 606.007 369.76C606.048 369.662 606.108 369.572 606.183 369.497C606.259 369.421 606.348 369.362 606.447 369.321C606.545 369.28 606.651 369.259 606.758 369.259H612.14C612.247 369.259 612.353 369.28 612.451 369.321C612.55 369.362 612.639 369.421 612.715 369.497C612.79 369.572 612.85 369.662 612.891 369.761C612.932 369.859 612.953 369.965 612.953 370.071Z" fill="#A6A8AB"/>
<g style="mix-blend-mode:multiply" opacity="0.5">
<path d="M612.95 370.071V450.771H610.484V369.259H612.138C612.244 369.259 612.35 369.28 612.449 369.321C612.547 369.362 612.637 369.421 612.712 369.497C612.788 369.572 612.847 369.662 612.888 369.761C612.929 369.859 612.95 369.965 612.95 370.071Z" fill="#A6A8AB"/>
</g>
<g style="mix-blend-mode:multiply" opacity="0.5">
<path d="M612.953 393.289H605.945V396.269H612.953V393.289Z" fill="#A6A8AB"/>
</g>
<g style="mix-blend-mode:multiply" opacity="0.5">
<path d="M612.953 421.32H605.945V424.299H612.953V421.32Z" fill="#A6A8AB"/>
</g>
<path d="M617.098 449.856V450.738L617.095 450.771C617.088 450.926 617.02 451.073 616.907 451.18C616.794 451.288 616.644 451.348 616.488 451.348H602.406C602.25 451.348 602.1 451.288 601.987 451.181C601.874 451.073 601.807 450.926 601.799 450.771L601.797 450.738V449.856C601.797 449.695 601.861 449.54 601.976 449.426C602.09 449.312 602.245 449.247 602.406 449.247H616.488C616.65 449.247 616.805 449.312 616.919 449.426C617.033 449.54 617.097 449.695 617.098 449.856Z" fill="#BBBDBF"/>
<g style="mix-blend-mode:multiply" opacity="0.5">
<path d="M617.098 450.771C617.09 450.927 617.022 451.074 616.909 451.181C616.796 451.288 616.646 451.348 616.49 451.348H602.408C602.252 451.348 602.102 451.288 601.989 451.181C601.876 451.074 601.809 450.927 601.801 450.771H617.098Z" fill="#BBBDBF"/>
</g>
<path d="M609.451 368.351C612.212 368.351 614.449 366.113 614.449 363.353C614.449 360.592 612.212 358.354 609.451 358.354C606.691 358.354 604.453 360.592 604.453 363.353C604.453 366.113 606.691 368.351 609.451 368.351Z" fill="#A6A8AB"/>
<g style="mix-blend-mode:multiply" opacity="0.5">
<path d="M609.446 367.197C611.57 367.197 613.291 365.475 613.291 363.352C613.291 361.229 611.57 359.507 609.446 359.507C607.323 359.507 605.602 361.229 605.602 363.352C605.602 365.475 607.323 367.197 609.446 367.197Z" fill="#A6A8AB"/>
</g>
<path d="M612.732 363.352C612.732 364.002 612.539 364.637 612.178 365.178C611.817 365.718 611.304 366.139 610.703 366.388C610.103 366.637 609.442 366.702 608.805 366.575C608.168 366.448 607.582 366.135 607.123 365.675C606.663 365.216 606.35 364.63 606.223 363.993C606.097 363.355 606.162 362.695 606.41 362.094C606.659 361.494 607.08 360.981 607.621 360.62C608.161 360.259 608.796 360.066 609.446 360.066C609.878 360.066 610.305 360.151 610.704 360.316C611.102 360.481 611.465 360.723 611.77 361.028C612.075 361.334 612.317 361.696 612.482 362.095C612.647 362.493 612.732 362.921 612.732 363.352Z" fill="#FCBA17"/>
<g style="mix-blend-mode:multiply" opacity="0.2">
<path d="M610.543 360.256C611.008 360.807 611.28 361.496 611.315 362.216C611.349 362.937 611.146 363.649 610.736 364.242C610.325 364.835 609.731 365.277 609.044 365.498C608.358 365.72 607.617 365.709 606.938 365.467C607.262 365.854 607.672 366.161 608.135 366.363C608.598 366.566 609.101 366.659 609.606 366.635C610.111 366.612 610.603 366.472 611.045 366.227C611.487 365.982 611.866 365.639 612.154 365.223C612.441 364.808 612.629 364.331 612.702 363.832C612.776 363.332 612.733 362.822 612.577 362.341C612.421 361.86 612.156 361.422 611.804 361.061C611.451 360.699 611.019 360.424 610.543 360.256Z" fill="#8E3F0A"/>
</g>
<g style="mix-blend-mode:multiply" opacity="0.5">
<path d="M617.099 449.856V450.738L617.097 450.771C617.089 450.926 617.022 451.073 616.909 451.18C616.796 451.288 616.646 451.348 616.49 451.348H611.719V449.247H616.49C616.652 449.247 616.806 449.312 616.921 449.426C617.035 449.54 617.099 449.695 617.099 449.856Z" fill="#BBBDBF"/>
</g>
<path d="M609.272 361.109C609.531 361.44 609.294 362.059 608.742 362.491C608.19 362.923 607.532 363.005 607.273 362.674C607.014 362.343 607.251 361.724 607.803 361.292C608.355 360.859 609.012 360.777 609.272 361.109Z" fill="white"/>
<path d="M625.101 374.946V393.326C625.11 393.586 625.016 393.839 624.839 394.029C624.662 394.22 624.416 394.332 624.157 394.342H519.789C519.529 394.332 519.284 394.22 519.107 394.03C518.929 393.839 518.835 393.586 518.844 393.326V374.946C518.835 374.686 518.929 374.434 519.107 374.243C519.284 374.053 519.529 373.94 519.789 373.931H624.157C624.416 373.941 624.662 374.053 624.839 374.243C625.016 374.434 625.11 374.687 625.101 374.946Z" fill="#FCBA17"/>
<path d="M544.072 394.342H530.445L518.844 381.869V374.946C518.835 374.686 518.929 374.434 519.107 374.243C519.284 374.053 519.529 373.94 519.789 373.931H525.088L544.072 394.342Z" fill="black"/>
<path d="M573.548 394.341H559.92L540.938 373.931H554.562L573.548 394.341Z" fill="black"/>
<path d="M603.014 394.341H589.389L570.406 373.931H584.031L603.014 394.341Z" fill="black"/>
<path d="M625.108 386.406V393.326C625.117 393.586 625.022 393.839 624.845 394.029C624.668 394.22 624.423 394.332 624.163 394.342H618.863L599.879 373.931H613.505L625.108 386.406Z" fill="black"/>
<path d="M625.101 402.872V421.251C625.11 421.511 625.016 421.764 624.839 421.954C624.662 422.145 624.417 422.257 624.157 422.267H519.789C519.529 422.258 519.284 422.145 519.107 421.955C518.929 421.764 518.835 421.511 518.844 421.251V402.872C518.835 402.612 518.929 402.359 519.106 402.168C519.284 401.978 519.529 401.865 519.789 401.856H624.157C624.417 401.866 624.662 401.978 624.839 402.169C625.016 402.359 625.11 402.612 625.101 402.872Z" fill="#FCBA17"/>
<path d="M544.072 422.267H530.445L518.844 409.794V402.872C518.835 402.612 518.929 402.359 519.106 402.168C519.284 401.978 519.529 401.865 519.789 401.856H525.088L544.072 422.267Z" fill="black"/>
<path d="M573.548 422.267H559.92L540.938 401.856H554.562L573.548 422.267Z" fill="black"/>
<path d="M603.014 422.267H589.389L570.406 401.856H584.031L603.014 422.267Z" fill="black"/>
<path d="M625.108 414.331V421.251C625.117 421.511 625.022 421.764 624.845 421.954C624.668 422.145 624.423 422.257 624.163 422.267H618.863L599.879 401.856H613.505L625.108 414.331Z" fill="black"/>
<g style="mix-blend-mode:multiply" opacity="0.5">
<path d="M624.157 389.669H519.789C519.529 389.659 519.284 389.547 519.106 389.357C518.929 389.166 518.835 388.913 518.844 388.653V393.325C518.835 393.585 518.929 393.838 519.107 394.028C519.284 394.219 519.529 394.331 519.789 394.341H624.157C624.416 394.331 624.662 394.218 624.839 394.028C625.016 393.838 625.11 393.585 625.101 393.325V388.653C625.11 388.913 625.016 389.166 624.839 389.356C624.662 389.547 624.417 389.659 624.157 389.669Z" fill="#8E3F0A"/>
</g>
<g style="mix-blend-mode:multiply" opacity="0.5">
<path d="M624.157 417.595H519.789C519.529 417.586 519.284 417.474 519.107 417.283C518.929 417.093 518.835 416.84 518.844 416.58V421.251C518.835 421.511 518.929 421.764 519.107 421.955C519.284 422.145 519.529 422.258 519.789 422.267H624.157C624.416 422.257 624.662 422.145 624.839 421.954C625.016 421.764 625.11 421.511 625.101 421.251V416.58C625.11 416.84 625.016 417.092 624.839 417.283C624.662 417.473 624.416 417.585 624.157 417.595Z" fill="#8E3F0A"/>
</g>
<g style="mix-blend-mode:multiply" opacity="0.5">
<path d="M595.738 386.431V411.654C595.738 412.339 595.466 412.995 594.983 413.479C594.499 413.963 593.842 414.235 593.158 414.235H550.793C550.108 414.235 549.452 413.963 548.968 413.479C548.484 412.995 548.212 412.339 548.212 411.654V386.431C548.212 385.747 548.484 385.09 548.968 384.606C549.452 384.122 550.108 383.851 550.793 383.851H593.158C593.842 383.851 594.499 384.122 594.983 384.606C595.466 385.09 595.738 385.747 595.738 386.431Z" fill="#8E3F0A"/>
</g>
<path d="M595.738 384.738V409.961C595.738 410.3 595.672 410.635 595.542 410.948C595.412 411.261 595.222 411.546 594.983 411.785C594.743 412.025 594.458 412.215 594.145 412.345C593.832 412.474 593.497 412.541 593.158 412.541H550.793C550.108 412.541 549.452 412.269 548.968 411.785C548.484 411.302 548.212 410.645 548.212 409.961V384.738C548.212 384.053 548.484 383.397 548.968 382.913C549.452 382.429 550.108 382.157 550.793 382.157H593.158C593.842 382.157 594.499 382.429 594.983 382.913C595.466 383.397 595.738 384.053 595.738 384.738Z" fill="#231F20"/>
<path d="M550.794 383.851H593.159C593.276 383.851 593.391 383.874 593.499 383.918C593.607 383.963 593.705 384.028 593.787 384.111C593.87 384.193 593.935 384.291 593.98 384.399C594.024 384.507 594.047 384.622 594.047 384.739V409.962C594.047 410.197 593.954 410.423 593.787 410.59C593.621 410.756 593.395 410.85 593.159 410.85H550.794C550.559 410.85 550.333 410.756 550.166 410.59C550 410.423 549.906 410.197 549.906 409.962V384.738C549.906 384.503 550 384.277 550.166 384.111C550.333 383.944 550.559 383.851 550.794 383.851Z" fill="#FCBA17"/>
<path d="M551.314 385.857C551.632 385.857 551.889 385.599 551.889 385.281C551.889 384.963 551.632 384.706 551.314 384.706C550.996 384.706 550.738 384.963 550.738 385.281C550.738 385.599 550.996 385.857 551.314 385.857Z" fill="#E6E7E8"/>
<path d="M593.213 385.281C593.213 385.395 593.179 385.506 593.116 385.601C593.053 385.696 592.963 385.769 592.858 385.813C592.753 385.856 592.637 385.868 592.526 385.846C592.414 385.823 592.311 385.769 592.231 385.688C592.151 385.608 592.096 385.505 592.074 385.393C592.051 385.282 592.063 385.166 592.106 385.061C592.15 384.956 592.224 384.866 592.318 384.803C592.413 384.74 592.524 384.706 592.638 384.706C592.713 384.706 592.788 384.721 592.858 384.75C592.928 384.779 592.991 384.821 593.045 384.874C593.098 384.928 593.141 384.991 593.169 385.061C593.198 385.131 593.213 385.206 593.213 385.281Z" fill="#E6E7E8"/>
<path d="M551.314 409.995C551.632 409.995 551.889 409.737 551.889 409.419C551.889 409.101 551.632 408.844 551.314 408.844C550.996 408.844 550.738 409.101 550.738 409.419C550.738 409.737 550.996 409.995 551.314 409.995Z" fill="#E6E7E8"/>
<path d="M593.213 409.419C593.213 409.533 593.179 409.644 593.116 409.739C593.053 409.833 592.963 409.907 592.858 409.951C592.753 409.994 592.637 410.005 592.526 409.983C592.414 409.961 592.311 409.906 592.231 409.826C592.151 409.745 592.096 409.643 592.074 409.531C592.051 409.42 592.063 409.304 592.106 409.199C592.15 409.094 592.224 409.004 592.318 408.941C592.413 408.877 592.524 408.844 592.638 408.844C592.713 408.844 592.788 408.858 592.858 408.887C592.928 408.916 592.991 408.959 593.045 409.012C593.098 409.066 593.141 409.129 593.169 409.199C593.198 409.269 593.213 409.343 593.213 409.419Z" fill="#E6E7E8"/>
<path d="M561.677 396.823C560.951 396.823 560.386 396.627 559.98 396.235C559.575 395.843 559.372 395.294 559.372 394.586V391.984H560.967V394.539C560.967 394.899 561.032 395.156 561.163 395.309C561.294 395.458 561.47 395.533 561.69 395.533C561.916 395.533 562.091 395.458 562.218 395.309C562.348 395.156 562.414 394.899 562.414 394.539V391.984H563.982V394.586C563.982 395.294 563.779 395.843 563.373 396.235C562.968 396.627 562.402 396.823 561.677 396.823ZM564.713 396.715V391.984H566.024L568.43 394.863H567.822V391.984H569.376V396.715H568.065L565.659 393.836H566.267V396.715H564.713ZM570.145 396.715V391.984H572.477C573.004 391.984 573.468 392.081 573.869 392.275C574.27 392.464 574.583 392.734 574.809 393.086C575.034 393.437 575.147 393.856 575.147 394.343C575.147 394.834 575.034 395.258 574.809 395.614C574.583 395.965 574.27 396.238 573.869 396.431C573.468 396.621 573.004 396.715 572.477 396.715H570.145ZM571.74 395.472H572.409C572.635 395.472 572.831 395.429 572.997 395.343C573.169 395.258 573.301 395.131 573.396 394.965C573.491 394.794 573.538 394.586 573.538 394.343C573.538 394.104 573.491 393.901 573.396 393.735C573.301 393.568 573.169 393.442 572.997 393.356C572.831 393.271 572.635 393.228 572.409 393.228H571.74V395.472ZM577.189 393.741H579.298V394.89H577.189V393.741ZM577.297 395.512H579.663V396.715H575.729V391.984H579.575V393.187H577.297V395.512ZM580.277 396.715V391.984H582.555C582.996 391.984 583.377 392.056 583.697 392.2C584.021 392.345 584.271 392.552 584.447 392.822C584.623 393.088 584.711 393.403 584.711 393.768C584.711 394.133 584.623 394.449 584.447 394.715C584.271 394.976 584.021 395.177 583.697 395.316C583.377 395.456 582.996 395.526 582.555 395.526H581.162L581.872 394.87V396.715H580.277ZM583.109 396.715L581.946 394.992H583.636L584.812 396.715H583.109ZM581.872 395.046L581.162 394.323H582.453C582.674 394.323 582.836 394.273 582.94 394.174C583.048 394.075 583.102 393.94 583.102 393.768C583.102 393.597 583.048 393.462 582.94 393.363C582.836 393.264 582.674 393.214 582.453 393.214H581.162L581.872 392.491V395.046Z" fill="black"/>
<path d="M558.208 400.69C558.01 400.69 557.825 400.66 557.655 400.598C557.487 400.534 557.341 400.444 557.215 400.329C557.093 400.213 556.997 400.076 556.928 399.917C556.86 399.759 556.825 399.584 556.825 399.393C556.825 399.201 556.86 399.026 556.928 398.868C556.997 398.71 557.093 398.572 557.215 398.457C557.341 398.341 557.487 398.252 557.655 398.191C557.825 398.127 558.01 398.095 558.208 398.095C558.452 398.095 558.667 398.138 558.853 398.223C559.043 398.308 559.199 398.431 559.321 398.591L558.793 399.063C558.72 398.971 558.638 398.9 558.549 398.85C558.461 398.798 558.362 398.772 558.251 398.772C558.163 398.772 558.084 398.786 558.013 398.815C557.942 398.843 557.881 398.884 557.829 398.939C557.779 398.993 557.74 399.059 557.712 399.137C557.683 399.213 557.669 399.298 557.669 399.393C557.669 399.487 557.683 399.573 557.712 399.651C557.74 399.727 557.779 399.792 557.829 399.846C557.881 399.901 557.942 399.942 558.013 399.971C558.084 399.999 558.163 400.013 558.251 400.013C558.362 400.013 558.461 399.988 558.549 399.939C558.638 399.887 558.72 399.815 558.793 399.722L559.321 400.194C559.199 400.352 559.043 400.475 558.853 400.563C558.667 400.648 558.452 400.69 558.208 400.69ZM560.816 400.69C560.613 400.69 560.425 400.658 560.252 400.595C560.082 400.531 559.934 400.441 559.809 400.325C559.684 400.207 559.586 400.069 559.515 399.91C559.446 399.752 559.412 399.579 559.412 399.393C559.412 399.204 559.446 399.031 559.515 398.875C559.586 398.717 559.684 398.58 559.809 398.464C559.934 398.346 560.082 398.255 560.252 398.191C560.425 398.127 560.611 398.095 560.812 398.095C561.016 398.095 561.202 398.127 561.372 398.191C561.543 398.255 561.69 398.346 561.816 398.464C561.941 398.58 562.038 398.717 562.106 398.875C562.177 399.031 562.213 399.204 562.213 399.393C562.213 399.579 562.177 399.752 562.106 399.91C562.038 400.069 561.941 400.207 561.816 400.325C561.69 400.441 561.543 400.531 561.372 400.595C561.202 400.658 561.017 400.69 560.816 400.69ZM560.812 400.013C560.89 400.013 560.962 399.999 561.029 399.971C561.097 399.942 561.156 399.902 561.206 399.85C561.258 399.796 561.298 399.731 561.326 399.655C561.355 399.577 561.369 399.49 561.369 399.393C561.369 399.296 561.355 399.209 561.326 399.134C561.298 399.056 561.258 398.991 561.206 398.939C561.156 398.884 561.097 398.843 561.029 398.815C560.962 398.786 560.89 398.772 560.812 398.772C560.734 398.772 560.661 398.786 560.592 398.815C560.526 398.843 560.467 398.884 560.415 398.939C560.366 398.991 560.327 399.056 560.298 399.134C560.27 399.209 560.256 399.296 560.256 399.393C560.256 399.49 560.27 399.577 560.298 399.655C560.327 399.731 560.366 399.796 560.415 399.85C560.467 399.902 560.526 399.942 560.592 399.971C560.661 399.999 560.734 400.013 560.812 400.013ZM562.516 400.634V398.152H563.204L564.466 399.662H564.147V398.152H564.963V400.634H564.275L563.013 399.123H563.332V400.634H562.516ZM566.291 400.69C566.083 400.69 565.882 400.667 565.688 400.619C565.495 400.572 565.335 400.511 565.21 400.435L565.479 399.825C565.597 399.894 565.729 399.949 565.873 399.992C566.019 400.032 566.161 400.052 566.298 400.052C566.379 400.052 566.441 400.047 566.486 400.038C566.533 400.026 566.568 400.011 566.589 399.992C566.61 399.971 566.621 399.946 566.621 399.917C566.621 399.872 566.596 399.837 566.546 399.811C566.497 399.785 566.431 399.764 566.348 399.747C566.268 399.728 566.179 399.709 566.082 399.69C565.985 399.669 565.887 399.642 565.788 399.609C565.691 399.576 565.601 399.532 565.518 399.478C565.438 399.423 565.373 399.352 565.323 399.265C565.274 399.175 565.249 399.064 565.249 398.932C565.249 398.778 565.291 398.639 565.376 398.513C565.464 398.386 565.593 398.284 565.763 398.208C565.935 398.133 566.149 398.095 566.405 398.095C566.572 398.095 566.738 398.113 566.901 398.148C567.064 398.184 567.211 398.238 567.341 398.311L567.089 398.918C566.966 398.856 566.847 398.81 566.731 398.779C566.617 398.749 566.506 398.733 566.398 398.733C566.317 398.733 566.253 398.74 566.206 398.754C566.159 398.769 566.125 398.788 566.103 398.811C566.084 398.835 566.075 398.861 566.075 398.889C566.075 398.932 566.1 398.966 566.149 398.992C566.199 399.016 566.264 399.036 566.344 399.052C566.427 399.069 566.517 399.087 566.614 399.105C566.713 399.124 566.811 399.15 566.908 399.183C567.005 399.217 567.094 399.26 567.174 399.315C567.257 399.369 567.323 399.44 567.373 399.527C567.422 399.615 567.447 399.724 567.447 399.854C567.447 400.005 567.403 400.144 567.316 400.272C567.231 400.397 567.103 400.499 566.933 400.577C566.763 400.652 566.549 400.69 566.291 400.69ZM568.2 400.634V398.801H567.473V398.152H569.764V398.801H569.037V400.634H568.2ZM569.981 400.634V398.152H571.176C571.407 398.152 571.607 398.19 571.775 398.265C571.945 398.341 572.076 398.45 572.169 398.591C572.261 398.731 572.307 398.896 572.307 399.088C572.307 399.279 572.261 399.445 572.169 399.584C572.076 399.721 571.945 399.826 571.775 399.9C571.607 399.973 571.407 400.01 571.176 400.01H570.446L570.818 399.666V400.634H569.981ZM571.467 400.634L570.857 399.729H571.743L572.36 400.634H571.467ZM570.818 399.758L570.446 399.378H571.123C571.238 399.378 571.324 399.352 571.378 399.3C571.435 399.248 571.463 399.178 571.463 399.088C571.463 398.998 571.435 398.927 571.378 398.875C571.324 398.823 571.238 398.797 571.123 398.797H570.446L570.818 398.418V399.758ZM573.81 400.69C573.43 400.69 573.133 400.587 572.921 400.382C572.708 400.176 572.602 399.888 572.602 399.517V398.152H573.438V399.492C573.438 399.681 573.473 399.816 573.541 399.896C573.61 399.974 573.702 400.013 573.818 400.013C573.936 400.013 574.028 399.974 574.094 399.896C574.163 399.816 574.197 399.681 574.197 399.492V398.152H575.019V399.517C575.019 399.888 574.913 400.176 574.7 400.382C574.488 400.587 574.191 400.69 573.81 400.69ZM576.686 400.69C576.488 400.69 576.304 400.66 576.133 400.598C575.966 400.534 575.819 400.444 575.694 400.329C575.571 400.213 575.475 400.076 575.407 399.917C575.338 399.759 575.304 399.584 575.304 399.393C575.304 399.201 575.338 399.026 575.407 398.868C575.475 398.71 575.571 398.572 575.694 398.457C575.819 398.341 575.966 398.252 576.133 398.191C576.304 398.127 576.488 398.095 576.686 398.095C576.93 398.095 577.145 398.138 577.332 398.223C577.521 398.308 577.677 398.431 577.8 398.591L577.271 399.063C577.198 398.971 577.117 398.9 577.027 398.85C576.939 398.798 576.84 398.772 576.729 398.772C576.642 398.772 576.562 398.786 576.491 398.815C576.421 398.843 576.359 398.884 576.307 398.939C576.257 398.993 576.218 399.059 576.19 399.137C576.162 399.213 576.148 399.298 576.148 399.393C576.148 399.487 576.162 399.573 576.19 399.651C576.218 399.727 576.257 399.792 576.307 399.846C576.359 399.901 576.421 399.942 576.491 399.971C576.562 399.999 576.642 400.013 576.729 400.013C576.84 400.013 576.939 399.988 577.027 399.939C577.117 399.887 577.198 399.815 577.271 399.722L577.8 400.194C577.677 400.352 577.521 400.475 577.332 400.563C577.145 400.648 576.93 400.69 576.686 400.69ZM578.563 400.634V398.801H577.836V398.152H580.126V398.801H579.4V400.634H578.563ZM580.344 400.634V398.152H581.18V400.634H580.344ZM582.888 400.69C582.685 400.69 582.497 400.658 582.324 400.595C582.154 400.531 582.006 400.441 581.881 400.325C581.756 400.207 581.658 400.069 581.587 399.91C581.518 399.752 581.484 399.579 581.484 399.393C581.484 399.204 581.518 399.031 581.587 398.875C581.658 398.717 581.756 398.58 581.881 398.464C582.006 398.346 582.154 398.255 582.324 398.191C582.497 398.127 582.683 398.095 582.884 398.095C583.088 398.095 583.274 398.127 583.445 398.191C583.615 398.255 583.762 398.346 583.888 398.464C584.013 398.58 584.11 398.717 584.178 398.875C584.249 399.031 584.285 399.204 584.285 399.393C584.285 399.579 584.249 399.752 584.178 399.91C584.11 400.069 584.013 400.207 583.888 400.325C583.762 400.441 583.615 400.531 583.445 400.595C583.274 400.658 583.089 400.69 582.888 400.69ZM582.884 400.013C582.962 400.013 583.034 399.999 583.101 399.971C583.169 399.942 583.228 399.902 583.278 399.85C583.33 399.796 583.37 399.731 583.398 399.655C583.427 399.577 583.441 399.49 583.441 399.393C583.441 399.296 583.427 399.209 583.398 399.134C583.37 399.056 583.33 398.991 583.278 398.939C583.228 398.884 583.169 398.843 583.101 398.815C583.034 398.786 582.962 398.772 582.884 398.772C582.806 398.772 582.733 398.786 582.665 398.815C582.598 398.843 582.539 398.884 582.487 398.939C582.438 398.991 582.399 399.056 582.37 399.134C582.342 399.209 582.328 399.296 582.328 399.393C582.328 399.49 582.342 399.577 582.37 399.655C582.399 399.731 582.438 399.796 582.487 399.85C582.539 399.902 582.598 399.942 582.665 399.971C582.733 399.999 582.806 400.013 582.884 400.013ZM584.588 400.634V398.152H585.276L586.538 399.662H586.219V398.152H587.035V400.634H586.347L585.085 399.123H585.404V400.634H584.588Z" fill="black"/>
<path d="M395.81 444.883V451.348H286.82V444.883C291.834 442.091 295.988 437.98 298.832 432.996V414.155H383.798V432.996C386.642 437.98 390.796 442.091 395.81 444.883Z" fill="#BBBDBF"/>
<g style="mix-blend-mode:multiply" opacity="0.5">
<path d="M395.809 444.883V451.348H377.331C369.734 444.669 364.301 431.915 364.301 431.915V414.155H383.797V432.996C386.641 437.98 390.795 442.091 395.809 444.883Z" fill="#A3A6A8"/>
</g>
<path d="M401.241 447.246V447.925C401.242 448.374 401.154 448.82 400.982 449.235C400.81 449.651 400.558 450.028 400.24 450.346C399.922 450.664 399.545 450.916 399.129 451.088C398.714 451.26 398.268 451.348 397.819 451.347H284.814C284.365 451.347 283.921 451.257 283.507 451.085C283.093 450.913 282.716 450.66 282.4 450.343C282.083 450.025 281.832 449.648 281.661 449.233C281.491 448.818 281.403 448.373 281.404 447.925V447.246C281.404 447.102 281.417 446.958 281.431 446.814C281.536 445.99 281.937 445.233 282.56 444.683C283.182 444.132 283.983 443.827 284.814 443.823H397.819C398.726 443.824 399.596 444.185 400.238 444.827C400.879 445.468 401.24 446.338 401.241 447.246Z" fill="#E6E7E8"/>
<g style="mix-blend-mode:multiply" opacity="0.5">
<path d="M383.799 414.15H298.832V426.289H383.799V414.15Z" fill="#A3A6A8"/>
</g>
<path d="M503.522 215.632V395.714C503.294 402.491 500.429 408.912 495.537 413.609C490.645 418.306 484.113 420.907 477.332 420.859H205.302C198.521 420.907 191.989 418.306 187.097 413.609C182.205 408.912 179.34 402.491 179.111 395.714V215.632C179.007 212.115 179.605 208.613 180.871 205.331C182.137 202.048 184.046 199.051 186.485 196.516C188.924 193.981 191.845 191.958 195.076 190.566C198.307 189.174 201.784 188.441 205.302 188.409H477.332C480.85 188.441 484.326 189.174 487.557 190.566C490.788 191.958 493.709 193.981 496.149 196.516C498.588 199.051 500.496 202.048 501.763 205.331C503.029 208.613 503.627 212.115 503.522 215.632Z" fill="#BBBDBF"/>
<g style="mix-blend-mode:multiply" opacity="0.5">
<path d="M477.331 188.404H454.277C458.019 191.075 461.056 194.614 463.13 198.716C465.203 202.819 466.251 207.363 466.182 211.959V399.461C466.112 403.719 465 407.896 462.946 411.627C460.891 415.357 457.955 418.529 454.394 420.865H477.331C484.113 420.91 490.645 418.305 495.537 413.607C500.428 408.908 503.293 402.486 503.521 395.707V215.628C503.626 212.111 503.027 208.609 501.761 205.327C500.495 202.044 498.586 199.047 496.147 196.512C493.708 193.976 490.787 191.953 487.556 190.561C484.325 189.169 480.849 188.436 477.331 188.404Z" fill="#A3A6A8"/>
</g>
<path d="M500.422 215.629V395.708C500.196 401.665 497.658 407.3 493.348 411.417C489.037 415.535 483.293 417.812 477.332 417.766H205.301C199.34 417.812 193.595 415.535 189.284 411.417C184.974 407.3 182.436 401.665 182.21 395.708V215.629C182.108 212.52 182.629 209.423 183.741 206.518C184.852 203.613 186.533 200.959 188.683 198.712C190.834 196.465 193.412 194.67 196.265 193.433C199.119 192.195 202.191 191.54 205.301 191.505H477.332C480.442 191.54 483.513 192.195 486.367 193.433C489.22 194.671 491.798 196.465 493.949 198.712C496.099 200.959 497.78 203.613 498.891 206.518C500.003 209.423 500.524 212.52 500.422 215.629Z" fill="#231F20"/>
<path d="M490.087 214.594V365.078H192.539V214.594C192.542 211.21 193.888 207.965 196.282 205.574C198.676 203.182 201.922 201.839 205.306 201.839H477.333C480.715 201.839 483.959 203.183 486.351 205.575C488.743 207.967 490.087 211.211 490.087 214.594Z" fill="#80D9ED"/>
<g style="mix-blend-mode:multiply" opacity="0.5">
<path d="M490.087 214.594V365.078H466.189V211.965C466.202 208.514 465.615 205.088 464.453 201.839H477.333C480.716 201.839 483.96 203.183 486.352 205.575C488.743 207.967 490.087 211.211 490.087 214.594Z" fill="#00A8C6"/>
</g>
<path d="M503.52 376.446V395.713C503.292 402.491 500.427 408.912 495.535 413.608C490.643 418.305 484.111 420.907 477.33 420.859H205.3C198.519 420.907 191.987 418.305 187.095 413.608C182.203 408.912 179.338 402.491 179.109 395.713V376.446H503.52Z" fill="#E6E7E8"/>
<g style="mix-blend-mode:multiply" opacity="0.5">
<path d="M466.179 376.439V399.461C466.108 403.72 464.997 407.896 462.942 411.627C460.888 415.358 457.952 418.529 454.391 420.865H477.327C484.11 420.91 490.642 418.306 495.533 413.607C500.425 408.908 503.29 402.486 503.518 395.708V376.439H466.179Z" fill="#A3A6A8"/>
</g>
<g style="mix-blend-mode:multiply" opacity="0.5">
<path d="M401.244 447.247V447.926C401.243 448.834 400.882 449.703 400.24 450.345C399.599 450.986 398.729 451.347 397.822 451.348H371.534C372.438 450.268 372.885 448.879 372.782 447.475C372.679 446.071 372.032 444.762 370.98 443.826H397.822C398.729 443.827 399.599 444.188 400.24 444.829C400.882 445.47 401.243 446.34 401.244 447.247Z" fill="#A3A6A8"/>
</g>
<path d="M228.856 128.923V176.73C228.855 178.598 228.112 180.389 226.791 181.71C225.47 183.031 223.679 183.774 221.811 183.775H148.18C146.312 183.775 144.52 183.033 143.199 181.712C141.877 180.391 141.135 178.599 141.135 176.73V104.982C141.135 103.113 141.877 101.321 143.198 100C144.52 98.6788 146.312 97.9366 148.18 97.9365H197.851C199.008 97.9368 200.153 98.1649 201.221 98.6079C202.289 99.0508 203.259 99.6998 204.077 100.518L226.275 122.707C227.922 124.357 228.85 126.591 228.856 128.923Z" fill="#FCBA17"/>
<path d="M228.859 145.439H141.135V158.061H228.859V145.439Z" fill="white"/>
<g style="mix-blend-mode:multiply" opacity="0.7">
<path d="M150.743 97.9365V183.775H148.18C146.312 183.775 144.52 183.033 143.199 181.712C141.877 180.391 141.135 178.599 141.135 176.73V104.982C141.135 103.113 141.877 101.321 143.198 100C144.52 98.6788 146.312 97.9366 148.18 97.9365H150.743Z" fill="#D98E1B"/>
</g>
<path d="M161.846 137.092H159.803V182.756H161.846V137.092Z" fill="#C07716"/>
<path d="M161.165 102.2H184.825C185.186 102.2 185.533 102.343 185.788 102.599C186.044 102.854 186.187 103.201 186.187 103.562V138.661C186.187 139.022 186.044 139.369 185.788 139.624C185.533 139.88 185.186 140.023 184.825 140.023H161.165C160.804 140.023 160.457 139.88 160.202 139.624C159.946 139.369 159.803 139.022 159.803 138.661V103.562C159.803 103.201 159.946 102.854 160.202 102.599C160.457 102.343 160.804 102.2 161.165 102.2Z" fill="#C07716"/>
<path d="M162.29 104.068H183.696C183.778 104.068 183.86 104.084 183.935 104.115C184.011 104.147 184.08 104.193 184.138 104.251C184.196 104.309 184.242 104.378 184.273 104.453C184.305 104.529 184.321 104.61 184.321 104.692V137.533C184.321 137.698 184.255 137.857 184.138 137.974C184.021 138.092 183.862 138.157 183.696 138.157H162.29C162.125 138.157 161.966 138.092 161.849 137.975C161.732 137.857 161.666 137.699 161.666 137.533V104.692C161.666 104.527 161.732 104.368 161.849 104.251C161.966 104.134 162.125 104.068 162.29 104.068Z" fill="#B1D5E7"/>
<path d="M223.267 125.728L201.066 103.526C200.646 103.105 200.147 102.77 199.598 102.543C199.048 102.315 198.459 102.199 197.864 102.2H192.293C192.051 102.2 191.811 102.248 191.588 102.34C191.364 102.433 191.161 102.569 190.989 102.74C190.818 102.911 190.682 103.115 190.59 103.338C190.497 103.562 190.449 103.802 190.449 104.044V138.179C190.449 138.422 190.497 138.661 190.59 138.885C190.682 139.109 190.818 139.312 190.989 139.483C191.161 139.655 191.364 139.79 191.588 139.883C191.811 139.976 192.051 140.023 192.293 140.023H222.75C223.239 140.023 223.708 139.829 224.053 139.483C224.399 139.137 224.594 138.668 224.594 138.179V128.931C224.595 128.336 224.479 127.746 224.251 127.197C224.023 126.647 223.689 126.148 223.267 125.728Z" fill="#C07716"/>
<path d="M222.729 128.932V137.534C222.729 137.7 222.663 137.858 222.546 137.975C222.429 138.093 222.27 138.158 222.105 138.158H192.927C192.844 138.159 192.762 138.144 192.685 138.113C192.608 138.082 192.539 138.036 192.48 137.978C192.421 137.92 192.374 137.851 192.342 137.775C192.31 137.698 192.293 137.617 192.293 137.534V132.446L192.302 121.822L192.312 104.674C192.314 104.508 192.381 104.349 192.5 104.232C192.619 104.115 192.779 104.05 192.945 104.05L197.866 104.069C198.215 104.067 198.561 104.134 198.885 104.267C199.208 104.4 199.501 104.595 199.748 104.842L221.956 127.05C222.203 127.296 222.399 127.59 222.532 127.913C222.665 128.236 222.732 128.583 222.729 128.932Z" fill="#B1D5E7"/>
<path d="M239.671 182.033V183.468C239.673 183.646 239.661 183.823 239.634 183.999C239.502 185.17 238.944 186.252 238.066 187.037C237.187 187.823 236.05 188.257 234.872 188.258H140.702C139.523 188.256 138.385 187.821 137.506 187.036C136.626 186.251 136.065 185.17 135.93 183.999C135.911 183.823 135.902 183.645 135.902 183.468V182.033C135.906 180.763 136.413 179.546 137.313 178.65C138.213 177.753 139.432 177.251 140.702 177.252H234.872C236.142 177.251 237.36 177.753 238.26 178.65C239.16 179.546 239.667 180.763 239.671 182.033Z" fill="#F99819"/>
<g style="mix-blend-mode:multiply" opacity="0.7">
<path d="M150.743 177.252H141.135V188.258H150.743V177.252Z" fill="#D98E1B"/>
</g>
<g style="mix-blend-mode:multiply" opacity="0.7">
<path d="M239.638 183.997C239.506 185.169 238.947 186.251 238.068 187.038C237.189 187.824 236.052 188.26 234.872 188.261H140.699C139.52 188.26 138.382 187.824 137.503 187.038C136.624 186.251 136.066 185.169 135.934 183.997H239.638Z" fill="#D98E1B"/>
</g>
<path d="M381.228 251.494C379.386 251.492 377.619 250.759 376.316 249.456C375.013 248.153 374.28 246.386 374.277 244.543V99.4818C374.276 98.5679 374.454 97.6626 374.803 96.8177C375.151 95.9729 375.663 95.205 376.308 94.5582C376.954 93.9113 377.721 93.3981 378.565 93.0479C379.409 92.6978 380.314 92.5176 381.228 92.5176C382.142 92.5176 383.047 92.6978 383.891 93.0479C384.735 93.3981 385.502 93.9113 386.148 94.5582C386.793 95.205 387.305 95.9729 387.654 96.8177C388.002 97.6626 388.181 98.5679 388.179 99.4818V244.543C388.177 246.386 387.444 248.153 386.141 249.456C384.838 250.759 383.071 251.492 381.228 251.494ZM381.228 95.3263C380.127 95.3275 379.07 95.7657 378.291 96.5447C377.512 97.3238 377.074 98.3801 377.073 99.4818V244.543C377.073 245.645 377.511 246.702 378.29 247.481C379.069 248.261 380.126 248.698 381.228 248.698C382.33 248.698 383.387 248.261 384.166 247.481C384.945 246.702 385.383 245.645 385.383 244.543V99.4818C385.382 98.3802 384.944 97.324 384.165 96.545C383.386 95.7659 382.33 95.3276 381.228 95.3263Z" fill="#808080"/>
<path d="M494.072 83.0856C493.977 83.0857 493.882 83.0763 493.789 83.0575L135.676 9.43974L6.43638 82.9029C6.27679 82.9943 6.10072 83.0534 5.91825 83.0767C5.73579 83.1 5.55052 83.087 5.37308 83.0385C5.19564 82.99 5.02951 82.9071 4.88422 82.7942C4.73893 82.6814 4.61735 82.541 4.52643 82.3811C4.4355 82.2212 4.37704 82.0449 4.35439 81.8624C4.33174 81.6799 4.34534 81.4946 4.39443 81.3174C4.44351 81.1401 4.5271 80.9742 4.64041 80.8293C4.75372 80.6844 4.89451 80.5633 5.05473 80.473L135.208 6.48926L135.723 6.59493L494.351 80.3181C494.69 80.3877 494.992 80.5807 495.197 80.8596C495.402 81.1385 495.496 81.4836 495.461 81.8281C495.426 82.1725 495.265 82.4918 495.008 82.7241C494.752 82.9564 494.418 83.0852 494.072 83.0856Z" fill="#808080"/>
<path d="M145.374 9.73487C144.45 7.34308 143.451 4.77277 142.502 2.3581C142.318 1.8888 141.996 1.48593 141.58 1.20196C141.163 0.917991 140.671 0.766095 140.167 0.766113H130.715C130.211 0.766132 129.718 0.918032 129.302 1.202C128.885 1.48597 128.564 1.88884 128.379 2.3581C127.43 4.77277 126.432 7.34308 125.507 9.73487C125.396 10.0221 125.339 10.3275 125.34 10.6354V19.3326C125.34 19.9979 125.604 20.6359 126.075 21.1064C126.545 21.5768 127.183 21.8411 127.849 21.8411H143.033C143.698 21.8411 144.336 21.5769 144.807 21.1064C145.277 20.636 145.541 19.9979 145.541 19.3326V10.6354C145.542 10.3275 145.486 10.0221 145.374 9.73487ZM135.441 11.7696C134.688 11.7697 133.952 11.5465 133.327 11.1284C132.701 10.7102 132.213 10.1159 131.925 9.42058C131.637 8.72523 131.562 7.96007 131.708 7.22188C131.855 6.4837 132.218 5.80564 132.75 5.27344C133.282 4.74124 133.96 4.37879 134.698 4.23196C135.436 4.08513 136.202 4.16052 136.897 4.44856C137.592 4.7366 138.187 5.22433 138.605 5.85015C139.023 6.47596 139.246 7.21175 139.246 7.9644C139.246 8.9736 138.845 9.94145 138.131 10.6551C137.418 11.3687 136.45 11.7696 135.441 11.7696Z" fill="#FCBA17"/>
<path d="M147.706 54.8164H123.178V284.068H147.706V54.8164Z" fill="#F99819"/>
<g style="mix-blend-mode:multiply" opacity="0.7">
<path d="M147.71 54.8164H140.479V284.068H147.71V54.8164Z" fill="#D98E1B"/>
</g>
<g style="mix-blend-mode:multiply" opacity="0.7">
<path d="M147.706 78.8142V97.9365L123.178 92.4572V78.8142H147.706Z" fill="#D98E1B"/>
</g>
<path d="M145.544 16.6082H125.34V66.9315H145.544V16.6082Z" fill="#F99819"/>
<g style="mix-blend-mode:multiply" opacity="0.7">
<path d="M145.548 16.6082H140.479V66.9315H145.548V16.6082Z" fill="#D98E1B"/>
</g>
<path d="M502.778 80.9751V83.5288C502.776 84.6346 502.336 85.6945 501.553 86.4755C500.77 87.2566 499.709 87.6949 498.603 87.6943H4.2496C3.69146 87.6945 3.13876 87.5848 2.62307 87.3713C2.10737 87.1578 1.63881 86.8448 1.24415 86.4501C0.84949 86.0555 0.536473 85.5869 0.322995 85.0712C0.109518 84.5555 -0.000238032 84.0028 3.87602e-07 83.4447V75.486C0.00114874 74.4856 0.354981 73.5177 0.999275 72.7524C1.64357 71.9871 2.53707 71.4735 3.52263 71.3019L7.56715 70.6028L16.355 69.0839L23.9595 67.7793L32.7474 66.2604L40.3519 64.9555L49.14 63.4366L56.7353 62.1226L65.5324 60.6129L73.1274 59.2988L81.9155 57.7799L89.52 56.4753L98.3079 54.9561L105.912 53.6515L114.7 52.1323L122.295 50.8183L131.093 49.3085L135.445 48.554L139.564 48.8708L150.747 49.7468L160.401 50.4922L171.584 51.3683L181.239 52.1136L192.413 52.9805L202.077 53.7354L213.251 54.6019L222.914 55.3568L234.088 56.2236L243.752 56.9782L254.926 57.8451L264.59 58.5999L275.763 59.4665L285.418 60.2121L296.601 61.0882L306.256 61.8336L317.429 62.7002L327.093 63.4553L338.267 64.3219L347.931 65.0767L359.105 65.9433L368.769 66.6982L379.952 67.5648L389.606 68.3198L400.79 69.1864L410.444 69.9413L421.627 70.8079L431.282 71.5535L442.465 72.4293L452.119 73.175L463.302 74.051L472.957 74.7967L484.131 75.6633L493.795 76.4181L498.948 76.8188C499.991 76.9076 500.962 77.3835 501.671 78.1528C502.38 78.9221 502.775 79.9289 502.778 80.9751Z" fill="#FCBA17"/>
<path d="M24.6593 87.6948H15.7505L0.914062 72.8586C1.56274 72.0364 2.49185 71.4823 3.52356 71.3024L7.56808 70.6033L24.6593 87.6948Z" fill="black"/>
<path d="M43.8754 87.6966H34.965L16.3555 69.0844L23.9592 67.7803L43.8754 87.6966Z" fill="black"/>
<path d="M63.0918 87.6958H54.1814L32.748 66.2599L40.3517 64.9558L63.0918 87.6958Z" fill="black"/>
<path d="M82.3036 87.6954H73.3958L49.1387 63.4357L56.7318 62.1211L82.3036 87.6954Z" fill="black"/>
<path d="M101.521 87.696H92.6128L65.5293 60.6125L73.1251 59.3005L101.521 87.696Z" fill="black"/>
<path d="M120.738 87.6956H111.827L81.9121 57.7804L89.5184 56.4763L120.738 87.6956Z" fill="black"/>
<path d="M139.955 87.6964H131.048L98.3086 54.9574L105.912 53.6533L139.955 87.6964Z" fill="black"/>
<path d="M159.17 87.6959H150.262L114.699 52.1332L122.295 50.8186L159.17 87.6959Z" fill="black"/>
<path d="M178.384 87.6965H169.474L131.09 49.31L135.441 48.5554L139.559 48.8709L178.384 87.6965Z" fill="black"/>
<path d="M197.599 87.6967H188.692L150.744 49.7493L160.399 50.4933L197.599 87.6967Z" fill="black"/>
<path d="M216.818 87.6957H207.91L171.582 51.3679L181.236 52.1146L216.818 87.6957Z" fill="black"/>
<path d="M236.034 87.6966H227.124L192.41 52.9805L202.075 53.7377L236.034 87.6966Z" fill="black"/>
<path d="M255.252 87.6957H246.341L213.25 54.6018L222.912 55.3564L255.252 87.6957Z" fill="black"/>
<path d="M274.467 87.6965H265.56L234.088 56.2249L243.753 56.9794L274.467 87.6965Z" fill="black"/>
<path d="M293.682 87.6956H284.771L254.922 57.8462L264.587 58.6008L293.682 87.6956Z" fill="black"/>
<path d="M312.901 87.6962H303.991L275.764 59.4663L285.418 60.213L312.901 87.6962Z" fill="black"/>
<path d="M332.113 87.6965H323.205L296.598 61.0889L306.252 61.8356L332.113 87.6965Z" fill="black"/>
<path d="M351.331 87.6961H342.421L317.428 62.7002L327.093 63.4548L351.331 87.6961Z" fill="black"/>
<path d="M370.547 87.6965H361.637L338.266 64.3228L347.928 65.0773L370.547 87.6965Z" fill="black"/>
<path d="M389.761 87.6958H380.853L359.102 65.9443L368.767 66.6989L389.761 87.6958Z" fill="black"/>
<path d="M408.982 87.6963H400.082L379.953 67.5645L389.608 68.3217L408.982 87.6963Z" fill="black"/>
<path d="M428.204 87.6957H419.296L400.789 69.186L410.444 69.9406L428.204 87.6957Z" fill="black"/>
<path d="M447.42 87.696H438.512L421.625 70.8086L431.28 71.5553L447.42 87.696Z" fill="black"/>
<path d="M466.64 87.6964H457.73L442.465 72.4312L452.119 73.1752L466.64 87.6964Z" fill="black"/>
<path d="M485.852 87.6959H476.944L463.301 74.0503L472.955 74.797L485.852 87.6959Z" fill="black"/>
<path d="M502.469 85.095C502.158 85.8649 501.623 86.5239 500.934 86.9873C500.244 87.4507 499.432 87.6972 498.602 87.6951H496.16L484.129 75.6641L493.793 76.4189L502.469 85.095Z" fill="black"/>
<path d="M502.778 81.3577V83.5291C502.777 84.635 502.336 85.6949 501.553 86.476C500.77 87.2571 499.709 87.6954 498.603 87.6946H4.2496C3.69146 87.6948 3.13876 87.5851 2.62307 87.3716C2.10737 87.1581 1.63881 86.8451 1.24415 86.4504C0.84949 86.0558 0.536473 85.5872 0.322995 85.0715C0.109518 84.5558 -0.000238032 84.0031 3.87602e-07 83.445V81.3577H502.778Z" fill="#F99819"/>
<path d="M160.288 270.527V430.379H110.598V270.527C110.595 269.91 110.636 269.294 110.719 268.682C110.9 267.11 111.435 265.6 112.285 264.265L117.401 256.763C117.729 256.185 118.196 255.697 118.758 255.343C119.321 254.988 119.962 254.778 120.625 254.732H150.251C150.914 254.777 151.556 254.987 152.119 255.341C152.682 255.696 153.148 256.184 153.475 256.763L158.591 264.265C159.448 265.597 159.987 267.109 160.166 268.682C160.249 269.294 160.29 269.91 160.288 270.527Z" fill="#FCBA17"/>
<g style="mix-blend-mode:screen" opacity="0.5">
<path d="M160.168 268.682H110.721C110.901 267.11 111.437 265.6 112.286 264.265L117.403 256.763C117.731 256.185 118.197 255.697 118.76 255.343C119.322 254.988 119.964 254.778 120.627 254.732H150.253C150.916 254.777 151.558 254.987 152.121 255.341C152.683 255.696 153.149 256.184 153.477 256.763L158.593 264.265C159.45 265.597 159.989 267.109 160.168 268.682Z" fill="#FCBA17"/>
</g>
<g style="mix-blend-mode:multiply" opacity="0.5">
<path d="M160.291 270.527V430.379H140.479V254.732H150.254C150.918 254.777 151.56 254.987 152.123 255.341C152.685 255.696 153.151 256.184 153.479 256.763L158.595 264.265C159.759 266.143 160.348 268.319 160.291 270.527Z" fill="#D98E1B"/>
</g>
<path d="M67.0217 54.1926H45.5876C43.4002 54.1926 41.627 55.9659 41.627 58.1533V105.215C41.627 107.403 43.4002 109.176 45.5876 109.176H67.0217C69.2091 109.176 70.9824 107.403 70.9824 105.215V58.1533C70.9824 55.9659 69.2091 54.1926 67.0217 54.1926Z" fill="#404041"/>
<path d="M369.495 81.6836H392.969C393.832 81.6836 394.659 82.0263 395.269 82.6362C395.879 83.2461 396.222 84.0734 396.222 84.9359V114.795C396.222 115.657 395.879 116.484 395.269 117.094C394.659 117.704 393.832 118.047 392.969 118.047H369.504C368.639 118.047 367.809 117.703 367.198 117.092C366.586 116.48 366.242 115.65 366.242 114.785V84.9359C366.242 84.5088 366.326 84.0859 366.49 83.6913C366.653 83.2967 366.893 82.9382 367.195 82.6362C367.497 82.3342 367.855 82.0946 368.25 81.9312C368.645 81.7677 369.067 81.6836 369.495 81.6836Z" fill="#F99819"/>
<g style="mix-blend-mode:multiply" opacity="0.7">
<path d="M400.531 84.9454V87.6945H370.551V84.9454C370.552 84.0806 370.896 83.2516 371.507 82.6401C372.119 82.0286 372.948 81.6846 373.813 81.6836H397.278C398.142 81.6849 398.97 82.0293 399.58 82.641C400.19 83.2527 400.532 84.0816 400.531 84.9454Z" fill="#BE7614"/>
</g>
<path d="M137.677 7.96392C137.677 8.40611 137.545 8.83834 137.3 9.20599C137.054 9.57364 136.705 9.86019 136.296 10.0294C135.888 10.1986 135.438 10.2428 135.005 10.1565C134.571 10.0702 134.172 9.85729 133.86 9.54459C133.547 9.2319 133.334 8.83351 133.248 8.39981C133.162 7.96611 133.206 7.51659 133.375 7.10807C133.545 6.69955 133.831 6.35039 134.199 6.10474C134.567 5.8591 134.999 5.728 135.441 5.72803C135.735 5.72803 136.025 5.78584 136.297 5.89821C136.568 6.01058 136.814 6.1753 137.022 6.38292C137.229 6.59055 137.394 6.837 137.506 7.10827C137.619 7.37954 137.677 7.67031 137.677 7.96392Z" fill="#F99819"/>
<path d="M396.218 84.9454V90.8538H366.238V84.9454C366.239 84.0806 366.583 83.2515 367.195 82.64C367.806 82.0285 368.635 81.6845 369.5 81.6836H392.966C393.829 81.6849 394.657 82.0293 395.267 82.641C395.877 83.2527 396.219 84.0816 396.218 84.9454Z" fill="#FCBA17"/>
<path d="M374.995 105.956H387.46C387.846 105.956 388.216 106.11 388.489 106.383C388.762 106.656 388.916 107.026 388.916 107.412V111.257C388.916 111.643 388.762 112.013 388.489 112.286C388.216 112.559 387.846 112.713 387.46 112.713H374.995C374.609 112.713 374.239 112.559 373.966 112.286C373.692 112.013 373.539 111.642 373.539 111.256V107.412C373.539 107.026 373.692 106.656 373.966 106.383C374.239 106.11 374.609 105.956 374.995 105.956Z" fill="white"/>
<path d="M135.443 73.7657C139.818 73.7657 143.364 70.2192 143.364 65.8444C143.364 61.4696 139.818 57.9231 135.443 57.9231C131.068 57.9231 127.521 61.4696 127.521 65.8444C127.521 70.2192 131.068 73.7657 135.443 73.7657Z" fill="#F99819"/>
<path d="M135.44 70.8361C138.197 70.8361 140.431 68.6015 140.431 65.845C140.431 63.0886 138.197 60.854 135.44 60.854C132.684 60.854 130.449 63.0886 130.449 65.845C130.449 68.6015 132.684 70.8361 135.44 70.8361Z" fill="#FCBA17"/>
<g style="mix-blend-mode:multiply" opacity="0.5">
<path d="M70.9836 58.1533V105.215C70.9829 106.265 70.5654 107.272 69.8228 108.015C69.0802 108.758 68.0732 109.175 67.023 109.176H59.8008V54.1926H67.023C68.0727 54.1949 69.0788 54.6129 69.8211 55.3551C70.5634 56.0974 70.9814 57.1035 70.9836 58.1533Z" fill="#404041"/>
</g>
<path d="M37.6624 54.1926H16.2282C14.0408 54.1926 12.2676 55.9659 12.2676 58.1533V105.215C12.2676 107.403 14.0408 109.176 16.2282 109.176H37.6624C39.8498 109.176 41.623 107.403 41.623 105.215V58.1533C41.623 55.9659 39.8498 54.1926 37.6624 54.1926Z" fill="#404041"/>
<g style="mix-blend-mode:multiply" opacity="0.5">
<path d="M41.6245 58.1533V105.215C41.6238 106.265 41.2063 107.272 40.4637 108.015C39.7211 108.758 38.7141 109.175 37.6639 109.176H30.4414V54.1926H37.6639C38.7136 54.1949 39.7197 54.6129 40.4619 55.3552C41.2042 56.0975 41.6222 57.1035 41.6245 58.1533Z" fill="#404041"/>
</g>
<path d="M169.706 147.171C169.706 147.664 169.56 148.146 169.286 148.555C169.012 148.965 168.623 149.284 168.168 149.473C167.713 149.662 167.212 149.711 166.728 149.615C166.245 149.519 165.801 149.282 165.453 148.933C165.104 148.585 164.867 148.141 164.771 147.657C164.674 147.174 164.724 146.673 164.912 146.218C165.101 145.763 165.42 145.373 165.83 145.1C166.24 144.826 166.721 144.68 167.214 144.68C167.875 144.68 168.509 144.942 168.976 145.409C169.443 145.877 169.706 146.51 169.706 147.171Z" fill="#C07716"/>
<path d="M381.079 278.208C379.079 278.203 377.134 277.56 375.526 276.371C373.918 275.183 372.731 273.512 372.139 271.602C371.96 271.012 372.023 270.375 372.313 269.83C372.603 269.286 373.097 268.879 373.687 268.699C374.277 268.518 374.914 268.579 375.46 268.868C376.005 269.157 376.413 269.65 376.595 270.239C376.891 271.214 377.498 272.064 378.323 272.662C379.148 273.259 380.145 273.57 381.163 273.548C382.359 273.5 383.492 273.007 384.342 272.166C385.192 271.324 385.696 270.195 385.756 269C385.778 268.164 385.577 267.337 385.174 266.605C384.77 265.873 384.178 265.261 383.459 264.834C382.032 263.991 380.848 262.793 380.022 261.356C379.196 259.92 378.756 258.294 378.745 256.637V246.23C378.745 245.612 378.99 245.02 379.427 244.583C379.864 244.146 380.456 243.9 381.074 243.9C381.692 243.9 382.285 244.146 382.722 244.583C383.159 245.02 383.404 245.612 383.404 246.23V256.637C383.413 257.486 383.642 258.318 384.068 259.052C384.494 259.786 385.103 260.397 385.836 260.826C387.585 261.862 388.948 263.44 389.719 265.321C390.49 267.203 390.627 269.284 390.108 271.249C389.589 273.215 388.444 274.958 386.845 276.213C385.246 277.469 383.281 278.169 381.249 278.207L381.079 278.208Z" fill="#231F20"/>
<path d="M381.228 252.891C386.162 252.891 390.163 248.891 390.163 243.956C390.163 239.022 386.162 235.021 381.228 235.021C376.293 235.021 372.293 239.022 372.293 243.956C372.293 248.891 376.293 252.891 381.228 252.891Z" fill="#FCBA17"/>
<path d="M384.569 243.956C384.569 244.617 384.373 245.264 384.006 245.813C383.638 246.363 383.116 246.792 382.505 247.045C381.894 247.298 381.222 247.364 380.574 247.235C379.925 247.106 379.33 246.787 378.862 246.32C378.394 245.852 378.076 245.257 377.947 244.608C377.818 243.959 377.884 243.287 378.137 242.676C378.39 242.065 378.819 241.543 379.369 241.176C379.919 240.809 380.565 240.613 381.226 240.613C381.665 240.613 382.1 240.699 382.506 240.867C382.911 241.035 383.28 241.281 383.59 241.592C383.901 241.902 384.147 242.271 384.315 242.677C384.483 243.082 384.569 243.517 384.569 243.956Z" fill="black"/>
<path d="M204.483 411.343H66.4038C66.0331 411.343 65.6775 411.196 65.4153 410.934C65.1531 410.671 65.0059 410.316 65.0059 409.945C65.0058 409.761 65.042 409.58 65.1122 409.41C65.1825 409.24 65.2855 409.086 65.4153 408.956C65.5451 408.827 65.6992 408.724 65.8688 408.653C66.0384 408.583 66.2202 408.547 66.4038 408.547H204.483C204.667 408.547 204.848 408.583 205.018 408.654C205.188 408.724 205.342 408.827 205.471 408.957C205.601 409.086 205.704 409.24 205.774 409.41C205.845 409.58 205.881 409.761 205.881 409.945C205.881 410.316 205.734 410.671 205.471 410.933C205.209 411.196 204.854 411.343 204.483 411.343Z" fill="#F99819"/>
<path d="M70.4457 426.876C70.1164 426.875 69.801 426.743 69.5681 426.511C69.3353 426.278 69.2041 425.962 69.2031 425.633V406.839C69.2041 406.51 69.3353 406.195 69.5681 405.962C69.801 405.729 70.1164 405.598 70.4457 405.597C70.7749 405.598 71.0904 405.729 71.3231 405.962C71.5559 406.195 71.6871 406.51 71.688 406.839V425.633C71.6871 425.962 71.5559 426.278 71.3231 426.511C71.0904 426.743 70.7749 426.875 70.4457 426.876Z" fill="#F99819"/>
<path d="M84.889 426.876C84.5598 426.875 84.2443 426.743 84.0115 426.511C83.7787 426.278 83.6475 425.962 83.6465 425.633V406.839C83.6475 406.51 83.7787 406.195 84.0115 405.962C84.2443 405.729 84.5598 405.598 84.889 405.597C85.2183 405.598 85.5338 405.729 85.7666 405.962C85.9994 406.195 86.1306 406.51 86.1316 406.839V425.633C86.1306 425.962 85.9994 426.278 85.7666 426.511C85.5338 426.743 85.2183 426.875 84.889 426.876Z" fill="#F99819"/>
<path d="M99.3285 426.876C98.9993 426.875 98.6838 426.743 98.451 426.511C98.2181 426.278 98.0869 425.962 98.0859 425.633V406.839C98.0869 406.51 98.2181 406.195 98.451 405.962C98.6838 405.729 98.9993 405.598 99.3285 405.597C99.6578 405.598 99.9733 405.729 100.206 405.962C100.439 406.195 100.57 406.51 100.571 406.839V425.633C100.57 425.962 100.439 426.278 100.206 426.511C99.9733 426.743 99.6578 426.875 99.3285 426.876Z" fill="#F99819"/>
<path d="M113.776 426.876C113.447 426.875 113.131 426.743 112.898 426.511C112.665 426.278 112.534 425.962 112.533 425.633V406.839C112.534 406.51 112.665 406.195 112.898 405.962C113.131 405.729 113.447 405.598 113.776 405.597C114.105 405.598 114.421 405.729 114.653 405.962C114.886 406.195 115.017 406.51 115.018 406.839V425.633C115.017 425.962 114.886 426.278 114.653 426.511C114.421 426.743 114.105 426.875 113.776 426.876Z" fill="#F99819"/>
<path d="M128.221 426.876C127.892 426.875 127.576 426.743 127.344 426.511C127.111 426.278 126.979 425.962 126.979 425.633V406.839C126.979 406.51 127.111 406.195 127.344 405.962C127.576 405.729 127.892 405.598 128.221 405.597C128.55 405.598 128.866 405.729 129.099 405.962C129.331 406.195 129.463 406.51 129.464 406.839V425.633C129.463 425.962 129.331 426.278 129.099 426.511C128.866 426.743 128.55 426.875 128.221 426.876Z" fill="#F99819"/>
<path d="M142.666 426.876C142.337 426.875 142.022 426.743 141.789 426.511C141.556 426.278 141.425 425.962 141.424 425.633V406.839C141.425 406.51 141.556 406.195 141.789 405.962C142.022 405.729 142.337 405.598 142.666 405.597C142.996 405.598 143.311 405.729 143.544 405.962C143.777 406.195 143.908 406.51 143.909 406.839V425.633C143.908 425.962 143.777 426.278 143.544 426.511C143.311 426.743 142.996 426.875 142.666 426.876Z" fill="#F99819"/>
<path d="M157.112 426.876C156.782 426.875 156.467 426.743 156.234 426.511C156.001 426.278 155.87 425.962 155.869 425.633V406.839C155.87 406.51 156.001 406.195 156.234 405.962C156.467 405.729 156.782 405.598 157.112 405.597C157.441 405.598 157.756 405.729 157.989 405.962C158.222 406.195 158.353 406.51 158.354 406.839V425.633C158.353 425.962 158.222 426.278 157.989 426.511C157.756 426.743 157.441 426.875 157.112 426.876Z" fill="#F99819"/>
<path d="M171.555 426.876C171.226 426.875 170.91 426.743 170.677 426.511C170.445 426.278 170.313 425.962 170.312 425.633V406.839C170.313 406.51 170.445 406.195 170.677 405.962C170.91 405.729 171.226 405.598 171.555 405.597C171.884 405.598 172.2 405.729 172.433 405.962C172.665 406.195 172.797 406.51 172.798 406.839V425.633C172.797 425.962 172.665 426.278 172.433 426.511C172.2 426.743 171.884 426.875 171.555 426.876Z" fill="#F99819"/>
<path d="M186 426.876C185.671 426.875 185.356 426.743 185.123 426.511C184.89 426.278 184.759 425.962 184.758 425.633V406.839C184.759 406.51 184.89 406.195 185.123 405.962C185.356 405.729 185.671 405.598 186 405.597C186.33 405.598 186.645 405.729 186.878 405.962C187.111 406.195 187.242 406.51 187.243 406.839V425.633C187.242 425.962 187.111 426.278 186.878 426.511C186.645 426.743 186.33 426.875 186 426.876Z" fill="#F99819"/>
<path d="M200.446 426.876C200.116 426.875 199.801 426.743 199.568 426.511C199.335 426.278 199.204 425.962 199.203 425.633V406.839C199.204 406.51 199.335 406.195 199.568 405.962C199.801 405.729 200.116 405.598 200.446 405.597C200.775 405.598 201.09 405.729 201.323 405.962C201.556 406.195 201.687 406.51 201.688 406.839V425.633C201.687 425.962 201.556 426.278 201.323 426.511C201.09 426.743 200.775 426.875 200.446 426.876Z" fill="#F99819"/>
<path d="M67.7195 420.296H203.164C203.906 420.296 204.617 420.591 205.141 421.115C205.666 421.64 205.96 422.351 205.96 423.092V433.026C205.96 433.768 205.666 434.479 205.141 435.003C204.617 435.528 203.906 435.822 203.164 435.822H67.7195C66.978 435.822 66.267 435.528 65.7427 435.003C65.2184 434.479 64.9238 433.768 64.9238 433.027V423.092C64.9238 422.351 65.2184 421.639 65.7427 421.115C66.267 420.591 66.978 420.296 67.7195 420.296Z" fill="#F99819"/>
<g style="mix-blend-mode:multiply" opacity="0.7">
<path d="M203.167 420.296H144.447V435.822H203.167C203.909 435.822 204.619 435.527 205.144 435.003C205.668 434.478 205.962 433.768 205.963 433.026V423.092C205.962 422.351 205.668 421.64 205.143 421.116C204.619 420.592 203.909 420.297 203.167 420.296Z" fill="#D98E1B"/>
</g>
<path d="M57.4695 435.821H213.416C214.158 435.821 214.869 436.116 215.393 436.64C215.918 437.165 216.212 437.876 216.212 438.617V448.551C216.212 449.293 215.918 450.004 215.393 450.528C214.869 451.053 214.158 451.347 213.417 451.347H57.4695C56.728 451.347 56.0169 451.053 55.4926 450.528C54.9684 450.004 54.6738 449.293 54.6738 448.551V438.617C54.6738 437.876 54.9684 437.164 55.4926 436.64C56.0169 436.116 56.728 435.821 57.4695 435.821Z" fill="#FCBA17"/>
<g style="mix-blend-mode:multiply" opacity="0.5">
<path d="M216.214 438.617V448.551C216.214 449.292 215.919 450.003 215.395 450.527C214.871 451.052 214.16 451.346 213.419 451.347H151.549V435.821H213.419C214.16 435.822 214.871 436.117 215.395 436.641C215.919 437.165 216.214 437.876 216.214 438.617Z" fill="#D98E1B"/>
</g>
<g style="mix-blend-mode:multiply" opacity="0.5">
<path d="M396.217 84.9454V114.795C396.218 115.222 396.134 115.645 395.971 116.04C395.807 116.435 395.568 116.793 395.266 117.095C394.964 117.397 394.605 117.637 394.21 117.8C393.815 117.964 393.392 118.047 392.965 118.047H386.898V81.6836H392.965C393.829 81.6849 394.657 82.0292 395.267 82.6409C395.877 83.2526 396.219 84.0816 396.217 84.9454Z" fill="#BE7614"/>
</g>
<path d="M184.321 104.692V106.696L161.666 129.351V121.784L179.372 104.068H183.696C183.862 104.068 184.021 104.134 184.138 104.251C184.255 104.368 184.321 104.527 184.321 104.692Z" fill="white"/>
<path d="M209.822 114.916L192.293 132.445L192.303 121.82L204.511 109.605L209.822 114.916Z" fill="white"/>
<path d="M184.321 111.896V117.022L163.185 138.158H162.291C162.209 138.158 162.127 138.142 162.052 138.11C161.976 138.079 161.907 138.033 161.849 137.975C161.791 137.917 161.745 137.848 161.714 137.772C161.682 137.697 161.666 137.615 161.666 137.533V134.551L184.321 111.896Z" fill="white"/>
<path d="M214.705 119.8L196.347 138.159H192.927C192.844 138.16 192.762 138.144 192.685 138.113C192.608 138.082 192.539 138.036 192.48 137.978C192.421 137.92 192.374 137.851 192.342 137.775C192.31 137.699 192.293 137.617 192.293 137.534V137.087L212.142 117.237L214.705 119.8Z" fill="white"/>
<path d="M302.966 449.537H275.984L276.992 444.315L278.291 437.586L279.798 429.771L281.097 423.042L282.605 415.226L283.904 408.498L284.657 404.596C284.678 404.39 284.771 404.198 284.918 404.052C285.066 403.907 285.26 403.817 285.466 403.798H293.482C293.688 403.817 293.882 403.907 294.03 404.052C294.177 404.198 294.27 404.39 294.292 404.596L295.044 408.498L296.343 415.226L297.852 423.042L299.15 429.771L300.659 437.586L301.958 444.315L302.966 449.537Z" fill="#FCBA17"/>
<path d="M296.346 415.228H282.605L283.904 408.497H295.047L296.346 415.228Z" fill="black"/>
<path d="M299.146 429.771H279.795L281.094 423.042H297.85L299.146 429.771Z" fill="black"/>
<path d="M301.955 444.315H276.99L278.289 437.587H300.656L301.955 444.315Z" fill="black"/>
<g style="mix-blend-mode:multiply" opacity="0.7">
<path d="M290.217 407.668L291.576 414.704L293.154 422.876L294.51 429.913L296.088 438.085L297.447 445.121L298.299 449.537H302.964L301.956 444.315L300.657 437.586L299.148 429.771L297.851 423.042L296.342 415.226L295.043 408.498L294.29 404.596C294.268 404.39 294.176 404.198 294.028 404.052C293.881 403.907 293.687 403.817 293.481 403.798H289.471L290.217 407.668Z" fill="#D98E1B"/>
</g>
<g style="mix-blend-mode:screen">
<path d="M277.601 444.88L278.941 437.935L280.497 429.87L281.837 422.926L283.393 414.861L284.733 407.917L285.51 403.891C285.516 403.859 285.527 403.829 285.535 403.798H285.466C285.26 403.817 285.066 403.907 284.918 404.052C284.771 404.198 284.678 404.39 284.657 404.596L283.904 408.498L282.605 415.226L281.097 423.042L279.798 429.771L278.291 437.586L276.992 444.315L275.984 449.537H276.702L277.601 444.88Z" fill="#F37029"/>
</g>
<path d="M306.238 449.815V450.721L306.236 450.755C306.244 450.898 306.197 451.04 306.105 451.15C306.012 451.26 305.881 451.331 305.738 451.348H273.205C273.062 451.331 272.931 451.26 272.839 451.15C272.746 451.04 272.699 450.898 272.708 450.755L272.706 450.721V449.815C272.691 449.666 272.735 449.517 272.828 449.4C272.922 449.283 273.057 449.207 273.205 449.188H305.738C305.886 449.207 306.022 449.283 306.115 449.4C306.208 449.517 306.252 449.666 306.238 449.815Z" fill="#FCBA17"/>
<g style="mix-blend-mode:multiply" opacity="0.5">
<path d="M306.238 450.754C306.246 450.898 306.2 451.04 306.107 451.15C306.014 451.26 305.883 451.331 305.74 451.348H273.208C273.065 451.331 272.934 451.26 272.841 451.15C272.749 451.04 272.702 450.898 272.71 450.754H306.238Z" fill="#D98E1B"/>
</g>
<g style="mix-blend-mode:multiply" opacity="0.5">
<path d="M306.241 449.815V450.721C306.256 450.87 306.212 451.019 306.118 451.136C306.025 451.253 305.89 451.329 305.741 451.348H299.424L299.376 451.101L299.006 449.188H305.741C305.89 449.207 306.025 449.283 306.118 449.4C306.212 449.517 306.256 449.666 306.241 449.815Z" fill="#D98E1B"/>
</g>
<path d="M513.915 449.537H486.934L487.941 444.315L489.24 437.586L490.748 429.771L492.047 423.042L493.554 415.226L494.853 408.498L495.606 404.596C495.627 404.39 495.72 404.198 495.868 404.052C496.015 403.907 496.209 403.817 496.415 403.798H504.431C504.638 403.817 504.831 403.907 504.979 404.052C505.127 404.198 505.219 404.39 505.241 404.596L505.994 408.498L507.293 415.226L508.802 423.042L510.099 429.771L511.608 437.586L512.907 444.315L513.915 449.537Z" fill="#FCBA17"/>
<path d="M507.288 415.228H493.551L494.85 408.497H505.99L507.288 415.228Z" fill="black"/>
<path d="M510.097 429.771H490.746L492.045 423.042H508.801L510.097 429.771Z" fill="black"/>
<path d="M512.906 444.315H487.941L489.24 437.587H511.607L512.906 444.315Z" fill="black"/>
<g style="mix-blend-mode:multiply" opacity="0.7">
<path d="M501.165 407.668L502.523 414.704L504.101 422.876L505.458 429.913L507.035 438.085L508.394 445.121L509.246 449.537H513.911L512.904 444.315L511.604 437.586L510.096 429.771L508.798 423.042L507.289 415.226L505.99 408.498L505.237 404.596C505.216 404.39 505.123 404.198 504.976 404.052C504.828 403.907 504.634 403.817 504.428 403.798H500.418L501.165 407.668Z" fill="#D98E1B"/>
</g>
<g style="mix-blend-mode:screen">
<path d="M488.55 444.88L489.89 437.935L491.446 429.87L492.786 422.926L494.342 414.861L495.683 407.917L496.46 403.891C496.466 403.859 496.476 403.829 496.484 403.798H496.415C496.209 403.817 496.015 403.907 495.868 404.052C495.72 404.198 495.627 404.39 495.606 404.596L494.853 408.498L493.554 415.226L492.047 423.042L490.748 429.771L489.24 437.586L487.941 444.315L486.934 449.537H487.651L488.55 444.88Z" fill="#F37029"/>
</g>
<path d="M517.187 449.815V450.721L517.185 450.755C517.193 450.898 517.146 451.04 517.054 451.15C516.961 451.26 516.83 451.331 516.687 451.348H484.155C484.012 451.331 483.881 451.26 483.788 451.15C483.695 451.04 483.648 450.898 483.657 450.755L483.655 450.721V449.815C483.64 449.666 483.684 449.517 483.778 449.4C483.871 449.283 484.006 449.207 484.155 449.188H516.687C516.836 449.207 516.971 449.283 517.064 449.4C517.157 449.517 517.202 449.666 517.187 449.815Z" fill="#FCBA17"/>
<g style="mix-blend-mode:multiply" opacity="0.5">
<path d="M517.185 450.754C517.194 450.898 517.147 451.04 517.054 451.15C516.962 451.26 516.83 451.331 516.687 451.348H484.155C484.012 451.331 483.881 451.26 483.788 451.15C483.696 451.04 483.649 450.898 483.657 450.754H517.185Z" fill="#D98E1B"/>
</g>
<g style="mix-blend-mode:multiply" opacity="0.5">
<path d="M517.192 449.815V450.721C517.207 450.87 517.163 451.019 517.07 451.136C516.976 451.253 516.841 451.329 516.692 451.348H510.375L510.327 451.101L509.957 449.188H516.692C516.841 449.207 516.976 449.283 517.069 449.4C517.163 449.517 517.207 449.666 517.192 449.815Z" fill="#D98E1B"/>
</g>
<path d="M348.496 451.347C348.642 451.241 348.743 451.085 348.779 450.909L350.219 443.024C350.238 442.817 350.184 442.611 350.068 442.439C349.951 442.268 349.778 442.142 349.58 442.084L345.877 440.643L339.491 438.156L332.073 435.27L325.687 432.783L318.269 429.897L311.883 427.41L306.927 425.481L302.205 451.347H348.496Z" fill="#FCBA17"/>
<path d="M343.919 451.349L345.873 440.645L339.486 438.158L337.078 451.349H343.919Z" fill="black"/>
<path d="M329.132 451.347L332.068 435.27L325.682 432.782L322.293 451.347H329.132Z" fill="black"/>
<path d="M314.351 451.348L318.269 429.896L311.882 427.411L307.51 451.348H314.351Z" fill="black"/>
<g style="mix-blend-mode:multiply" opacity="0.7">
<path d="M348.496 451.348C348.642 451.243 348.743 451.087 348.779 450.911L349.499 446.966L345.559 447.006L338.393 447.078L330.07 447.163L322.905 447.234L314.582 447.318L307.416 447.39L302.919 447.436L302.205 451.348H348.496Z" fill="#D98E1B"/>
</g>
<g style="mix-blend-mode:screen">
<path d="M311.217 427.908L317.808 430.474L325.462 433.453L332.052 436.019L339.707 438.997L346.297 441.563L350.118 443.051C350.149 443.063 350.176 443.078 350.205 443.091L350.217 443.024C350.236 442.817 350.183 442.611 350.066 442.439C349.949 442.268 349.777 442.142 349.578 442.084L345.875 440.643L339.489 438.156L332.071 435.27L325.685 432.783L318.268 429.897L311.881 427.41L306.926 425.481L306.797 426.187L311.217 427.908Z" fill="#F37029"/>
</g>
<path d="M302.557 451.348L307.766 422.814C307.774 422.665 307.724 422.518 307.626 422.405C307.527 422.292 307.389 422.222 307.24 422.21L306.348 422.047L306.315 422.043C306.175 422.009 306.027 422.03 305.902 422.101C305.777 422.172 305.684 422.288 305.642 422.426L300.361 451.348H302.557Z" fill="#FCBA17"/>
<g style="mix-blend-mode:multiply" opacity="0.5">
<path d="M300.964 451.348L306.315 422.043C306.175 422.009 306.027 422.03 305.902 422.101C305.777 422.172 305.684 422.288 305.642 422.426L300.361 451.348H300.964Z" fill="#D98E1B"/>
</g>
<path d="M429.133 303.124L425.799 301.986L415.054 298.318L412.848 304.546L420.351 307.602L425.381 309.65L429.133 303.124Z" fill="#DC9D77"/>
<g style="mix-blend-mode:multiply" opacity="0.7">
<path d="M420.352 307.602C422.018 305.59 423.84 303.713 425.8 301.986L429.134 303.124L425.383 309.65L420.352 307.602Z" fill="#DC9D77"/>
</g>
<path d="M442.131 304.616C447.568 305.697 449.632 311.728 444.902 314.62C444.03 315.114 443.066 315.424 442.069 315.531C441.072 315.637 440.064 315.538 439.107 315.24L422.945 310.023L427.413 300.29L442.131 304.616Z" fill="#0A4877"/>
<path d="M450.143 294.909L449.672 297.562L448.352 304.995H440.215L441.196 300.173L442.868 292.009L450.143 294.909Z" fill="#DC9D77"/>
<g style="mix-blend-mode:multiply" opacity="0.7">
<path d="M450.139 294.911L449.669 297.562C447.02 298.927 444.149 299.811 441.191 300.175L442.864 292.01L450.139 294.911Z" fill="#DC9D77"/>
</g>
<path d="M455.483 288.458C455.479 288.489 455.47 288.52 455.457 288.549C455.451 288.634 455.433 288.717 455.405 288.797C454.59 291.6 452.815 294.027 450.391 295.653C447.967 297.279 445.048 298.001 442.146 297.693C437.483 296.792 437.326 291.645 438.541 285.27C438.541 285.257 438.554 285.231 438.554 285.218C438.679 284.535 438.853 283.863 439.076 283.206C439.946 280.185 441.943 277.613 444.654 276.022C445.131 275.763 445.635 275.557 446.156 275.408C447.156 275.108 448.214 275.054 449.239 275.251C450.497 275.497 451.658 276.1 452.583 276.988L452.622 277.028C453.993 278.556 454.97 280.396 455.469 282.388C455.967 284.38 455.972 286.463 455.483 288.458Z" fill="#DC9D77"/>
<g style="mix-blend-mode:multiply" opacity="0.7">
<path d="M455.481 288.458C455.477 288.49 455.468 288.52 455.455 288.55C449.734 287.934 444.075 286.837 438.539 285.271C438.539 285.258 438.552 285.231 438.552 285.218C438.677 284.536 438.851 283.864 439.074 283.207C439.944 280.186 441.941 277.614 444.652 276.022C445.129 275.763 445.633 275.558 446.155 275.408C448.231 275.944 450.465 276.493 452.621 277.028C453.991 278.557 454.968 280.397 455.467 282.389C455.965 284.381 455.97 286.464 455.481 288.458Z" fill="#DC9D77"/>
</g>
<path d="M440.354 438.318C439.434 439.653 438.317 440.841 437.04 441.839C435.705 442.309 434.337 442.675 432.946 442.936C431.441 442.847 429.93 442.931 428.444 443.186C426.58 443.6 425.959 447.236 425.855 448.996H450.728C450.728 448.996 451.538 441.011 449.778 438.318H440.354Z" fill="#654220"/>
<path d="M425.89 447.723H450.7C450.892 447.723 451.075 447.799 451.211 447.935C451.346 448.07 451.422 448.254 451.422 448.446V450.626C451.422 450.817 451.346 451.001 451.211 451.136C451.075 451.272 450.892 451.348 450.7 451.348H425.89C425.699 451.348 425.515 451.272 425.38 451.136C425.244 451.001 425.168 450.817 425.168 450.625V448.446C425.168 448.254 425.244 448.07 425.38 447.935C425.515 447.799 425.699 447.723 425.89 447.723Z" fill="#997147"/>
<path d="M451.464 439.592L449.528 367.665L454.413 361.149C455.386 359.85 455.912 358.271 455.912 356.649V342.759L444.797 343.521L444.749 346.469H436.507C436.254 350.074 438.258 428.437 437.859 439.592H451.464Z" fill="#06406C"/>
<path d="M448.256 438.318C447.337 439.653 446.219 440.841 444.942 441.839C443.608 442.309 442.239 442.675 440.848 442.936C439.343 442.847 437.833 442.931 436.347 443.186C434.483 443.6 433.861 447.236 433.758 448.996H458.631C458.631 448.996 459.441 441.011 457.68 438.318H448.256Z" fill="#754C28"/>
<path d="M433.793 447.723H458.602C458.794 447.723 458.977 447.799 459.113 447.935C459.248 448.07 459.325 448.254 459.325 448.446V450.626C459.325 450.817 459.249 451.001 459.113 451.136C458.978 451.272 458.794 451.348 458.602 451.348H433.793C433.601 451.348 433.417 451.272 433.282 451.136C433.146 451.001 433.07 450.817 433.07 450.626V448.446C433.07 448.351 433.089 448.257 433.125 448.169C433.162 448.082 433.215 448.002 433.282 447.935C433.349 447.868 433.429 447.815 433.516 447.778C433.604 447.742 433.698 447.723 433.793 447.723Z" fill="#A87C4F"/>
<path d="M460.007 439.592L454.004 391.067L455.139 367.006L458.127 361.149C459.1 359.85 459.626 358.271 459.626 356.649V342.759L448.511 343.521L448.463 346.469H440.22C440.082 348.44 441.068 391.284 441.068 391.284C441.068 391.284 446.583 434.534 446.402 439.592H460.007Z" fill="#0F4E81"/>
<path d="M460.539 347.422L436.556 347.474L434.57 314.034C434.792 313.041 434.975 312.14 435.145 311.33C436.086 306.81 436.556 304.916 440.213 302.917L449.344 299.207C449.745 299.37 450.134 299.562 450.507 299.782C452.677 301.17 454.471 303.071 455.731 305.318C456.991 307.564 457.678 310.087 457.73 312.662L460.539 347.422Z" fill="#1968A7"/>
<path d="M461.741 347.474H435.341L435.132 338.278L435.015 333.445L434.57 314.034C434.792 313.041 434.975 312.14 435.145 311.33C437.748 310.995 440.16 309.789 441.99 307.908L442.003 307.895C443.261 306.693 444.378 305.351 445.334 303.897C446.697 302.124 448.473 300.712 450.507 299.783C451.665 300.021 452.802 300.358 453.903 300.789C454.627 301.207 455.23 301.805 455.653 302.526C456.994 304.637 457.965 306.96 458.527 309.397C459.123 311.911 459.451 314.481 459.507 317.065L460.709 333.445L461.061 338.278L461.741 347.474Z" fill="#F99819"/>
<path d="M446.191 316.307C445.851 321.088 447.053 341.309 447.432 347.474C447.51 348.611 447.549 349.264 447.549 349.264H442.063C442.063 349.264 442.023 348.611 441.958 347.474C441.632 341.701 440.652 323.374 440.835 313.916C440.865 311.862 441.254 309.828 441.984 307.908L441.998 307.895C443.256 306.693 444.373 305.351 445.328 303.897C446.691 302.124 448.467 300.712 450.501 299.783C451.66 300.021 452.796 300.358 453.898 300.789C454.622 301.207 455.225 301.805 455.648 302.526C447.601 303.571 446.57 311.134 446.191 316.307Z" fill="white"/>
<path d="M461.398 345.169V349.007C461.4 349.064 461.391 349.122 461.371 349.176C461.351 349.23 461.32 349.28 461.28 349.322C461.241 349.364 461.193 349.398 461.141 349.422C461.088 349.445 461.031 349.458 460.973 349.46H435.768C435.711 349.458 435.654 349.445 435.601 349.422C435.548 349.398 435.501 349.364 435.461 349.322C435.422 349.28 435.391 349.23 435.371 349.176C435.351 349.122 435.342 349.064 435.344 349.007V345.169C435.341 345.052 435.384 344.94 435.463 344.855C435.543 344.77 435.652 344.72 435.768 344.716H460.973C461.09 344.72 461.199 344.77 461.279 344.855C461.358 344.94 461.401 345.052 461.398 345.169Z" fill="#8D5D34"/>
<path d="M448.495 345.753V357.894C448.495 358.031 448.469 358.166 448.417 358.292C448.365 358.418 448.289 358.533 448.192 358.629C448.096 358.726 447.981 358.802 447.855 358.854C447.729 358.906 447.593 358.932 447.457 358.932H444.714C444.577 358.933 444.442 358.906 444.315 358.855C444.188 358.803 444.073 358.727 443.976 358.63C443.879 358.534 443.801 358.419 443.749 358.293C443.696 358.167 443.668 358.031 443.668 357.894V345.753C443.667 345.622 443.691 345.492 443.741 345.37C443.79 345.249 443.864 345.138 443.956 345.045C444.053 344.941 444.17 344.858 444.301 344.801C444.431 344.744 444.572 344.715 444.714 344.716H447.457C447.593 344.714 447.728 344.742 447.852 344.798C448.043 344.874 448.207 345.006 448.322 345.176C448.436 345.347 448.497 345.548 448.495 345.753Z" fill="#A87C4F"/>
<g style="mix-blend-mode:multiply" opacity="0.5">
<path d="M448.495 345.753V351.659L443.668 350.325V345.753C443.667 345.622 443.691 345.492 443.741 345.37C443.79 345.248 443.864 345.138 443.956 345.045L447.852 344.798C448.043 344.874 448.207 345.005 448.322 345.176C448.436 345.346 448.497 345.548 448.495 345.753Z" fill="#A87C4F"/>
</g>
<path d="M448.376 344.713H443.799C443.522 344.713 443.297 344.938 443.297 345.215V348.841C443.297 349.119 443.522 349.344 443.799 349.344H448.376C448.653 349.344 448.878 349.119 448.878 348.841V345.215C448.878 344.938 448.653 344.713 448.376 344.713Z" fill="#A87C4F"/>
<path d="M441.52 345.655V354.393C441.52 354.517 441.496 354.639 441.448 354.753C441.401 354.867 441.332 354.97 441.245 355.058C441.158 355.145 441.054 355.214 440.94 355.261C440.826 355.308 440.704 355.333 440.581 355.333H438.588C438.464 355.333 438.342 355.308 438.228 355.261C438.114 355.214 438.011 355.145 437.923 355.058C437.836 354.971 437.767 354.867 437.72 354.753C437.673 354.639 437.648 354.517 437.648 354.393V345.655C437.649 345.428 437.731 345.209 437.879 345.037C437.967 344.936 438.076 344.855 438.199 344.8C438.321 344.744 438.453 344.716 438.588 344.716H440.581C440.715 344.716 440.848 344.744 440.97 344.8C441.092 344.855 441.201 344.936 441.289 345.037C441.437 345.209 441.519 345.428 441.52 345.655Z" fill="#A87C4F"/>
<g style="mix-blend-mode:multiply" opacity="0.5">
<path d="M441.52 345.655V349.436L437.648 348.571V345.655C437.649 345.428 437.731 345.209 437.879 345.038H441.289C441.437 345.209 441.519 345.428 441.52 345.655Z" fill="#A87C4F"/>
</g>
<path d="M437.6 344.713H441.566C441.699 344.713 441.827 344.766 441.921 344.86C442.015 344.954 442.068 345.082 442.068 345.215V346.92C442.068 347.053 442.015 347.18 441.921 347.275C441.827 347.369 441.699 347.422 441.566 347.422H437.6C437.467 347.422 437.339 347.369 437.245 347.275C437.151 347.18 437.098 347.053 437.098 346.92V345.215C437.098 345.082 437.151 344.954 437.245 344.86C437.339 344.766 437.466 344.713 437.6 344.713Z" fill="#A87C4F"/>
<path d="M457.078 345.521V353.017C457.059 353.248 456.95 353.462 456.774 353.613C456.599 353.764 456.37 353.839 456.139 353.823H454.146C453.915 353.839 453.687 353.764 453.511 353.613C453.335 353.462 453.226 353.248 453.207 353.017V345.521C453.209 345.422 453.23 345.324 453.269 345.233C453.309 345.142 453.366 345.06 453.438 344.991C453.629 344.811 453.883 344.712 454.146 344.716H456.139C456.402 344.712 456.656 344.811 456.848 344.991C456.919 345.06 456.976 345.142 457.016 345.233C457.055 345.324 457.077 345.422 457.078 345.521Z" fill="#A87C4F"/>
<g style="mix-blend-mode:multiply" opacity="0.5">
<path d="M457.078 345.655V349.436L453.207 348.571V345.655C453.208 345.428 453.29 345.209 453.438 345.038H456.848C456.996 345.209 457.077 345.428 457.078 345.655Z" fill="#A87C4F"/>
</g>
<path d="M453.158 344.713H457.124C457.258 344.713 457.385 344.766 457.479 344.86C457.574 344.954 457.627 345.082 457.627 345.215V346.92C457.627 347.053 457.574 347.18 457.479 347.275C457.385 347.369 457.258 347.422 457.124 347.422H453.158C453.025 347.422 452.898 347.369 452.803 347.275C452.709 347.18 452.656 347.053 452.656 346.92V345.215C452.656 345.082 452.709 344.954 452.803 344.86C452.897 344.766 453.025 344.713 453.158 344.713Z" fill="#A87C4F"/>
<path d="M421.139 279.178L410.251 301.071C410.114 301.348 410.037 301.65 410.025 301.959C410.013 302.268 410.068 302.576 410.184 302.863C410.301 303.149 410.477 303.407 410.701 303.62C410.925 303.833 411.192 303.996 411.484 304.098L413.307 304.734L416.292 305.95L424.724 281.649L421.139 279.178Z" fill="#DC9D77"/>
<path d="M420.034 281.937C420.193 279.646 420.8 277.408 421.822 275.351C424.461 271.722 427.373 268.3 430.534 265.115C430.617 265.037 430.713 264.973 430.817 264.927C432.467 264.309 430.73 268.798 430.447 269.327C429.257 271.116 428.175 272.973 427.205 274.89C426.609 277.636 425.741 280.316 424.615 282.89C424.069 283.94 423.28 284.845 422.313 285.528C421.347 286.212 420.231 286.655 419.059 286.819L420.034 281.937Z" fill="#DC9D77"/>
<path d="M423.441 283.62C424.328 283.02 425.154 282.336 425.909 281.577C426.188 281.297 426.458 281.006 426.712 280.703C427.197 280.105 427.648 279.481 428.065 278.834C428.493 278.348 428.812 277.777 429.002 277.158C429.022 277.091 429.029 277.021 429.022 276.951C429.015 276.882 428.994 276.814 428.96 276.753C428.829 276.566 428.545 276.598 428.326 276.665C427.334 276.971 426.454 277.563 425.797 278.367C425.247 279.053 424.824 279.831 424.549 280.666C424.215 281.678 424.201 282.873 423.441 283.62Z" fill="#DC9D77"/>
<path d="M461.057 338.279H435.127L435.012 333.446H460.704L461.057 338.279Z" fill="#FCBA17"/>
<path d="M463.225 336.201C463.303 336.772 463.198 337.353 462.924 337.86L453.075 356.618L453.061 356.605L450.318 361.725C449.375 363.154 447.905 364.152 446.229 364.502C444.553 364.852 442.807 364.525 441.37 363.594L440.743 363.254C440.106 362.965 439.607 362.439 439.351 361.788C439.095 361.137 439.102 360.412 439.372 359.766L442.167 354.541C442.522 353.905 443.03 353.368 443.647 352.98C444.263 352.591 444.967 352.365 445.694 352.321L448.685 352.098L456.588 334.712L455.151 328.377L453.428 320.839L461.343 321.244L461.996 326.443L463.225 336.201Z" fill="#DC9D77"/>
<g style="mix-blend-mode:multiply" opacity="0.7">
<path d="M462.002 326.443C459.755 327.203 457.47 327.848 455.158 328.377L453.434 320.839L461.349 321.244L462.002 326.443Z" fill="#DC9D77"/>
</g>
<path d="M449.401 310.409C447.798 305.102 452.15 300.444 456.927 303.258C457.773 303.795 458.5 304.501 459.063 305.33C459.626 306.16 460.013 307.096 460.2 308.081L463.198 324.797L452.506 325.432L449.401 310.409Z" fill="#1968A7"/>
<path d="M447.348 282.399C447.348 282.399 448.677 290.944 455.1 290.999L455.773 288.495C454.601 288.42 453.475 288.011 452.528 287.316C451.581 286.622 450.852 285.671 450.428 284.576L447.348 282.399Z" fill="black"/>
<path d="M444.234 273.971C444.804 273.169 445.558 272.516 446.432 272.066C447.307 271.615 448.276 271.381 449.26 271.383C450.599 271.271 451.944 271.488 453.18 272.015C454.415 272.542 455.503 273.363 456.348 274.407C457.194 275.451 457.771 276.685 458.03 278.003C458.289 279.321 458.222 280.683 457.834 281.969L457.313 281.954L456.674 278.421L453.954 275.374L447.864 273.955L445.284 274.37L444.234 273.971Z" fill="#FCBA17"/>
<path d="M457.648 285.257C457.546 286.132 457.394 287 457.193 287.857L433.675 279.259C433.581 279.227 433.499 279.166 433.442 279.084C433.386 279.003 433.357 278.905 433.36 278.806C433.362 278.706 433.397 278.611 433.459 278.532C433.52 278.454 433.605 278.398 433.701 278.371L438.541 278.213C443.534 271.055 453.929 270.433 456.721 276.356C457.814 279.189 458.134 282.26 457.648 285.257Z" fill="#FCBA17"/>
<path d="M456.719 276.356C453.927 270.433 443.532 271.055 438.539 278.213L441.948 279.47L442.917 278.481L445.341 279.468L445.515 280.784L450.535 282.635L451.439 281.713L453.862 282.7L454.024 283.921L457.647 285.257C458.132 282.26 457.812 279.189 456.719 276.356Z" fill="#F99819"/>
<path d="M266.474 283.68C267.727 283.68 268.743 282.664 268.743 281.411C268.743 280.157 267.727 279.142 266.474 279.142C265.221 279.142 264.205 280.157 264.205 281.411C264.205 282.664 265.221 283.68 266.474 283.68Z" fill="#6D6E70"/>
<path d="M267.454 282.788H265.494V296.974H267.454V282.788Z" fill="#929497"/>
<g style="mix-blend-mode:multiply" opacity="0.3">
<path d="M267.454 282.788V284.591C266.773 284.394 266.115 284.122 265.494 283.781V282.788H267.454Z" fill="#929497"/>
</g>
<path d="M271.131 301.272L270.353 298.894C270.209 298.451 269.9 298.08 269.491 297.857C269.082 297.634 268.603 297.575 268.152 297.693L262.397 299.871C262.006 299.974 261.66 300.203 261.412 300.523C261.165 300.844 261.031 301.237 261.031 301.641V303.728C261.031 304.11 261.151 304.483 261.374 304.794L263.343 308.14C263.503 308.364 263.713 308.549 263.955 308.68C264.197 308.812 264.466 308.888 264.742 308.901C265.018 308.914 265.293 308.864 265.546 308.756C265.8 308.648 266.026 308.484 266.207 308.276L270.771 303.043C270.979 302.805 271.122 302.516 271.185 302.205C271.248 301.895 271.23 301.573 271.131 301.272Z" fill="#B97054"/>
<path d="M268.568 293.73V316.148H264.375V293.73C264.376 293.436 264.493 293.154 264.701 292.946C264.91 292.738 265.192 292.62 265.486 292.619H267.457C267.752 292.62 268.034 292.738 268.242 292.946C268.45 293.154 268.567 293.436 268.568 293.73Z" fill="#F37029"/>
<g style="mix-blend-mode:multiply" opacity="0.3">
<path d="M268.569 293.73V315.517H266.938V292.619H267.458C267.752 292.62 268.034 292.738 268.242 292.946C268.45 293.154 268.568 293.436 268.569 293.73Z" fill="#B4531B"/>
</g>
<path d="M273.024 320.15L271.193 305.769C271.547 305.085 271.758 304.336 271.813 303.568C271.793 302.843 271.501 302.152 270.994 301.633C270.488 301.114 269.805 300.805 269.08 300.767C268.502 300.789 267.925 300.7 267.38 300.505C266.641 300.156 266.058 298.831 265.69 297.742C265.572 297.376 265.331 297.062 265.007 296.854C264.684 296.647 264.298 296.557 263.916 296.602C263.681 296.636 263.457 296.72 263.259 296.85C263.061 296.98 262.894 297.152 262.77 297.354C262.646 297.556 262.568 297.783 262.541 298.018C262.515 298.253 262.541 298.492 262.618 298.716C262.917 299.588 263.293 300.706 263.627 301.766C263.939 303.061 263.922 304.413 263.579 305.699C263.5 306.041 263.489 306.395 263.546 306.741L265.949 321.582L266.028 322.282L259.033 323.153L264.698 336.333C264.843 336.672 265.084 336.96 265.392 337.163C265.7 337.366 266.06 337.474 266.429 337.474C267.83 337.484 269.922 337.494 269.942 337.464C273.094 333.411 273.024 320.15 273.024 320.15Z" fill="#D38963"/>
<path d="M264.007 448.139C263.7 446.458 262.968 444.883 261.878 443.566L259.724 438.318H250.438L248.28 443.575C247.196 444.892 246.465 446.462 246.155 448.139C246.039 448.704 245.964 449.277 245.931 449.852C245.927 449.9 245.932 449.948 245.946 449.994C245.961 450.039 245.984 450.082 246.015 450.118C246.046 450.155 246.083 450.185 246.126 450.206C246.169 450.228 246.215 450.241 246.263 450.245H263.899C263.947 450.241 263.993 450.228 264.036 450.206C264.079 450.185 264.116 450.155 264.147 450.118C264.178 450.082 264.201 450.039 264.216 449.994C264.23 449.948 264.235 449.9 264.231 449.852C264.198 449.277 264.123 448.704 264.007 448.139Z" fill="#754C28"/>
<path d="M246.089 447.723H264.064C264.228 447.723 264.385 447.788 264.501 447.904C264.617 448.02 264.682 448.178 264.682 448.342V450.73C264.682 450.894 264.617 451.051 264.501 451.167C264.385 451.283 264.228 451.348 264.064 451.348H246.089C245.925 451.348 245.768 451.283 245.652 451.167C245.536 451.051 245.471 450.894 245.471 450.73V448.342C245.471 448.178 245.536 448.02 245.652 447.904C245.768 447.788 245.925 447.723 246.089 447.723Z" fill="#A87C4F"/>
<path d="M241.764 448.139C241.458 446.458 240.725 444.883 239.636 443.566L237.482 438.318H228.195L226.037 443.575C224.953 444.892 224.222 446.462 223.913 448.139C223.797 448.704 223.722 449.277 223.689 449.852C223.685 449.9 223.69 449.948 223.704 449.994C223.718 450.039 223.742 450.082 223.772 450.118C223.803 450.155 223.841 450.185 223.884 450.206C223.926 450.228 223.973 450.241 224.02 450.245H241.657C241.705 450.241 241.751 450.228 241.794 450.206C241.836 450.184 241.874 450.154 241.905 450.118C241.936 450.081 241.959 450.039 241.973 449.994C241.988 449.948 241.993 449.9 241.989 449.852C241.955 449.277 241.88 448.704 241.764 448.139Z" fill="#754C28"/>
<path d="M223.854 447.723H241.83C241.994 447.723 242.151 447.788 242.267 447.904C242.383 448.02 242.448 448.178 242.448 448.342V450.73C242.448 450.894 242.383 451.051 242.267 451.167C242.151 451.283 241.994 451.348 241.83 451.348H223.854C223.69 451.348 223.533 451.283 223.417 451.167C223.301 451.051 223.236 450.894 223.236 450.73V448.342C223.236 448.178 223.301 448.02 223.417 447.904C223.533 447.788 223.69 447.723 223.854 447.723Z" fill="#A87C4F"/>
<path d="M230.538 320.461L230.303 321.663L229.088 327.894L228.2 332.478L223.288 361.033L225.848 362.797C226.477 363.215 226.991 363.785 227.342 364.454C227.694 365.123 227.872 365.869 227.86 366.624L227.625 372.751C227.531 373.471 227.158 374.126 226.587 374.575C226.015 375.025 225.291 375.232 224.568 375.154L223.85 375.141C222.077 375.227 220.343 374.607 219.026 373.417C217.709 372.227 216.917 370.565 216.822 368.792L217.031 362.784H217.018L220.493 330.219L221.381 325.856L222.309 321.336L222.335 321.218L230.538 320.461Z" fill="#DC9D77"/>
<g style="mix-blend-mode:multiply" opacity="0.7">
<path d="M230.305 321.663L229.09 327.894C226.595 327.319 223.264 326.391 221.383 325.856L222.31 321.336L230.305 321.663Z" fill="#DC9D77"/>
</g>
<path d="M237.234 299.654C226.727 300.578 224.583 305.432 224.583 305.432C224.084 306.252 223.717 307.147 223.492 308.079L220.494 324.795L231.185 325.431L234.291 310.408C234.329 310.281 234.347 310.157 234.379 310.032L237.234 307.917V299.654Z" fill="#1968A7"/>
<path d="M249.945 299.654C260.453 300.578 262.597 305.432 262.597 305.432C263.095 306.252 263.463 307.146 263.688 308.079L269.022 323.628L255.994 325.431L252.889 310.408C252.851 310.281 252.832 310.157 252.801 310.032L249.945 307.917V299.654Z" fill="#1968A7"/>
<path d="M261.489 439.42H248.641L248.471 435.055L245.652 362.855C244.373 363.061 243.069 363.061 241.79 362.855L238.972 435.055L238.801 439.42H225.953L226.105 435.055L229.122 350.386L229.189 348.605C229.16 348.276 229.151 347.946 229.141 347.606H258.301C258.291 347.946 258.282 348.276 258.254 348.605L258.424 353.403L261.337 435.055L261.489 439.42Z" fill="#0F4E81"/>
<path d="M270.861 335.025C270.932 335.673 270.782 336.326 270.436 336.878C270.09 337.43 269.568 337.85 268.954 338.069C267.96 338.224 266.953 338.268 265.949 338.2C265.541 338.198 265.142 338.077 264.801 337.852C264.46 337.627 264.192 337.307 264.029 336.933L259.483 326.338L258.922 325.032L267.556 323.831C267.844 324.692 268.17 325.633 268.497 326.561C268.51 326.587 268.51 326.6 268.523 326.626C269.046 328.128 269.555 329.552 269.842 330.375C270.453 331.853 270.798 333.427 270.861 335.025Z" fill="#DC9D77"/>
<g style="mix-blend-mode:multiply" opacity="0.7">
<path d="M268.497 326.561C265.491 326.702 262.479 326.627 259.483 326.338L258.922 325.032L267.556 323.831C267.844 324.692 268.17 325.633 268.497 326.561Z" fill="#DC9D77"/>
</g>
<path d="M239.435 292.841H241.596H245.563H247.727L249.531 306.363H245.563H241.596H237.631L239.435 292.841Z" fill="#DC9D77"/>
<path d="M254.6 303.273C253.416 301.834 251.969 300.633 250.336 299.734H237.104C235.464 300.628 234.015 301.835 232.84 303.286L232.827 303.3C230.405 306.248 229.091 309.95 229.112 313.765V349.316H258.316V313.765C258.333 309.942 257.02 306.233 254.6 303.273Z" fill="#F99819"/>
<path d="M237.104 299.734C235.464 300.628 234.016 301.835 232.84 303.286V348.15H237.236V299.734H237.104Z" fill="white"/>
<path d="M250.339 299.734H250.207V348.15H254.604V303.273C253.419 301.834 251.972 300.633 250.339 299.734Z" fill="white"/>
<path d="M249.187 286.603C249.214 287.057 249.374 287.493 249.647 287.857C249.919 288.222 250.292 288.498 250.72 288.653C251.148 288.808 251.612 288.834 252.054 288.728C252.497 288.623 252.899 288.39 253.21 288.059C253.522 287.727 253.73 287.312 253.809 286.864C253.887 286.416 253.833 285.954 253.653 285.537C253.472 285.119 253.173 284.763 252.793 284.514C252.413 284.264 251.968 284.131 251.513 284.131C250.877 284.151 250.275 284.422 249.838 284.885C249.402 285.349 249.168 285.967 249.187 286.603Z" fill="#DC9D77"/>
<path d="M233.317 286.603C233.345 287.057 233.505 287.493 233.777 287.857C234.05 288.222 234.423 288.498 234.851 288.653C235.279 288.808 235.742 288.834 236.185 288.728C236.627 288.623 237.029 288.39 237.341 288.059C237.653 287.727 237.861 287.312 237.94 286.864C238.018 286.416 237.964 285.954 237.783 285.537C237.603 285.119 237.304 284.763 236.924 284.514C236.544 284.264 236.099 284.131 235.644 284.131C235.008 284.15 234.405 284.422 233.969 284.885C233.533 285.349 233.299 285.967 233.317 286.603Z" fill="#DC9D77"/>
<path d="M243.578 296.977C247.98 296.977 251.548 291.784 251.548 285.377C251.548 278.97 247.98 273.777 243.578 273.777C239.176 273.777 235.607 278.97 235.607 285.377C235.607 291.784 239.176 296.977 243.578 296.977Z" fill="#DC9D77"/>
<path d="M243.579 293.914C248.806 293.914 253.044 289.933 253.044 285.024C253.044 280.114 248.806 276.134 243.579 276.134C238.351 276.134 234.113 280.114 234.113 285.024C234.113 289.933 238.351 293.914 243.579 293.914Z" fill="#231F20"/>
<path d="M240.304 288.864L239.254 287.383C240.127 286.648 240.843 285.746 241.362 284.73C241.88 283.714 242.189 282.604 242.271 281.467L244.016 281.514C243.93 282.927 243.556 284.308 242.918 285.572C242.28 286.836 241.39 287.956 240.304 288.864Z" fill="#231F20"/>
<path d="M247.206 288.863C246.12 287.955 245.23 286.835 244.592 285.571C243.953 284.307 243.58 282.926 243.494 281.512L245.239 281.467L244.367 281.489L245.239 281.463C245.326 282.6 245.637 283.708 246.155 284.724C246.673 285.74 247.387 286.643 248.256 287.382L247.206 288.863Z" fill="#231F20"/>
<path d="M234.262 282.279C234.623 284.244 235.628 286.032 237.118 287.361C238.608 288.691 240.499 289.487 242.491 289.623H244.676L244.69 289.622C246.678 289.481 248.562 288.683 250.047 287.354C251.531 286.025 252.531 284.239 252.889 282.279H234.262ZM244.645 287.768L242.521 287.768C241.097 287.717 239.725 287.219 238.6 286.345C237.474 285.471 236.652 284.265 236.25 282.898L243.199 282.415L243.444 282.38L250.9 282.898C250.499 284.262 249.679 285.466 248.557 286.34C247.434 287.214 246.066 287.713 244.645 287.768Z" fill="#231F20"/>
<path d="M253.827 281.781C253.827 282.643 251.531 283.399 248.187 283.77C246.655 283.936 245.114 284.015 243.572 284.008C237.908 284.008 233.316 283.014 233.316 281.781C233.322 281.667 233.36 281.556 233.426 281.462C233.493 281.368 233.584 281.295 233.691 281.251C233.733 281.21 233.784 281.178 233.84 281.159C234.177 274.491 238.394 269.215 243.572 269.215C243.701 269.212 243.83 269.217 243.958 269.228C248.973 269.48 252.978 274.649 253.303 281.159C253.356 281.184 253.406 281.215 253.452 281.251C253.559 281.295 253.65 281.368 253.717 281.462C253.783 281.556 253.821 281.667 253.827 281.781Z" fill="#FCBA17"/>
<path d="M259.865 345.7V349.503C259.872 349.757 259.778 350.004 259.604 350.189C259.429 350.375 259.189 350.484 258.935 350.494H247.254L228.504 350.484C228.378 350.481 228.254 350.454 228.138 350.403C228.023 350.352 227.918 350.279 227.831 350.188C227.744 350.097 227.675 349.99 227.63 349.872C227.584 349.755 227.562 349.629 227.565 349.503V345.7C227.562 345.574 227.584 345.448 227.63 345.331C227.675 345.213 227.744 345.106 227.831 345.015C227.918 344.924 228.023 344.851 228.138 344.8C228.254 344.749 228.378 344.722 228.504 344.719H258.935C259.188 344.727 259.428 344.834 259.603 345.018C259.777 345.201 259.871 345.447 259.865 345.7Z" fill="#8D5D34"/>
<g style="mix-blend-mode:multiply" opacity="0.5">
<path d="M259.865 345.7V349.503C259.871 349.757 259.777 350.004 259.603 350.189C259.429 350.375 259.189 350.484 258.935 350.494H247.254V344.719H258.935C259.188 344.727 259.428 344.834 259.602 345.018C259.776 345.201 259.871 345.447 259.865 345.7Z" fill="#8D5D34"/>
</g>
<g style="mix-blend-mode:multiply" opacity="0.5">
<path d="M259.865 348.282V349.503C259.872 349.757 259.778 350.004 259.604 350.189C259.429 350.375 259.189 350.484 258.935 350.494L228.504 350.484C228.378 350.481 228.254 350.454 228.138 350.403C228.023 350.352 227.918 350.279 227.831 350.188C227.744 350.097 227.675 349.99 227.63 349.872C227.584 349.754 227.562 349.629 227.565 349.503V348.282H259.865Z" fill="#8D5D34"/>
</g>
<path d="M262.16 344.719V360.997C262.167 361.257 262.071 361.509 261.892 361.697C261.713 361.886 261.467 361.995 261.207 362.003H257.554C257.294 361.995 257.047 361.886 256.869 361.697C256.69 361.508 256.593 361.257 256.6 360.997V344.719H262.16Z" fill="#A87C4F"/>
<g style="mix-blend-mode:multiply" opacity="0.5">
<path d="M262.16 344.72V349.303L256.6 348.141V344.72H262.16Z" fill="#A87C4F"/>
</g>
<path d="M256.066 347.298H262.695V344.716H256.066V347.298Z" fill="#A87C4F"/>
<path d="M254.779 344.719V356.6C254.785 356.863 254.687 357.118 254.506 357.31C254.325 357.501 254.075 357.612 253.812 357.619H251.285C251.022 357.612 250.772 357.501 250.591 357.31C250.41 357.118 250.312 356.863 250.319 356.6V344.719H254.779Z" fill="#A87C4F"/>
<g style="mix-blend-mode:multiply" opacity="0.5">
<path d="M254.778 344.72V348.712L250.318 347.773V344.72H254.778Z" fill="#A87C4F"/>
</g>
<path d="M249.961 346.924H255.133V344.716H249.961V346.924Z" fill="#A87C4F"/>
<path d="M258.316 333.445H229.111V338.278H258.316V333.445Z" fill="#FCBA17"/>
<path d="M247.04 281.305L249.367 281.101L249.635 281.619C251.004 281.522 252.3 281.402 253.453 281.251C253.406 281.215 253.356 281.184 253.303 281.158C252.979 274.649 248.974 269.48 243.959 269.228C243.831 269.217 243.702 269.212 243.573 269.215C238.395 269.215 234.178 274.49 233.841 281.158C233.785 281.178 233.734 281.21 233.691 281.251C234.844 281.402 236.141 281.522 237.51 281.619L237.777 281.101L240.104 281.305L240.284 281.768C241.349 281.808 242.439 281.834 243.573 281.834C244.705 281.834 245.796 281.808 246.861 281.769L247.04 281.305Z" fill="#F99819"/>
<path d="M245.804 271.853H241.349C241.286 271.853 241.224 271.838 241.167 271.81C241.111 271.781 241.062 271.74 241.025 271.689C240.988 271.638 240.963 271.579 240.953 271.517C240.942 271.454 240.947 271.39 240.966 271.33L241.692 269.031C241.718 268.95 241.769 268.879 241.837 268.828C241.906 268.778 241.99 268.75 242.075 268.75H245.078C245.164 268.751 245.247 268.778 245.316 268.828C245.385 268.879 245.436 268.95 245.461 269.031L246.187 271.33C246.206 271.39 246.211 271.454 246.201 271.517C246.19 271.579 246.166 271.638 246.128 271.689C246.091 271.74 246.042 271.781 245.986 271.81C245.93 271.838 245.867 271.853 245.804 271.853Z" fill="#FCBA17"/>
<path d="M265.59 279.53H267.353C267.473 279.53 267.589 279.577 267.674 279.663C267.76 279.748 267.808 279.864 267.808 279.985V282.869C267.808 282.99 267.76 283.106 267.674 283.191C267.589 283.277 267.473 283.325 267.353 283.325H265.59C265.469 283.325 265.354 283.277 265.268 283.191C265.183 283.106 265.135 282.99 265.135 282.869V279.985C265.135 279.864 265.183 279.748 265.268 279.663C265.354 279.578 265.469 279.53 265.59 279.53Z" fill="#929497"/>
<path d="M995.437 452.654H1.56254C1.37139 452.688 1.17501 452.68 0.987269 452.63C0.799525 452.581 0.624989 452.49 0.475977 452.366C0.326965 452.241 0.207102 452.085 0.124859 451.909C0.0426162 451.733 0 451.542 0 451.347C0 451.153 0.0426162 450.961 0.124859 450.785C0.207102 450.609 0.326965 450.454 0.475977 450.329C0.624989 450.204 0.799525 450.114 0.987269 450.064C1.17501 450.015 1.37139 450.007 1.56254 450.041H995.437C995.628 450.007 995.825 450.015 996.013 450.064C996.2 450.114 996.375 450.204 996.524 450.329C996.673 450.454 996.793 450.609 996.875 450.785C996.957 450.961 997 451.153 997 451.347C997 451.542 996.957 451.733 996.875 451.909C996.793 452.085 996.673 452.241 996.524 452.366C996.375 452.49 996.2 452.581 996.013 452.63C995.825 452.68 995.628 452.688 995.437 452.654Z" fill="black"/>
</svg>
