<svg xmlns="http://www.w3.org/2000/svg" width="128" height="80" viewBox="0 0 128 80" fill="none">
    <path fill-rule="evenodd" clip-rule="evenodd" d="M78.8626 62.9532C77.6009 62.9532 76.7177 62.5774 75.9607 61.8256C75.2037 61.0738 74.8252 60.0715 74.8252 58.6933C74.8252 57.4403 75.2037 56.438 75.9607 55.6862C76.7177 54.9345 77.6009 54.5586 78.8626 54.5586C79.2411 54.5586 79.4935 54.5586 79.7458 54.5586C79.9982 54.5586 80.2505 54.6839 80.5028 54.6839C80.629 54.6839 80.8813 54.8092 81.1337 54.9345C81.386 55.0598 81.5122 55.0598 81.6384 55.1851V57.0645H81.386C81.2599 56.9392 81.1337 56.8139 81.0075 56.8139C80.8813 56.6886 80.629 56.5633 80.5028 56.438C80.2505 56.3127 80.1243 56.1874 79.872 56.1874C79.6196 56.0621 79.3673 56.0621 79.115 56.0621C78.8626 56.0621 78.6103 56.0621 78.358 56.1874C78.1056 56.3127 77.8533 56.438 77.6009 56.6886C77.3486 56.9392 77.2224 57.1897 77.0963 57.5656C76.9701 57.9415 76.8439 58.3174 76.8439 58.8186C76.8439 59.3197 76.9701 59.6956 77.0963 60.0715C77.2224 60.4474 77.3486 60.698 77.6009 60.9485C77.8533 61.1991 78.1056 61.3244 78.358 61.4497C78.6103 61.575 78.8626 61.575 79.115 61.575C79.3673 61.575 79.6196 61.575 79.872 61.4497C80.1243 61.3244 80.3767 61.3244 80.5028 61.1991C80.629 61.0738 80.8813 60.9485 81.0075 60.8233C81.1337 60.698 81.2599 60.5727 81.386 60.5727H81.5122V62.4521C81.386 62.5774 81.1337 62.5774 81.0075 62.7027C80.7552 62.8279 80.629 62.8279 80.3767 62.9532C80.1243 63.0785 79.872 63.0785 79.6196 63.0785C79.6196 62.9532 79.2411 62.9532 78.8626 62.9532ZM84.4141 62.8279V56.3127H82.0169V54.8092H88.83V56.3127H86.4328V62.8279H84.4141ZM95.8955 57.315C95.8955 57.6909 95.8955 58.0668 95.7694 58.4427C95.6432 58.8186 95.517 59.0691 95.2647 59.3197C95.1385 59.445 95.0124 59.5703 94.76 59.6956C94.6338 59.8209 94.3815 59.9462 94.2553 59.9462C94.003 60.0715 93.8768 60.0715 93.6245 60.1968C93.3721 60.1968 93.1198 60.3221 92.8675 60.3221H91.8581V62.9532H89.8394V54.9345H92.9936C93.4983 54.9345 93.8768 54.9345 94.2553 55.0598C94.6338 55.1851 94.8862 55.3104 95.1385 55.4356C95.3909 55.6862 95.6432 55.9368 95.8955 56.1874C95.7694 56.438 95.8955 56.8139 95.8955 57.315ZM93.7507 57.315C93.7507 57.0645 93.7507 56.9392 93.6245 56.6886C93.4983 56.5633 93.3721 56.438 93.246 56.3127C92.9936 56.1874 92.8675 56.1874 92.7413 56.1874C92.6151 56.1874 92.3628 56.1874 91.9843 56.1874H91.7319V58.6933H91.8581C92.1104 58.6933 92.2366 58.6933 92.3628 58.6933C92.489 58.6933 92.7413 58.6933 92.8675 58.6933C92.9936 58.6933 93.1198 58.6933 93.246 58.568C93.3721 58.568 93.4983 58.4427 93.4983 58.4427C93.6245 58.3174 93.7507 58.1921 93.7507 58.0668C93.7507 57.8162 93.7507 57.5656 93.7507 57.315ZM104.349 58.8186C104.349 60.0715 103.97 61.1991 103.34 61.9509C102.583 62.7026 101.699 63.0785 100.438 63.0785C99.176 63.0785 98.2928 62.7026 97.5357 61.9509C96.7787 61.1991 96.5264 60.1968 96.5264 58.9439C96.5264 57.6909 96.9049 56.5633 97.5357 55.8115C98.2928 55.0598 99.176 54.6839 100.438 54.6839C101.699 54.6839 102.583 55.0598 103.34 55.8115C104.097 56.438 104.349 57.4403 104.349 58.8186ZM102.33 58.8186C102.33 58.3174 102.33 57.9415 102.204 57.5656C102.078 57.1897 101.952 56.9392 101.826 56.6886C101.699 56.438 101.447 56.3127 101.195 56.1874C100.942 56.0621 100.69 56.0621 100.564 56.0621C100.311 56.0621 100.059 56.0621 99.933 56.1874C99.6806 56.3127 99.5545 56.438 99.3021 56.6886C99.176 56.9392 99.0498 57.1897 98.9236 57.5656C98.7974 57.9415 98.7974 58.3174 98.7974 58.8186C98.7974 59.3197 98.7974 59.6956 98.9236 60.0715C99.0498 60.4474 99.176 60.698 99.3021 60.9485C99.4283 61.1991 99.6806 61.3244 99.933 61.4497C100.185 61.575 100.438 61.575 100.564 61.575C100.816 61.575 101.069 61.575 101.321 61.4497C101.573 61.3244 101.699 61.1991 101.952 60.9485C102.078 60.698 102.204 60.4474 102.33 60.0715C102.204 59.6956 102.33 59.3197 102.33 58.8186ZM112.55 62.8279H110.531V57.5656L107.377 62.8279H105.484V54.8092H107.503V59.5703L110.405 54.8092H112.55V62.8279ZM112.045 52.0527C112.045 52.6792 111.793 53.1804 111.288 53.5563C110.784 53.9321 110.153 54.1827 109.143 54.1827C108.134 54.1827 107.503 53.9321 106.998 53.5563C106.494 53.1804 106.241 52.6792 106.241 52.0527H108.008C108.008 52.4286 108.134 52.6792 108.26 52.9298C108.386 53.0551 108.639 53.1804 109.143 53.1804C109.522 53.1804 109.774 53.0551 110.027 52.9298C110.153 52.8045 110.279 52.4286 110.279 52.0527H112.045Z" fill="white"/>
    <path fill-rule="evenodd" clip-rule="evenodd" d="M83.6578 78.4896H81.6391V73.102L80.125 76.6102H78.7371L77.2231 73.102V78.4896H75.3306V70.4708H77.7278L79.4942 74.4802L81.2605 70.4708H83.6578V78.4896ZM92.742 74.4802C92.742 75.7331 92.3635 76.8608 91.7326 77.6125C90.9756 78.3643 90.0924 78.7402 88.8307 78.7402C87.569 78.7402 86.6858 78.3643 85.9288 77.6125C85.1718 76.8608 84.9195 75.8584 84.9195 74.6055C84.9195 73.3525 85.298 72.2249 85.9288 71.4731C86.6858 70.7214 87.569 70.3455 88.8307 70.3455C90.0924 70.3455 90.9756 70.7214 91.7326 71.4731C92.3635 72.0996 92.742 73.102 92.742 74.4802ZM90.5971 74.4802C90.5971 73.979 90.5971 73.6031 90.4709 73.2272C90.3448 72.8514 90.2186 72.6008 90.0924 72.3502C89.9663 72.0996 89.7139 71.9743 89.4616 71.849C89.2092 71.7237 88.9569 71.7237 88.8307 71.7237C88.5784 71.7237 88.326 71.7237 88.1999 71.849C87.9475 71.9743 87.8214 72.0996 87.569 72.3502C87.4429 72.6008 87.3167 72.8514 87.1905 73.2272C87.0644 73.6031 87.0644 73.979 87.0644 74.4802C87.0644 74.9814 87.0644 75.3572 87.1905 75.7331C87.3167 76.109 87.4429 76.3596 87.569 76.6102C87.6952 76.8608 87.9475 76.986 88.1999 77.1113C88.4522 77.2366 88.7046 77.2366 88.8307 77.2366C89.0831 77.2366 89.3354 77.2366 89.5877 77.1113C89.8401 76.986 89.9663 76.8608 90.2186 76.6102C90.3448 76.3596 90.4709 76.109 90.5971 75.7331C90.5971 75.3572 90.5971 74.9814 90.5971 74.4802ZM100.817 78.4896H98.7981V74.8561H96.0224V78.4896H94.0037V70.4708H96.0224V73.4778H98.7981V70.4708H100.817V78.4896ZM103.971 78.4896V71.9743H101.574V70.4708H108.387V71.9743H105.99V78.4896H103.971ZM108.387 78.4896L111.163 70.4708H113.434L116.21 78.4896H114.065L113.56 76.8608H111.037L110.532 78.4896H108.387ZM113.055 75.3572L112.172 72.7261L111.289 75.3572H113.055ZM127.817 78.4896H125.42L123.401 75.2319H122.897V78.4896H120.878V75.2319H120.373L118.354 78.4896H115.957L118.481 74.3549C118.354 74.2296 118.228 74.1043 118.102 73.979C117.976 73.8537 117.85 73.6031 117.724 73.2272C117.597 72.8514 117.471 72.6008 117.219 72.3502C117.093 72.2249 116.84 72.0996 116.588 72.0996H116.21V70.3455C116.336 70.3455 116.336 70.3455 116.462 70.3455C116.588 70.3455 116.714 70.3455 116.967 70.3455C117.471 70.3455 117.976 70.4708 118.354 70.7214C118.733 70.972 118.985 71.2226 119.111 71.7237C119.111 71.849 119.238 71.9743 119.238 72.2249C119.238 72.3502 119.364 72.6008 119.49 72.7261C119.742 73.102 119.868 73.4778 119.995 73.6031C120.121 73.7284 120.373 73.8537 120.626 73.8537V70.4708H122.644V73.7284C122.897 73.7284 123.149 73.6031 123.401 73.4778C123.527 73.3525 123.78 73.102 123.906 72.6008C123.906 72.4755 124.032 72.3502 124.032 72.0996C124.158 71.9743 124.158 71.7237 124.158 71.5984C124.411 71.0973 124.663 70.7214 124.915 70.5961C125.294 70.3455 125.672 70.2202 126.303 70.2202C126.429 70.2202 126.682 70.2202 126.808 70.2202C126.934 70.2202 127.06 70.2202 127.06 70.2202V71.9743H126.682C126.429 71.9743 126.177 72.0996 126.051 72.2249C125.925 72.3502 125.798 72.6008 125.672 73.102C125.546 73.4778 125.42 73.7284 125.294 73.8537C125.168 73.979 125.041 74.1043 124.915 74.2296L127.817 78.4896Z" fill="white"/>
    <path fill-rule="evenodd" clip-rule="evenodd" d="M20.3208 59.3196C21.204 60.0713 22.0872 60.6978 22.9704 61.3243C28.3957 64.9578 34.8303 66.9625 42.1482 66.8372C73.1859 64.7072 75.3308 17.2211 33.5686 24.4881L33.7876 25.729C44.0065 23.9508 51.3443 25.5536 56.1844 28.7853C61.0145 32.0104 63.5156 36.9599 63.8929 42.2282C64.65 52.7977 56.8486 64.5489 42.0934 65.5781C35.0546 65.6923 28.8913 63.7662 23.6937 60.2892C22.8105 59.6626 21.9763 59.0694 21.1464 58.363L20.3208 59.3196Z" fill="#EF7D00"/>
    <path fill-rule="evenodd" clip-rule="evenodd" d="M38.3126 45.9065H38.3619C45.6104 45.9065 53.0799 43.5726 59.6957 40.3647C65.649 37.4781 70.8407 33.9181 74.4668 30.8277L76.4652 30.7529C69.0212 37.5188 53.3761 47.1663 38.3619 47.1663C5.93629 49.6722 10.8569 31.3794 39.6236 32.1312L39.5902 33.3906C32.5231 33.2059 27.0001 34.1945 23.197 35.6873C21.2945 36.4341 19.8593 37.2924 18.8758 38.1604C17.886 39.034 17.4192 39.8564 17.2933 40.5348C17.1759 41.1678 17.3255 41.8226 17.8994 42.5034C18.4998 43.2156 19.5757 43.9581 21.2773 44.588C24.6812 45.8481 30.2443 46.53 38.2635 45.9103L38.3126 45.9065Z" fill="#EF7D00"/>
    <path fill-rule="evenodd" clip-rule="evenodd" d="M15.6519 78.6148L12.3715 61.5749H8.08172L4.92748 78.6148H1.26855L4.4228 61.5749H2.65642V58.5678H4.92748L8.33406 40.5256H11.8668L15.3996 58.5678H17.2921V61.5749H16.0304L19.1847 78.6148H15.6519ZM11.7406 58.5678L10.2266 50.4238L8.71257 58.5678H11.7406Z" fill="#BBC1C5"/>
    <path fill-rule="evenodd" clip-rule="evenodd" d="M17.545 50.424H19.9422L24.232 25.1147H28.2694L32.5592 50.424H34.4517V54.4333H33.19L37.2275 78.7402H33.0639L29.0264 54.4333H23.475L19.4375 78.7402H15.2739L19.3114 54.4333H17.545V50.424ZM24.1058 50.424H28.2694L26.1245 37.8946L24.1058 50.424Z" fill="#BBC1C5"/>
    <path d="M55.9004 37.644H36.4702V41.904H55.9004V37.644Z" fill="#EF7D00"/>
    <path fill-rule="evenodd" clip-rule="evenodd" d="M53.629 78.6148L48.456 40.5257H48.3298L46.1849 23.7364L44.04 40.5257L38.8671 78.6148H33.1895L38.6148 39.0222L43.5354 1.05835H48.9607L53.8813 39.0222L59.1804 78.6148H53.629Z" fill="#EF7D00"/>
    <path fill-rule="evenodd" clip-rule="evenodd" d="M81.6384 42.6556C81.6384 44.0338 81.2599 45.0362 80.5028 45.788C79.7458 46.5397 78.7365 46.9156 77.6009 46.9156C76.9701 46.9156 76.4654 46.7903 75.9607 46.665C75.456 46.5397 75.0775 46.4144 74.8252 46.2891V44.4097H75.0775C75.2037 44.4097 75.2037 44.535 75.456 44.6603C75.5822 44.7856 75.8346 44.9109 75.9607 45.0362C76.2131 45.1615 76.3392 45.2868 76.5916 45.2868C76.8439 45.4121 77.0963 45.4121 77.3486 45.4121C77.6009 45.4121 77.8533 45.4121 78.1056 45.2868C78.3579 45.1615 78.6103 45.1615 78.7365 44.9109C78.9888 44.7856 79.115 44.535 79.2411 44.2844C79.3673 44.0338 79.4935 43.658 79.4935 43.2821H76.2131V41.7786H79.3673C79.3673 41.4027 79.2411 41.1521 79.115 41.0268C78.9888 40.7762 78.8626 40.6509 78.6103 40.5256C78.3579 40.4003 78.2318 40.2751 77.9794 40.2751C77.7271 40.2751 77.4748 40.1498 77.3486 40.1498C77.0963 40.1498 76.8439 40.1498 76.5916 40.2751C76.3392 40.4003 76.0869 40.4003 75.9607 40.5256C75.7084 40.6509 75.5822 40.7762 75.456 40.9015C75.3299 41.0268 75.2037 41.1521 75.0775 41.1521H74.8252V39.2727C75.2037 39.1474 75.5822 38.8968 76.0869 38.7715C76.5916 38.6462 77.0963 38.6462 77.6009 38.6462C78.7365 38.6462 79.7458 39.0221 80.5028 39.7739C81.2599 40.4003 81.6384 41.4027 81.6384 42.6556ZM89.7132 46.7903H87.6945V43.1568H84.9188V46.7903H82.9001V38.6462H84.9188V41.6533H87.6945V38.6462H89.7132V46.7903ZM91.3534 46.7903V38.6462H96.9049V40.1498H93.4983V41.528H96.6526V43.0315H93.4983V45.0362H96.9049V46.5397H91.3534V46.7903ZM104.475 41.2774C104.475 41.6533 104.475 42.0292 104.349 42.405C104.223 42.7809 104.097 43.0315 103.844 43.2821C103.718 43.4074 103.592 43.5327 103.34 43.658C103.213 43.7833 102.961 43.9086 102.835 43.9086C102.583 44.0338 102.456 44.0338 102.204 44.1591C101.952 44.1591 101.699 44.2844 101.447 44.2844H100.438V46.9156H98.4189V38.6462H101.573C102.078 38.6462 102.456 38.6462 102.835 38.7715C103.213 38.8968 103.466 39.0221 103.718 39.1474C103.97 39.398 104.223 39.6486 104.475 39.8992C104.349 40.4003 104.475 40.7762 104.475 41.2774ZM102.33 41.2774C102.33 41.0268 102.33 40.9015 102.204 40.6509C102.078 40.5256 101.952 40.4003 101.826 40.2751C101.573 40.1498 101.447 40.1498 101.321 40.1498C101.195 40.1498 100.942 40.1498 100.564 40.1498H100.311V42.5303H100.438C100.69 42.5303 100.816 42.5303 100.942 42.5303C101.069 42.5303 101.321 42.5303 101.447 42.5303C101.573 42.5303 101.699 42.5303 101.826 42.405C101.952 42.405 102.078 42.2797 102.078 42.2797C102.204 42.1545 102.33 42.0292 102.33 41.9039C102.33 41.7786 102.33 41.528 102.33 41.2774ZM111.036 40.2751H107.629V46.7903H105.611V38.6462H111.036V40.2751ZM119.237 42.7809C119.237 44.0338 118.858 45.1615 118.228 45.9132C117.471 46.665 116.587 47.0409 115.326 47.0409C114.064 47.0409 113.181 46.665 112.424 45.9132C111.667 45.1615 111.414 44.1591 111.414 42.9062C111.414 41.6533 111.793 40.5256 112.424 39.7739C113.181 39.0221 114.064 38.6462 115.326 38.6462C116.587 38.6462 117.471 39.0221 118.228 39.7739C118.858 40.4003 119.237 41.4027 119.237 42.7809ZM117.218 42.7809C117.218 42.2797 117.218 41.9039 117.092 41.528C116.966 41.1521 116.84 40.9015 116.714 40.6509C116.587 40.4003 116.335 40.2751 116.083 40.1498C115.83 40.0245 115.578 40.0245 115.452 40.0245C115.2 40.0245 114.947 40.0245 114.821 40.1498C114.569 40.2751 114.443 40.4003 114.19 40.6509C114.064 40.9015 113.938 41.1521 113.812 41.528C113.685 41.9039 113.685 42.2797 113.685 42.7809C113.685 43.2821 113.685 43.658 113.812 44.0338C113.938 44.4097 114.064 44.6603 114.19 44.9109C114.316 45.1615 114.569 45.2868 114.821 45.4121C115.073 45.5374 115.326 45.5374 115.452 45.5374C115.704 45.5374 115.957 45.5374 116.209 45.4121C116.461 45.2868 116.587 45.1615 116.84 44.9109C116.966 44.6603 117.092 44.4097 117.218 44.0338C117.092 43.658 117.218 43.2821 117.218 42.7809Z" fill="#EF7D00"/>
</svg>