<svg width="68" height="54" viewBox="0 0 68 54" fill="none" xmlns="http://www.w3.org/2000/svg">
<g clip-path="url(#clip0_22_1547)">
<path d="M20.7615 11.3644C19.7572 7.93646 17.031 8.31217 15.167 9.90873C10.5754 14.1817 4.59677 23.1505 8.42313 36.065C11.6277 47.0059 24.9617 54.0026 24.9617 54.0026H9.41775C9.41775 54.0026 1.39172 44.9398 0.674246 34.2808C-0.234475 20.8043 5.12281 12.305 11.3406 6.76431C17.1757 1.55208 22.7239 0.00256348 22.7239 0.00256348L34.0732 37.4651L45.4224 0.00256348C45.4224 0.00256348 50.9706 1.55208 56.8057 6.76431C63.0235 12.305 68.3808 20.8043 67.4721 34.2808C66.7546 44.9398 58.7286 54.0026 58.7286 54.0026H43.1846C43.1846 54.0026 56.5176 47.0059 59.7232 36.065C63.5495 23.152 57.5709 14.1832 52.9793 9.90873C51.114 8.31217 48.3878 7.93646 47.3848 11.3644C43.9411 22.3052 34.0746 53.6531 34.0746 53.6531C34.0746 53.6531 24.208 22.2948 20.7643 11.3644H20.7615Z" fill="#717171"/>
</g>
<defs>
<clipPath id="clip0_22_1547">
<rect width="67" height="54" fill="white" transform="translate(0.571289)"/>
</clipPath>
</defs>
</svg>
