<svg width="146" height="12" viewBox="0 0 146 12" fill="none" xmlns="http://www.w3.org/2000/svg">
<g clip-path="url(#clip0_22_1525)">
<path d="M60.2578 10.14V9.42C60.3905 7.08 61.8505 4.2 63.576 2.7H68.2214H68.9514H74.5924L74.1942 3.9H68.0224C66.0978 5.58 64.9696 8.28 65.766 10.2H71.9378L71.5396 11.4H65.9651H60.5896C60.3905 11.04 60.2578 10.62 60.2578 10.14ZM89.3914 10.98L89.2587 11.4H89.3914V10.98ZM89.3914 2.7V3.24L89.1924 3.9H85.1442L82.4896 11.4H77.6451L80.2996 3.9H76.4505L76.7824 2.7H80.6978H85.5424H89.3914ZM89.3914 3.24L89.5242 2.7H89.3914V3.24ZM89.3914 11.4V10.98L92.2451 2.7H96.426H97.0896H102.598H103.593H106.447C107.044 4.02 106.314 6 104.788 7.32H101.934H101.138H96.6914L97.0896 6.12H100.607C101.071 5.58 101.47 4.5 101.403 3.9H96.6914L94.0369 11.4H89.3914ZM116.534 2.7V3.9H115.539C113.614 5.58 112.486 8.28 113.282 10.2H116.534V11.4H116.003H114.012H108.637C107.575 9 109.433 4.68 111.69 2.7H114.211H116.534ZM142.681 2.7H140.691L132.461 9L134.718 2.7H129.873L126.754 11.4H129.276H131.532H131.599V11.34L139.894 4.8L137.571 11.4H142.416L145.469 2.7H142.681ZM116.534 11.4V10.2H117.53C119.72 8.22 120.45 5.58 119.72 3.9H116.468V2.7H116.932H118.99H122.507H124.299C125.161 4.74 123.967 9.06 121.246 11.4H116.534ZM140.691 1.26L141.288 0C139.297 0.96 136.775 0.84 136.045 0L135.448 1.26C136.244 1.98 138.7 2.22 140.691 1.26Z" fill="#777979"/>
<path d="M17.3209 2.82001H14.4673H13.4718H7.96364H7.3H3.05273L0 11.58H4.84455L7.49909 4.08001H12.2109C12.3436 4.68001 11.8791 5.76001 11.4145 6.3H7.96364L7.56545 7.5H11.9455H12.7418H15.5955C17.1882 6.12 17.8518 4.20001 17.3209 2.82001Z" fill="#777979"/>
<path d="M24.2893 2.82001H19.4448L23.2275 6.84L17.1221 11.52H20.1084L27.2757 6L24.2893 2.82001Z" fill="#777979"/>
<path d="M41.5439 2.82001H38.823L32.3193 6.54L34.9739 11.58H39.2212L36.3012 5.94001L41.5439 2.82001Z" fill="#777979"/>
<path d="M28.4697 2.82001L25.3506 11.58H30.1951L33.3142 2.82001H28.4697Z" fill="#777979"/>
<path d="M43.269 10.38L47.8481 6.96V5.40001L39.4199 11.58H41.6763H47.8481V10.38H43.269ZM47.8481 6.96L49.9054 5.40001L52.3608 10.38H47.7817V11.58H52.9581H57.8026H58.9308C58.7981 11.22 58.6654 10.8 58.6654 10.38H57.139L53.3563 2.82001H51.3654L47.8481 5.40001V6.96Z" fill="#777979"/>
</g>
<defs>
<clipPath id="clip0_22_1525">
<rect width="146" height="12" fill="white"/>
</clipPath>
</defs>
</svg>
